<?xml version="1.0" encoding="UTF-8" standalone="no"?>
<svg
   xmlns:dc="http://purl.org/dc/elements/1.1/"
   xmlns:cc="http://creativecommons.org/ns#"
   xmlns:rdf="http://www.w3.org/1999/02/22-rdf-syntax-ns#"
   xmlns:svg="http://www.w3.org/2000/svg"
   xmlns="http://www.w3.org/2000/svg"
   xmlns:sodipodi="http://sodipodi.sourceforge.net/DTD/sodipodi-0.dtd"
   xmlns:inkscape="http://www.inkscape.org/namespaces/inkscape"
   width="451.2612mm"
   height="451.2612mm"
   viewBox="0 0 451.2612 451.2612"
   version="1.1"
   id="svg2095"
   inkscape:version="1.0.2 (1.0.2+r75+1)"
   sodipodi:docname="drawing2.svg">
  <defs
     id="defs2089">
    <inkscape:path-effect
       effect="curvestitching"
       id="path-effect1456"
       is_visible="true"
       lpeversion="1"
       count="85"
       startpoint_edge_variation="0;1"
       startpoint_spacing_variation="0;1"
       endpoint_edge_variation="0;1"
       endpoint_spacing_variation="0;1"
       strokepath="M -128.08885,92.637982 C -213.176,-87.727014 -303.52382,129.28007 -448.11471,93.491617 -549.37105,68.429131 -702.99535,365.58988 -766.74583,227.07554"
       prop_scale="1"
       scale_y_rel="false"
       strokepath-nodetypes="csc" />
    <marker
       style="overflow:visible"
       id="marker1327"
       refX="0.0"
       refY="0.0"
       orient="auto"
       inkscape:stockid="Arrow1Lstart"
       inkscape:isstock="true">
      <path
         transform="scale(0.8) translate(12.5,0)"
         style="fill-rule:evenodd;stroke:#008080;stroke-width:1pt;stroke-opacity:1;fill:#008080;fill-opacity:1"
         d="M 0.0,0.0 L 5.0,-5.0 L -12.5,0.0 L 5.0,5.0 L 0.0,0.0 z "
         id="path1325" />
    </marker>
    <marker
       style="overflow:visible"
       id="marker1287"
       refX="0.0"
       refY="0.0"
       orient="auto"
       inkscape:stockid="Arrow1Lstart"
       inkscape:isstock="true">
      <path
         transform="scale(0.8) translate(12.5,0)"
         style="fill-rule:evenodd;stroke:#008080;stroke-width:1pt;stroke-opacity:1;fill:#008080;fill-opacity:1"
         d="M 0.0,0.0 L 5.0,-5.0 L -12.5,0.0 L 5.0,5.0 L 0.0,0.0 z "
         id="path1285" />
    </marker>
    <marker
       style="overflow:visible"
       id="marker1253"
       refX="0.0"
       refY="0.0"
       orient="auto"
       inkscape:stockid="Arrow1Lstart"
       inkscape:isstock="true">
      <path
         transform="scale(0.8) translate(12.5,0)"
         style="fill-rule:evenodd;stroke:#008080;stroke-width:1pt;stroke-opacity:1;fill:#008080;fill-opacity:1"
         d="M 0.0,0.0 L 5.0,-5.0 L -12.5,0.0 L 5.0,5.0 L 0.0,0.0 z "
         id="path1251" />
    </marker>
    <marker
       style="overflow:visible"
       id="marker1147"
       refX="0.0"
       refY="0.0"
       orient="auto"
       inkscape:stockid="Arrow1Lstart"
       inkscape:isstock="true">
      <path
         transform="scale(0.8) translate(12.5,0)"
         style="fill-rule:evenodd;stroke:#008080;stroke-width:1pt;stroke-opacity:1;fill:#008080;fill-opacity:1"
         d="M 0.0,0.0 L 5.0,-5.0 L -12.5,0.0 L 5.0,5.0 L 0.0,0.0 z "
         id="path1145" />
    </marker>
    <marker
       style="overflow:visible"
       id="marker1125"
       refX="0.0"
       refY="0.0"
       orient="auto"
       inkscape:stockid="Arrow1Lstart"
       inkscape:isstock="true">
      <path
         transform="scale(0.8) translate(12.5,0)"
         style="fill-rule:evenodd;stroke:#008080;stroke-width:1pt;stroke-opacity:1;fill:#008080;fill-opacity:1"
         d="M 0.0,0.0 L 5.0,-5.0 L -12.5,0.0 L 5.0,5.0 L 0.0,0.0 z "
         id="path1123" />
    </marker>
    <marker
       style="overflow:visible"
       id="Arrow1Lstart"
       refX="0.0"
       refY="0.0"
       orient="auto"
       inkscape:stockid="Arrow1Lstart"
       inkscape:isstock="true">
      <path
         transform="scale(0.8) translate(12.5,0)"
         style="fill-rule:evenodd;stroke:#008080;stroke-width:1pt;stroke-opacity:1;fill:#008080;fill-opacity:1"
         d="M 0.0,0.0 L 5.0,-5.0 L -12.5,0.0 L 5.0,5.0 L 0.0,0.0 z "
         id="path847" />
    </marker>
    <inkscape:path-effect
       effect="curvestitching"
       id="path-effect845"
       is_visible="true"
       lpeversion="1"
       count="80"
       startpoint_edge_variation="0;1"
       startpoint_spacing_variation="0;1"
       endpoint_edge_variation="0;1"
       endpoint_spacing_variation="0;1"
       strokepath="M -74.020928,248.28916 C 392.28048,110.73729 550.57285,-63.639747 18.945174,66.948326 -115.54685,99.984707 -245.97324,137.48315 -205.68134,241.91921"
       prop_scale="1"
       scale_y_rel="false"
       strokepath-nodetypes="csc" />
  </defs>
  <sodipodi:namedview
     id="base"
     pagecolor="#e6e6e6"
     bordercolor="#666666"
     borderopacity="1.0"
     inkscape:pageopacity="0"
     inkscape:pageshadow="2"
     inkscape:zoom="0.35355339"
     inkscape:cx="346.06756"
     inkscape:cy="856.80273"
     inkscape:document-units="mm"
     inkscape:current-layer="layer2"
     inkscape:document-rotation="0"
     showgrid="false"
     fit-margin-top="0"
     fit-margin-left="0"
     fit-margin-right="0"
     fit-margin-bottom="0"
     showborder="false"
     inkscape:window-width="1920"
     inkscape:window-height="1025"
     inkscape:window-x="0"
     inkscape:window-y="27"
     inkscape:window-maximized="0" />
  <metadata
     id="metadata2092">
    <rdf:RDF>
      <cc:Work
         rdf:about="">
        <dc:format>image/svg+xml</dc:format>
        <dc:type
           rdf:resource="http://purl.org/dc/dcmitype/StillImage" />
        <dc:title></dc:title>
      </cc:Work>
    </rdf:RDF>
  </metadata>
  <g
     inkscape:label="Canvas"
     inkscape:groupmode="layer"
     id="layer1"
     transform="translate(15.6306,77.1306)"
     sodipodi:insensitive="true">
    <rect
       style="opacity:1;fill:#ffffff;stroke-width:0.0894292;stroke-linecap:round;stroke-linejoin:round"
       id="rect2110"
       width="451.2612"
       height="451.2612"
       x="-15.6306"
       y="-77.1306"
       ry="1.1328373" />
  </g>
  <g
     inkscape:groupmode="layer"
     id="layer2"
     inkscape:label="Layer 1">
    <path
       id="circle840"
       style="fill:none;stroke:#008080;stroke-width:0.529167;stroke-linecap:round;stroke-linejoin:round;stroke-miterlimit:4;stroke-dasharray:none;marker-mid:url(#marker1327)"
       d="m 153.52604,163.095 c 60.65613,-64.780314 81.24668,-146.903492 12.09295,-85.402803 -17.49461,15.55854 -34.46037,33.218493 -29.21924,82.402863 m 12.72833,6.31273 c 65.56481,-59.77822 92.58133,-140.014728 18.80919,-84.178106 -18.663,14.125632 -36.96537,30.387926 -35.63622,79.832626 m 12.16733,7.27971 c 69.99367,-54.43899 103.2217,-132.301657 25.36757,-82.43694 -19.69568,12.614843 -39.20087,27.38802 -41.77815,76.78267 m 11.51442,8.1993 c 73.95021,-48.7878 113.16591,-123.802678 31.75523,-80.189895 -20.59539,11.033235 -41.17177,24.232855 -47.63847,73.269095 m 10.78015,9.06459 C 211.90589,131.18268 256.86963,59.478639 172.42176,96.585644 151.058,105.97303 129.5413,117.5212 119.21756,165.89132 m 9.97523,9.8701 c 80.45068,-36.64364 130.90053,-104.584929 43.93353,-74.2113 -22.00107,7.68397 -44.32668,17.50937 -58.45588,64.90645 m 9.11029,10.6119 c 82.98461,-30.19985 138.63064,-93.940065 49.66557,-70.49922 -22.50651,5.9301 -45.50777,13.96852 -63.36818,60.08793 m 8.19532,11.28731 c 85.02764,-23.54578 145.5472,-82.664499 55.11171,-66.3245 -22.87852,4.13371 -46.41927,10.32902 -67.9112,54.87096 m 7.23946,11.89473 c 86.56646,-16.71488 151.60118,-70.81534 60.23166,-61.70859 -23.1148,2.30385 -47.05547,6.60914 -72.05193,49.2821 m 6.25058,12.43331 c 87.58702,-9.74579 156.74193,-58.46134 64.98424,-56.67968 -23.21301,0.45071 -47.4103,2.82979 -75.756523,43.35443 m 5.235283,12.90239 c 88.07616,-2.68224 160.92078,-45.68287 69.32941,-51.27278 -23.17094,-1.41416 -47.47813,-0.98545 -78.992203,37.1276 m 4.19874,13.30115 c 88.023273,4.42742 164.094843,-32.57076 73.230473,-45.52896 -22.98702,-3.27818 -47.25463,-4.81066 -81.729453,30.64709 m 3.14489,13.62816 c 87.421623,11.53121 166.230013,-19.22401 76.655883,-39.49399 -22.66061,-5.12793 -46.73748,-8.61811 -83.943653,23.96293 m 2.07672,13.88088 c 86.269263,18.57509 167.303113,-5.74642 79.580383,-33.21648 -22.19223,-6.94942 -45.92678,-12.3789 -85.616323,17.12791 m 0.99672,14.05559 c 84.569463,25.50446 167.302683,7.75707 81.985603,-26.7457 -21.58365,-8.72857 -44.82538,-16.06397 -86.735623,10.19542 m -0.0927,14.14719 c 82.330473,32.26591 166.228633,21.18413 83.859723,-20.12938 -20.83783,-10.45156 -43.43859,-19.64478 -87.296013,3.21737 m -1.18891,14.14925 C 150.63523,205.83163 235.16099,201.46155 156.26698,153.61123 136.30825,141.50598 114.49301,130.517 68.969597,149.85346 m -2.28828,14.05419 c 76.288213,45.08619 160.905173,47.43339 85.994123,-6.63151 -18.95112,-13.67742 -39.84068,-26.38721 -86.743643,-10.68653 m -3.38613,13.85356 c 72.517693,51.05629 156.692423,60.09191 86.252223,0.17839 -17.82007,-15.15701 -37.6486,-29.50104 -85.640543,-17.53149 m -4.47637,13.53845 c 68.270133,56.68207 151.471683,72.34934 85.970413,6.99208 -16.57062,-16.53421 -35.20751,-32.41571 -83.993483,-24.26179 m -5.54927,13.10226 c 63.562923,61.92886 145.261003,84.14572 85.145813,13.78634 -15.20805,-17.79962 -32.52758,-35.11224 -81.806333,-30.84913 m -6.55848,12.59724 C 110.36365,214.71214 190.05179,243.3019 135.68041,168.4595 121.92546,149.52574 106.02715,130.91022 56.565957,131.26186 m -7.51433,12.01232 c 53.054523,71.02689 130.249243,105.77332 81.922293,26.98112 -12.22583,-19.93298 -26.61329,-39.71825 -75.947213,-43.27 m -8.42095,11.33806 c 47.32903,74.8659 121.559213,115.54183 79.550083,33.32331 -10.62757,-20.79976 -23.42139,-41.62348 -72.319933,-49.05816 m -9.27175,10.58512 c 41.32091,78.23476 112.126173,124.59557 76.682223,39.46931 -8.96667,-21.53538 -20.09055,-43.26669 -68.246143,-54.54745 m -10.06165,9.76423 c 35.05407,81.1295 101.985583,132.9068 73.327603,45.39122 -7.24995,-22.13982 -16.634323,-44.64692 -63.740423,-59.71685 m -10.78705,8.88586 c 28.55483,83.54186 91.178283,140.43788 69.498203,51.05544 -5.48467,-22.61211 -13.067233,-45.76111 -58.820123,-64.5398 m -11.44558,7.95986 c 21.85321,85.46015 79.753503,147.14351 65.210913,56.42387 -3.67902,-22.95039 -9.405813,-46.60436 -53.507443,-68.9854 m -12.03586,6.99505 c 14.98394,86.87072 67.771243,152.97393 60.488833,61.45585 -1.842303,-23.15239 -5.668993,-47.1708 -47.830513,-73.020285 m -12.55713,5.999015 c 7.98695,87.75958 55.30315,157.87858 55.36191,66.11022 0.0149,-23.21572 -1.87839,-47.45435 -41.8241,-76.610613 m -13.00872,4.977963 c 0.90717,88.11407 42.43237,161.80997 49.86671,70.34762 1.88074,-23.13828 1.94187,-47.44968 -35.52937,-79.724275 m -13.38972,3.936756 c -6.20601,87.924459 29.25208,164.727109 44.04565,74.132509 3.74249,-22.91877 5.76529,-47.15289 -28.99312,-82.332838 m -13.69842,2.87907 c -13.29994,87.185098 15.86277,166.598498 37.94542,77.434788 5.58651,-22.55678 9.56382,-46.56225 -22.26622,-84.413137 m -13.93206,1.807736 c -20.32029,85.895371 2.36891,167.403811 31.615,80.230921 7.39872,-22.05312 13.30841,-45.67851 -15.40185,-85.948334 m -14.08652,0.725152 c -27.21261,84.059812 -11.12488,167.134562 25.10347,82.504232 9.1651,-21.40992 16.97003,-44.50516 -8.45322,-86.928186 m -14.15637,-0.366272 c -33.92403,81.687858 -24.51753,165.793298 18.45783,84.244428 10.87198,-20.63037 20.52048,-43.04814 -1.47152,-87.348646 m -14.1349,-1.46361 c -40.40472,78.792926 -37.71488,163.391646 11.72108,85.446536 12.50639,-19.71867 23.93308,-41.31545 5.49588,-87.210765 M 55.992597,65.631713 C 9.3835169,141.02289 5.3603069,225.57918 60.923277,151.74091 74.979687,133.06119 88.106567,112.42439 73.330227,65.221795 M 59.544347,61.562103 C 7.0480169,133.06199 -3.6517531,217.04313 57.662027,147.79455 c 15.51127,-17.51862 30.24911,-37.06132 19.22588,-85.279583 m -13.44071,-4.746876 c -58.0308901,67.135489 -75.34449,150.010829 -8.69369,85.815279 16.86145,-16.2403 33.11114,-34.55938 25.92342,-83.497091 M 67.696867,54.277432 C 4.5257769,116.60055 -19.304163,197.84227 52.226617,139.13327 70.322607,124.28098 87.973587,107.30794 84.688557,57.954401 M 72.228607,51.15275 c -67.8386301,57.14911 -97.98809,136.25869 -22.10875,83.37134 19.19609,-13.37952 38.11642,-28.90825 38.74182,-78.366532 M 77.009957,48.411663 C 4.9792469,100.06257 -31.271363,176.55989 48.426167,129.78778 68.588187,117.9553 88.645337,103.95876 93.170327,54.704831 m -11.15679,-8.63911 C 6.2612569,91.918309 -35.859593,165.33499 47.134337,124.94498 68.130297,114.72704 89.193197,102.34381 97.593567,53.602218 M 87.207727,44.127119 C 8.2045669,83.904586 -39.536533,153.78297 46.235697,120.01591 67.934507,111.47345 89.872177,100.77819 102.10645,52.856322 M 92.556817,42.607159 c -81.77824,33.449947 -134.86433,99.344471 -46.83288,72.414181 22.27036,-6.81287 44.95061,-15.752335 60.956253,-62.54842 M 98.021717,41.514902 C 13.953427,68.41202 -44.171813,129.8927 45.594857,109.98339 68.304187,104.94671 91.592427,97.823377 111.28274,52.455671 M 103.56075,40.856078 C 17.699797,61.006213 -45.124363,117.66368 45.845717,104.92617 68.859487,101.70381 92.617887,96.448291 115.8797,52.805073 M 109.13099,40.632396 C 21.988597,53.87739 -45.157803,105.32909 46.474547,99.876125 69.655867,98.496623 93.742987,95.150641 120.4354,53.517835 M 114.68952,40.841258 C 26.790767,47.064153 -44.264863,92.960968 47.479377,94.86231 70.688987,95.343312 94.959767,93.937219 124.9143,54.586615 M 120.1949,41.475978 C 32.076907,40.605971 -42.440813,80.638469 48.857337,89.916184 c 23.09677,2.347104 47.403,2.898514 80.424793,-33.916008 m -3.67376,-13.47375 C 37.817087,34.543027 -39.685583,68.446723 50.603997,85.071294 c 22.84162,4.205714 47.03281,6.718384 82.903233,-27.327207 M 130.89481,43.980086 C 43.980607,28.916028 -36.005463,56.475074 52.712737,80.362548 c 22.44409,6.043087 46.36871,10.50615 84.848593,-20.560932 M 136.02326,45.823338 C 50.535877,23.765867 -31.414023,44.814752 55.174467,75.825542 77.079777,83.670704 100.58662,90.058257 141.42012,62.155005 M 140.96709,48.04285 C 57.450427,19.133429 -25.932303,33.556504 57.977547,71.495717 c 21.22766,9.597916 44.167213,17.869142 87.085793,-6.708954 m 0.64018,-14.159867 C 64.690947,15.059218 -19.588113,22.788242 61.108007,67.407518 c 20.41464,11.28786 42.640463,21.387561 87.366393,0.273408 m 1.73846,-14.114354 C 72.223507,11.583176 -12.414663,12.593018 64.550057,63.593753 84.020737,76.495999 105.39037,88.355514 151.63963,70.82419 m 2.83773,-13.967617 C 80.013767,8.7444758 -4.4485231,3.0475538 68.286757,60.085059 86.687467,74.5145 107.06314,88.052888 154.54715,74.206629 m 3.93267,-13.710885 C 88.027257,6.5814338 4.2728269,-5.7786242 72.300867,56.909625 89.510727,72.768602 108.75949,87.894042 157.18562,77.822277 m 5.01629,-13.335115 C 96.229737,5.1314508 13.713807,-13.823385 76.575767,54.093117 92.478687,71.274742 110.47211,87.885894 159.54268,81.669119 m 6.0633,-12.855293 C 104.54455,4.4308298 23.790097,-20.999076 81.072757,51.669261 95.564217,70.053016 112.18481,88.033895 161.59365,85.726903 m 7.04211,-12.316597 C 112.83176,4.4793808 34.330727,-27.216281 85.715717,49.666956 98.715177,69.117004 113.86882,88.333887 163.30494,89.93564 m 7.97425,-11.685687 C 121.05062,5.2448268 45.279967,-32.495686 90.480557,48.074689 101.91547,68.457505 115.51605,88.778355 164.67075,94.275074 m 8.85368,-10.970763 C 129.16559,6.6950678 56.590997,-36.85522 95.346827,46.881872 c 9.804513,21.183944 21.772493,42.47784 70.337963,51.841334 m 9.67458,-10.182498 C 137.14111,8.7988948 68.217437,-40.305429 100.29426,46.080449 c 8.11485,21.85404 18.37724,43.989824 66.04629,57.173691 m 10.43258,-9.331596 C 144.94141,11.525893 80.110717,-42.850003 105.30181,45.664691 c 6.37288,22.392597 14.86365,45.237564 61.33084,62.173489 m 11.12477,-8.428236 C 152.53016,14.846355 92.217827,-44.486974 110.34692,45.63081 c 4.58633,22.798137 11.2472,46.216969 56.21122,66.81182 m 11.74931,-7.4818 C 159.8703,18.731049 104.4796,-45.210478 115.40494,45.976331 c 2.76391,23.068579 7.54554,46.92256 50.71249,71.056309 m 12.30515,-6.50052 c -11.4987,-87.381199 -61.59296,-155.545063 -57.97383,-63.832752 0.91557,23.201523 3.77896,47.348281 44.86606,74.873082 m 12.79168,-5.49128 c -4.4544,-88.004318 -48.91248,-159.968693 -52.6578,-68.283382 -0.9475,23.194704 -0.0297,47.488339 38.70997,78.228922 m 13.20811,-4.45964 c 2.64848,-88.087723 -35.87476,-163.397526 -46.99407,-72.29865 -2.81297,23.04635 -3.85491,47.337973 32.28834,81.09329 m 13.55324,-3.40979 c 9.75876,-87.623647 -22.57706,-165.795061 -41.02739,-75.845598 -4.6676,22.755553 -7.66948,46.894308 25.65019,83.440228 m 13.82485,-2.34496 c 16.82274,-86.608864 -9.12232,-167.135209 -34.80589,-78.897329 -6.49748,22.322563 -11.44468,46.156866 18.84787,85.249679 m 14.01949,-1.2677 c 23.78581,-85.045345 4.38445,-167.403597 -28.37885,-81.433726 -8.28851,21.748796 -15.1514,45.127726 11.93479,86.508076 m 14.13241,-0.18039 c 30.59413,-82.940118 17.83993,-166.597375 -21.79462,-83.441377 -10.0268,21.036939 -18.76087,43.811647 4.96344,87.208377 m 14.15752,0.9144 c 37.19618,-80.304787 31.14617,-164.723995 -15.09836,-84.91288 -11.69902,20.190742 -22.24561,42.21569 -2.01673,87.34927 m 14.08749,2.01337 c 43.54412,-77.154337 44.21347,-161.798618 -8.33048,-85.845307 -13.29265,19.214798 -25.57992,40.348647 -8.96084,86.933797 m 13.91409,3.11213 c 49.5947,-73.505665 56.96257,-157.8407822 -1.52533,-86.23826 -14.79636,18.114131 -28.74052,38.22034 -15.82992,85.96748 m 13.62847,4.20492 c 55.30973,-69.375872 69.32571,-152.8704322 5.28946,-86.091573 -16.19998,16.893808 -31.7067,35.840623 -22.59141,84.456003 m 13.22151,5.28445 c 60.65613,-64.780314 81.24668,-146.903492 12.09295,-85.402803 -17.49461,15.55854 -34.46037,33.218493 -29.21924,82.402863" />
    <path
       id="path1421"
       style="fill:none;stroke:#008080;stroke-width:0.529167;stroke-linecap:round;stroke-linejoin:round;stroke-miterlimit:4;stroke-dasharray:none"
       inkscape:transform-center-x="0.044681803"
       inkscape:transform-center-y="-2.1542117"
       d="m 418.33143,213.87899 c 16.25515,-28.49875 -21.19882,-18.52822 -29.83267,-40.29738 -6.04624,-15.24486 -60.1113,-5.36517 -47.4799,-27.05017 m 68.85135,63.1268 c 17.84255,-27.09296 -19.40175,-17.71631 -26.31608,-38.4793 -4.84207,-14.54022 -58.2911,-5.30349 -44.45818,-25.91796 m 62.32976,60.22542 c 19.49094,-25.50864 -17.61707,-16.9407 -22.79979,-36.66207 -3.62943,-13.81078 -56.56294,-5.51112 -41.48161,-24.91797 m 55.8532,57.47003 c 21.19887,-23.69862 -15.84449,-16.21094 -19.28377,-34.8459 -2.40852,-13.04999 -54.9246,-6.05928 -38.54916,-24.08518 m 49.41845,54.89954 c 22.9569,-21.60216 -14.08209,-15.53936 -15.76799,-33.03109 -1.18064,-12.24939 -53.36183,-7.03957 -35.65381,-23.46452 m 43.0144,52.56344 C 400.9164,174.26982 363.8507,178.4712 363.92329,162.1947 c 0.0509,-11.39836 -51.83802,-8.56722 -32.77758,-23.11259 m 36.61584,50.52281 c 26.50029,-16.22947 -10.56281,-14.4359 -8.73657,-29.40706 1.27892,-10.48423 -50.27748,-10.77992 -29.88331,-23.09696 m 30.17395,48.84733 c 28.14343,-12.76449 -8.77709,-14.04233 -5.22026,-27.59871 2.49084,-9.49348 -48.54141,-13.82473 -26.90288,-23.48986 m 23.60383,47.60447 c 29.51882,-8.66949 -6.93693,-13.77677 -1.70266,-25.79335 3.66555,-8.41517 -46.40135,-17.82 -23.72411,-24.34939 m 16.81373,52.21494 c 30.42338,-4.7472 -5.00953,-14.81188 1.8032,-26.2081 4.77093,-7.9807 -43.56773,-24.21097 -20.21328,-27.7262 m 9.69977,59.47019 c 30.88743,-1.75841 -2.99822,-16.54308 5.30187,-28.09109 5.81253,-8.087 -40.08066,-30.95508 -16.38723,-32.16571 m 2.30945,65.62429 c 31.11208,0.6156 -0.93826,-18.14939 8.8017,-29.97118 6.82084,-8.27874 -36.2324,-36.77171 -12.38386,-36.1499 m -5.22118,71.34312 c 31.23661,2.45861 1.14204,-19.64783 12.302,-31.84875 7.81525,-8.54427 -32.23308,-41.78729 -8.30633,-39.74082 m -12.80361,76.6926 c 31.34427,3.86714 3.22576,-21.05799 15.80235,-33.72429 8.80734,-8.87014 -28.20833,-46.14739 -4.2163,-43.00993 m -20.3863,81.74235 c 31.47997,4.92923 5.30377,-22.39779 19.30258,-35.59817 9.8033,-9.24417 -24.22591,-49.98489 -0.14707,-46.02248 m -27.94222,86.55384 c 31.66519,5.71774 7.37174,-23.68201 22.80258,-37.47077 10.80616,-9.65619 -20.31815,-53.40965 3.88551,-48.83239 m -35.45902,91.17721 c 31.90802,6.29039 9.42801,-24.92235 26.30233,-39.34232 11.81699,-10.09825 -16.49733,-56.50876 7.87541,-51.48243 m -40.87943,92.78878 c 31.98294,7.00767 11.01328,-25.48769 28.96303,-40.04341 12.57013,-10.19329 -13.42762,-58.42529 10.98942,-52.84463 m -38.56073,83.54568 c 31.10999,8.97271 10.8021,-23.53271 28.32116,-36.13848 12.26854,-8.82777 -12.88332,-56.70821 10.86653,-49.63795 m -37.8395,76.46584 c 30.07812,11.05379 10.62318,-21.60127 27.68005,-32.23409 11.94485,-7.44611 -12.09929,-55.16618 10.86133,-46.51718 m -37.2499,69.47601 c 28.83922,13.26377 10.48634,-19.69605 27.03992,-28.33034 11.59239,-6.04654 -11.00295,-53.8186 11.00947,-43.49189 m -36.83224,62.58465 c 27.32901,15.61129 10.40462,-17.81877 26.40106,-24.42723 11.20225,-4.62788 -9.49724,-52.67853 11.35858,-40.56847 m -36.63998,55.79514 c 25.46288,18.09407 10.3952,-15.96894 25.76391,-20.52474 10.76264,-3.1904 -7.45464,-51.7425 11.97127,-37.74521 m -36.74228,49.09954 c 23.13398,20.68683 10.4798,-14.14148 25.12894,-16.62279 10.25872,-1.73765 -4.71391,-50.972395 12.92669,-35.00342 m -37.22337,42.46742 c 20.21858,23.32198 10.68352,-12.32263 24.49672,-12.72104 9.67331,-0.27902 -1.08839,-50.266261 14.31651,-32.29304 m -38.17381,35.82985 c 16.59929,25.86433 11.03028,-10.48492 23.86786,-8.81885 8.9901,1.16674 3.59904,-49.420096 16.22765,-29.51389 m -46.43684,31.32114 c 13.34528,27.7651 12.98998,-9.07638 26.04243,-5.84391 9.1406,2.26369 11.09048,-48.718697 21.20938,-27.36762 m -55.18138,26.61267 c 10.74189,29.0338 15.2382,-7.67899 28.91342,-3.09797 9.5767,3.20807 18.43701,-47.341262 26.54237,-25.02952 m -63.24608,21.42367 c 8.64696,29.91943 17.38312,-6.20375 31.78199,-0.3502 10.08347,4.09922 25.01647,-45.385866 31.49878,-22.40769 m -70.94422,15.98983 c 7.01516,30.57047 19.43399,-4.68086 34.6484,2.39867 10.65457,4.95776 30.89726,-43.076619 36.11218,-19.61215 m -78.31587,10.40869 c 5.77808,31.0875 21.40462,-3.13073 37.5129,5.14819 11.28055,5.79769 36.18255,-40.565163 40.43323,-16.71733 m -85.41223,4.74513 c 4.86666,31.53429 23.30912,-1.56636 40.37588,7.89803 11.95176,6.62786 40.97657,-37.947776 44.51308,-13.7705 m -92.28254,-0.96013 c 4.22003,31.94977 25.15983,0.004 43.23761,10.64802 12.65978,7.45367 45.37115,-35.28312 48.39684,-10.80046 m -98.96929,-6.682436 c 3.78776,32.356926 26.96697,1.576841 46.09831,13.398046 13.39758,8.27834 49.4423,-32.605922 52.12183,-7.824274 M 222.74917,89.566993 c 2.78558,32.532107 27.25613,2.676957 46.2453,15.285497 13.29804,8.8297 51.12433,-30.611787 53.03351,-5.704989 M 232.0598,87.997372 c 0.61535,32.288438 25.33701,3.08456 42.33167,15.882058 11.90128,8.96204 49.70523,-29.532034 49.96724,-4.815322 M 241.32525,86.394109 c -1.71975,31.922051 23.45139,3.517123 38.41884,16.479231 10.48164,9.07729 48.53484,-28.267141 47.0231,-3.834782 M 250.53801,84.744995 c -4.24728,31.388165 21.60484,3.983691 34.50688,17.077175 9.03526,9.1693 47.65476,-26.749604 44.22148,-2.7302 M 259.69044,83.032834 c -6.99498,30.624226 19.80304,4.497018 30.596,17.676216 7.55826,9.22934 47.10684,-24.884948 41.58291,-1.455202 M 268.77654,81.23396 c -9.98488,29.54366 18.05043,5.074659 26.68624,18.276755 6.04764,9.245375 46.92428,-22.542672 39.12374,0.0543 M 277.79527,79.31673 c -13.22072,28.0309 16.34779,5.740096 22.77766,18.879339 4.50283,9.201361 47.11275,-19.54838 36.84669,1.883871 M 286.75673,77.241745 c -16.66563,25.942485 14.68761,6.522482 18.87006,19.484646 2.92897,9.077339 47.61662,-15.685665 34.72451,4.139799 M 295.67974,74.951916 c -20.20757,23.128432 13.05062,7.456971 14.96869,20.101194 1.3432,8.85467 48.27373,-10.718926 32.68101,6.94243 M 299.35598,65.307512 c -22.76147,20.80698 12.52694,10.075025 13.24743,23.680954 0.50453,9.528174 50.05342,-2.948378 32.508,12.912414 M 303.21432,55.748298 c -24.65058,18.796536 11.86823,12.629897 11.52303,27.259258 -0.24175,10.244876 50.83019,4.352948 31.84262,18.652054 M 307.206,46.290628 c -26.05295,17.15677 11.1106,15.109458 9.79631,30.83581 -0.92039,11.013089 50.87267,11.095077 30.81675,24.117132 M 311.29054,36.932373 c -27.11634,15.879936 10.28411,17.515286 8.06799,34.41063 -1.55194,11.831736 50.40374,17.289697 29.53981,29.313437 M 315.43806,27.663101 c -27.9498,14.927967 9.4109,19.855129 6.33858,37.983932 -2.15153,12.695512 49.58795,22.994202 28.09256,34.26912 m -30.24145,-81.44613 c -28.62924,14.25417 8.50644,22.13845 4.60846,41.555907 -2.72973,13.597949 48.53983,28.279091 26.53127,39.018806 M 323.84554,9.3407983 c -29.20613,13.8134427 7.58112,24.3744177 2.87785,45.1267737 -3.29369,14.53278 47.33699,33.212358 24.89402,43.595852 M 328.08199,0.2645835 c -29.71494,13.5662565 6.64196,26.5710735 1.1469,48.6967305 -3.84816,15.494503 46.03144,37.853637 23.20635,48.029561 M 332.39687,1.7015435 c -30.18506,12.2896115 5.67878,26.4037535 -0.6111,47.9933595 -4.40478,15.119103 44.63534,38.931097 21.45798,48.130119 M 336.76844,10.058989 c -30.6125,10.115971 4.69622,24.71216 -2.38712,44.456898 -4.96043,13.827158 43.15359,37.968222 19.6568,45.515613 M 341.15959,18.361116 c -30.96849,7.740383 3.69914,23.061591 -4.16348,40.921404 -5.50616,12.507141 41.56403,37.310002 17.8027,43.05066 m -9.21838,-75.736565 c -31.21613,5.121604 2.68005,21.46044 -5.94037,37.387057 -6.03684,11.153334 39.81103,37.018688 15.86835,40.765838 m -5.46236,-69.996762 c -31.30028,2.213032 1.62774,19.918156 -7.71802,33.854079 -6.54479,9.759266 37.81136,37.164513 13.8129,38.695633 m -1.56218,-64.485854 c -31.13957,-1.032412 0.52567,18.444295 -9.49685,30.322692 -7.0187,8.318378 35.44231,37.818562 11.57613,36.874932 m 2.55232,-59.2358 c -30.61775,-4.650313 -0.64973,17.04612 -11.27736,26.793075 -7.44246,6.825748 32.5285,39.034495 9.07188,35.330075 m 6.97855,-54.263219 c -29.57946,-8.640225 -1.93006,15.723508 -13.06031,23.265208 -7.79447,5.281409 28.83553,40.811661 6.18513,34.060741 m 12.89061,-51.012329 c -27.97239,-12.746574 -3.58483,14.78536 -15.2764,20.337795 -8.18754,3.88834 23.76969,43.481954 2.36445,33.592154 m 23.22299,-53.371104 c -26.55661,-15.738237 -6.2368,15.06469 -19.21418,19.805871 -9.08801,3.320231 16.93215,47.342043 -3.36627,35.157463 m 32.85864,-54.212811 c -25.26072,-18.030147 -8.8644,15.201864 -23.15139,19.270649 -10.00512,2.849343 10.27547,50.146482 -9.00819,36.204502 M 400.80754,67.161875 C 376.62828,47.387419 389.3591,82.389674 373.71995,85.894691 362.76792,88.34924 377.66223,138.0195 359.22864,122.74068 m 51.73194,-54.566146 c -23.34023,-21.109372 -13.98323,15.170551 -31.02264,18.193062 -11.93261,2.116646 -2.02516,53.485544 -19.79485,37.184274 m 60.90619,-54.282536 c -22.73613,-22.14447 -16.4703,15.052392 -34.95657,17.651874 -12.94586,1.8204 -7.63822,54.393962 -24.92442,37.300482 M 431.0799,70.423933 C 408.73584,47.462723 412.16561,85.313829 392.19039,87.533604 378.20183,89.088103 379.259,142.50657 362.29345,124.78857 M 441.05991,71.622225 C 418.92322,48.003744 419.73918,86.3172 398.23835,88.188926 383.18142,89.499684 380.29242,143.50033 363.50568,125.28028 m 87.49094,-52.427627 c -22.08744,-24.15839 -23.69507,14.476237 -46.75287,16.023187 -16.14727,1.083317 -22.72192,55.47279 -39.4513,36.84082 M 447.64579,78.504646 C 427.00432,53.388383 424.55116,91.765718 402.37283,92.188419 386.84144,92.484438 379.24775,146.30283 363.62144,126.94691 M 441.05873,85.245591 C 422.39413,59.050421 419.2609,97.049229 398.60027,96.146833 384.13172,95.514895 375.87032,148.55477 361.7481,128.38415 m 72.78491,-36.395095 c -16.46386,-27.264861 -20.54654,10.344335 -39.64503,8.118675 -13.37459,-1.558626 -22.6726,50.68755 -35.11874,29.70931 m 68.31384,-31.075158 c -13.98638,-28.300348 -19.35145,8.878098 -36.83291,5.335938 -12.24218,-2.48055 -23.03269,48.91561 -33.59025,27.156 m 64.0664,-25.71814 c -11.1688,-29.259322 -18.22547,7.39629 -34.02239,2.55284 -11.06252,-3.39185 -23.90588,47.02819 -32.31369,24.546 m 60.0919,-20.28509 c -7.94021,-30.072446 -17.18297,5.88486 -31.21382,-0.23096 -9.82574,-4.28288 -25.3991,44.92077 -31.34151,21.82799 m 56.44221,-14.71357 c -4.23321,-30.631063 -16.23768,4.32172 -28.40753,-3.01595 -8.52249,-5.13855 -27.61407,42.42939 -30.72366,18.92146 m 53.15959,-8.90894 c -0.009,-30.776734 -15.39735,2.67472 -25.60366,-5.8029 -7.14744,-5.93683 -30.60852,39.31505 -30.4885,15.70913 m 53.69164,-1.64939 c 4.22346,-30.4614 -15.40991,0.66362 -24.21479,-9.04163 -6.166,-6.79655 -35.30926,34.96749 -31.94544,11.61984 m 58.77302,7.40665 c 7.35554,-30.00336 -16.46429,-1.77857 -24.92471,-12.94962 -5.92481,-7.82301 -40.86569,29.60503 -35.09309,6.62855 m 62.44381,16.32437 c 9.80568,-29.47795 -17.38013,-4.23445 -25.63145,-16.85791 -5.77835,-8.84013 -45.39335,24.14092 -37.73567,1.58736 m 65.6393,25.25917 c 11.69428,-29.00618 -18.18188,-6.67944 -26.3355,-20.76595 -5.70994,-9.86471 -49.07389,18.75771 -39.96236,-3.4141 m 68.44927,34.13791 c 13.14202,-28.64665 -18.89407,-9.10161 -27.03746,-24.67346 -5.70279,-10.90489 -52.08932,13.54387 -41.86253,-8.33242 m 70.95863,42.92736 c 14.25108,-28.41996 -19.53746,-11.4968 -27.73783,-28.58034 -5.74269,-11.96351 -54.59381,8.53041 -43.51184,-13.15237 m 73.2375,51.61772 c 15.10163,-28.32641 -20.12833,-13.86495 -28.43697,-32.48659 -5.81851,-13.04065 -56.70834,3.71781 -44.96971,-17.8737 m 75.34037,60.21132 c 15.7545,-28.35691 -20.67904,-16.20789 -29.13518,-36.39225 -5.9218,-14.13503 -58.52465,-0.90765 -46.28118,-22.50317 m 77.30834,68.71595 c 16.25515,-28.49875 -21.19882,-18.52822 -29.83267,-40.29738 -6.04624,-15.24486 -60.1113,-5.36517 -47.4799,-27.05017" />
  </g>
</svg>
