<?xml version="1.0" encoding="UTF-8" standalone="no"?>
<svg
   xmlns:dc="http://purl.org/dc/elements/1.1/"
   xmlns:cc="http://creativecommons.org/ns#"
   xmlns:rdf="http://www.w3.org/1999/02/22-rdf-syntax-ns#"
   xmlns:svg="http://www.w3.org/2000/svg"
   xmlns="http://www.w3.org/2000/svg"
   xmlns:sodipodi="http://sodipodi.sourceforge.net/DTD/sodipodi-0.dtd"
   xmlns:inkscape="http://www.inkscape.org/namespaces/inkscape"
   width="451.2612mm"
   height="451.2612mm"
   viewBox="0 0 451.2612 451.2612"
   version="1.1"
   id="svg2095"
   inkscape:version="1.0.2 (1.0.2+r75+1)"
   sodipodi:docname="drawing6(HrtBt).svg">
  <defs
     id="defs2089" />
  <sodipodi:namedview
     id="base"
     pagecolor="#333333"
     bordercolor="#666666"
     borderopacity="1.0"
     inkscape:pageopacity="0"
     inkscape:pageshadow="2"
     inkscape:zoom="0.35355339"
     inkscape:cx="587.99779"
     inkscape:cy="864.43989"
     inkscape:document-units="mm"
     inkscape:current-layer="layer2"
     inkscape:document-rotation="0"
     showgrid="false"
     fit-margin-top="0"
     fit-margin-left="0"
     fit-margin-right="0"
     fit-margin-bottom="0"
     showborder="false"
     inkscape:window-width="1920"
     inkscape:window-height="1025"
     inkscape:window-x="0"
     inkscape:window-y="27"
     inkscape:window-maximized="0" />
  <metadata
     id="metadata2092">
    <rdf:RDF>
      <cc:Work
         rdf:about="">
        <dc:format>image/svg+xml</dc:format>
        <dc:type
           rdf:resource="http://purl.org/dc/dcmitype/StillImage" />
        <dc:title></dc:title>
      </cc:Work>
    </rdf:RDF>
  </metadata>
  <g
     inkscape:label="Canvas"
     inkscape:groupmode="layer"
     id="layer1"
     transform="translate(15.6306,77.1306)"
     sodipodi:insensitive="true">
    <rect
       style="opacity:1;fill:#ffffff;stroke-width:0.0894292;stroke-linecap:round;stroke-linejoin:round"
       id="rect2110"
       width="451.2612"
       height="451.2612"
       x="-15.6306"
       y="-77.1306"
       ry="1.1328373" />
  </g>
  <g
     inkscape:groupmode="layer"
     id="layer2"
     inkscape:label="Layer 1">
    <path
       style="color:#000000;font-style:normal;font-variant:normal;font-weight:normal;font-stretch:normal;font-size:medium;line-height:normal;font-family:sans-serif;font-variant-ligatures:normal;font-variant-position:normal;font-variant-caps:normal;font-variant-numeric:normal;font-variant-alternates:normal;font-variant-east-asian:normal;font-feature-settings:normal;font-variation-settings:normal;text-indent:0;text-align:start;text-decoration:none;text-decoration-line:none;text-decoration-style:solid;text-decoration-color:#000000;letter-spacing:normal;word-spacing:normal;text-transform:none;writing-mode:lr-tb;direction:ltr;text-orientation:mixed;dominant-baseline:auto;baseline-shift:baseline;text-anchor:start;white-space:normal;shape-padding:0;shape-margin:0;inline-size:0;clip-rule:nonzero;display:inline;overflow:visible;visibility:visible;isolation:auto;mix-blend-mode:normal;color-interpolation:sRGB;color-interpolation-filters:linearRGB;solid-color:#000000;solid-opacity:1;vector-effect:none;fill:#00ccff;fill-opacity:1;fill-rule:nonzero;stroke:none;stroke-width:0.264583;stroke-linecap:round;stroke-linejoin:round;stroke-miterlimit:4;stroke-dasharray:none;stroke-dashoffset:0;stroke-opacity:1;color-rendering:auto;image-rendering:auto;shape-rendering:auto;text-rendering:auto;enable-background:accumulate;stop-color:#000000"
       d="m 244.15947,170.30362 c -5.3083,0.22079 -11.2387,2.20157 -17.54891,6.89762 -4.80028,3.572 -10.14442,12.01625 -10.82563,23.0204 -0.68121,11.00414 3.72415,24.39637 18.6893,36.79947 2.5766,2.13533 6.06808,4.77498 9.85106,7.64852 a 2.1770285,2.1770285 0 0 0 3.05039,-0.4167 2.1770285,2.1770285 0 0 0 -0.41669,-3.05039 c -3.78708,-2.87665 -7.26262,-5.50839 -9.7065,-7.53372 -14.11953,-11.70226 -17.72053,-23.50988 -17.122,-33.17846 0.59853,-9.66857 5.81977,-17.36984 9.07975,-19.79567 11.52847,-8.57946 19.98298,-7.00669 26.49089,-3.01723 6.5079,3.98947 10.77918,10.8611 11.95666,12.97545 a 2.1772462,2.1772462 0 0 0 3.8047,0 c 1.17644,-2.11355 5.44798,-8.98599 11.95581,-12.97545 6.50783,-3.98944 14.96235,-5.56223 26.49089,3.01723 3.25983,2.42581 8.4813,10.12709 9.07974,19.79567 0.59846,9.66859 -3.00255,21.4762 -17.122,33.17846 -2.44367,2.02522 -5.91957,4.65711 -9.70649,7.53372 a 2.1770285,2.1770285 0 0 0 -0.4167,3.05039 2.1770285,2.1770285 0 0 0 3.05039,0.4167 c 3.78281,-2.87349 7.27465,-5.51329 9.85107,-7.64852 14.96505,-12.4031 19.37041,-25.79534 18.68929,-36.79947 -0.68111,-11.00414 -6.02551,-19.44839 -10.82562,-23.0204 -12.6205,-9.39209 -23.72154,-7.92217 -31.36625,-3.23578 -5.53059,3.39038 -9.34831,8.17846 -11.58333,11.517 -2.23528,-3.33834 -6.05207,-8.12676 -11.58249,-11.517 -3.82237,-2.34319 -8.50904,-3.88263 -13.81733,-3.66184 z"
       id="path896"
       inkscape:export-xdpi="127.695"
       inkscape:export-ydpi="127.695" />
    <path
       style="color:#000000;font-style:normal;font-variant:normal;font-weight:normal;font-stretch:normal;font-size:medium;line-height:normal;font-family:sans-serif;font-variant-ligatures:normal;font-variant-position:normal;font-variant-caps:normal;font-variant-numeric:normal;font-variant-alternates:normal;font-variant-east-asian:normal;font-feature-settings:normal;font-variation-settings:normal;text-indent:0;text-align:start;text-decoration:none;text-decoration-line:none;text-decoration-style:solid;text-decoration-color:#000000;letter-spacing:normal;word-spacing:normal;text-transform:none;writing-mode:lr-tb;direction:ltr;text-orientation:mixed;dominant-baseline:auto;baseline-shift:baseline;text-anchor:start;white-space:normal;shape-padding:0;shape-margin:0;inline-size:0;clip-rule:nonzero;display:inline;overflow:visible;visibility:visible;isolation:auto;mix-blend-mode:normal;color-interpolation:sRGB;color-interpolation-filters:linearRGB;solid-color:#000000;solid-opacity:1;vector-effect:none;fill:#00ccff;fill-opacity:1;fill-rule:nonzero;stroke:none;stroke-width:1;stroke-linecap:round;stroke-linejoin:round;stroke-miterlimit:4;stroke-dasharray:none;stroke-dashoffset:0;stroke-opacity:1;color-rendering:auto;image-rendering:auto;shape-rendering:auto;text-rendering:auto;enable-background:accumulate;stop-color:#000000"
       d="m 161.58938,202.67513 a 2.1772454,2.1772454 0 0 0 -1.99276,1.47207 l -12.4965,36.61204 h -11.44548 a 2.1770278,2.1770278 0 0 0 -2.17916,2.17597 2.1770278,2.1770278 0 0 0 2.17916,2.17917 h 13.00111 a 2.1772454,2.1772454 0 0 0 2.06027,-1.47529 l 9.50094,-27.83106 4.25871,63.13496 a 2.1772454,2.1772454 0 0 0 4.31334,0.23785 l 7.52104,-41.83177 5.01724,13.66001 a 2.1772454,2.1772454 0 0 0 3.8473,0.46925 l 6.90715,-10.21125 4.04336,3.3459 a 2.1772454,2.1772454 0 0 0 1.3885,0.5014 h 9.12168 13.00111 13.00432 13.00112 a 2.1770278,2.1770278 0 0 0 2.17597,-2.17917 2.1770278,2.1770278 0 0 0 -2.17597,-2.17597 h -13.00112 -13.00432 -13.00111 -8.33744 l -5.29043,-4.38085 a 2.1772454,2.1772454 0 0 0 -3.19163,0.45963 l -5.86898,8.67813 -6.31897,-17.19555 a 2.1772454,2.1772454 0 0 0 -4.18478,0.3664 l -5.81113,32.33405 -3.80229,-56.3178 a 2.1772454,2.1772454 0 0 0 -2.24025,-2.02812 z"
       id="path935"
       inkscape:export-xdpi="127.695"
       inkscape:export-ydpi="127.695" />
    <path
       style="color:#000000;font-style:normal;font-variant:normal;font-weight:normal;font-stretch:normal;font-size:medium;line-height:normal;font-family:sans-serif;font-variant-ligatures:normal;font-variant-position:normal;font-variant-caps:normal;font-variant-numeric:normal;font-variant-alternates:normal;font-variant-east-asian:normal;font-feature-settings:normal;font-variation-settings:normal;text-indent:0;text-align:start;text-decoration:none;text-decoration-line:none;text-decoration-style:solid;text-decoration-color:#000000;letter-spacing:normal;word-spacing:normal;text-transform:none;writing-mode:lr-tb;direction:ltr;text-orientation:mixed;dominant-baseline:auto;baseline-shift:baseline;text-anchor:start;white-space:normal;shape-padding:0;shape-margin:0;inline-size:0;clip-rule:nonzero;display:inline;overflow:visible;visibility:visible;isolation:auto;mix-blend-mode:normal;color-interpolation:sRGB;color-interpolation-filters:linearRGB;solid-color:#000000;solid-opacity:1;vector-effect:none;fill:#00ccff;fill-opacity:1;fill-rule:nonzero;stroke:none;stroke-width:1;stroke-linecap:round;stroke-linejoin:round;stroke-miterlimit:4;stroke-dasharray:none;stroke-dashoffset:0;stroke-opacity:1;color-rendering:auto;image-rendering:auto;shape-rendering:auto;text-rendering:auto;enable-background:accumulate;stop-color:#000000"
       d="m 82.949512,202.67513 a 2.1772454,2.1772454 0 0 0 -1.989533,1.47207 l -12.49972,36.61204 H 29.96796 a 2.1770278,2.1770278 0 0 0 -2.179173,2.17597 2.1770278,2.1770278 0 0 0 2.179173,2.17917 h 40.047942 a 2.1772454,2.1772454 0 0 0 2.060246,-1.47529 l 9.500942,-27.82463 4.258708,63.12853 a 2.1772454,2.1772454 0 0 0 4.316552,0.23785 l 7.517828,-41.82856 5.017242,13.6568 a 2.1772454,2.1772454 0 0 0 3.8473,0.46925 l 6.90715,-10.21447 4.04336,3.34912 a 2.1772454,2.1772454 0 0 0 1.3885,0.5014 h 16.78091 a 2.1770278,2.1770278 0 0 0 2.17597,-2.17917 2.1770278,2.1770278 0 0 0 -2.17597,-2.17597 h -15.99666 l -5.29044,-4.38085 a 2.1772454,2.1772454 0 0 0 -3.19163,0.45963 l -5.86897,8.67813 -6.318975,-17.19555 a 2.1772454,2.1772454 0 0 0 -4.18477,0.3664 l -5.811145,32.33405 -3.802293,-56.3178 a 2.1772454,2.1772454 0 0 0 -2.240245,-2.02812 z"
       id="path937"
       inkscape:export-xdpi="127.695"
       inkscape:export-ydpi="127.695" />
    <g
       id="g952"
       transform="matrix(1.6456294,0,0,1.6456294,183.41943,-96.514432)"
       style="fill:#00ccff;stroke-width:0.60767"
       inkscape:export-xdpi="127.695"
       inkscape:export-ydpi="127.695">
      <path
         style="color:#000000;font-style:normal;font-variant:normal;font-weight:normal;font-stretch:normal;font-size:medium;line-height:normal;font-family:sans-serif;font-variant-ligatures:normal;font-variant-position:normal;font-variant-caps:normal;font-variant-numeric:normal;font-variant-alternates:normal;font-variant-east-asian:normal;font-feature-settings:normal;font-variation-settings:normal;text-indent:0;text-align:start;text-decoration:none;text-decoration-line:none;text-decoration-style:solid;text-decoration-color:#000000;letter-spacing:normal;word-spacing:normal;text-transform:none;writing-mode:lr-tb;direction:ltr;text-orientation:mixed;dominant-baseline:auto;baseline-shift:baseline;text-anchor:start;white-space:normal;shape-padding:0;shape-margin:0;inline-size:0;clip-rule:nonzero;display:inline;overflow:visible;visibility:visible;opacity:1;isolation:auto;mix-blend-mode:normal;color-interpolation:sRGB;color-interpolation-filters:linearRGB;solid-color:#000000;solid-opacity:1;vector-effect:none;fill:#00ccff;fill-opacity:1;fill-rule:nonzero;stroke:none;stroke-width:0.369263;stroke-linecap:round;stroke-linejoin:round;stroke-miterlimit:4;stroke-dasharray:none;stroke-dashoffset:0;stroke-opacity:1;color-rendering:auto;image-rendering:auto;shape-rendering:auto;text-rendering:auto;enable-background:accumulate;stop-color:#000000;stop-opacity:1"
         d="m 101.60547,181.80859 a 1.3230472,1.3230472 0 0 0 -1.20899,0.89453 l -7.595699,22.24805 h -6.953125 a 1.322915,1.322915 0 0 0 -1.324218,1.32227 1.322915,1.322915 0 0 0 1.324218,1.32422 h 7.900391 A 1.3230472,1.3230472 0 0 0 95,206.70117 l 5.77344,-16.91211 2.58789,38.36524 a 1.3230472,1.3230472 0 0 0 2.62109,0.14453 l 4.56836,-25.41602 3.04883,8.29688 a 1.3230472,1.3230472 0 0 0 2.33789,0.28515 l 4.19727,-6.20703 2.45898,2.03516 a 1.3230472,1.3230472 0 0 0 0.84375,0.30469 h 21.11133 a 1.322915,1.322915 0 0 0 1.32422,-1.32422 1.322915,1.322915 0 0 0 -1.32422,-1.32227 h -20.63477 l -3.21484,-2.66211 a 1.3230472,1.3230472 0 0 0 -1.93945,0.2793 l -3.56641,5.27344 -3.83984,-10.44922 a 1.3230472,1.3230472 0 0 0 -2.54297,0.22265 l -3.53321,19.6543 -2.30859,-34.22851 a 1.3230472,1.3230472 0 0 0 -1.36328,-1.23243 z"
         id="path948" />
      <path
         style="color:#000000;font-style:normal;font-variant:normal;font-weight:normal;font-stretch:normal;font-size:medium;line-height:normal;font-family:sans-serif;font-variant-ligatures:normal;font-variant-position:normal;font-variant-caps:normal;font-variant-numeric:normal;font-variant-alternates:normal;font-variant-east-asian:normal;font-feature-settings:normal;font-variation-settings:normal;text-indent:0;text-align:start;text-decoration:none;text-decoration-line:none;text-decoration-style:solid;text-decoration-color:#000000;letter-spacing:normal;word-spacing:normal;text-transform:none;writing-mode:lr-tb;direction:ltr;text-orientation:mixed;dominant-baseline:auto;baseline-shift:baseline;text-anchor:start;white-space:normal;shape-padding:0;shape-margin:0;inline-size:0;clip-rule:nonzero;display:inline;overflow:visible;visibility:visible;opacity:1;isolation:auto;mix-blend-mode:normal;color-interpolation:sRGB;color-interpolation-filters:linearRGB;solid-color:#000000;solid-opacity:1;vector-effect:none;fill:#00ccff;fill-opacity:1;fill-rule:nonzero;stroke:none;stroke-width:0.369263;stroke-linecap:round;stroke-linejoin:round;stroke-miterlimit:4;stroke-dasharray:none;stroke-dashoffset:0;stroke-opacity:1;color-rendering:auto;image-rendering:auto;shape-rendering:auto;text-rendering:auto;enable-background:accumulate;stop-color:#000000;stop-opacity:1"
         d="m 66.878906,204.95117 a 1.323245,1.323245 0 0 0 0,2.64649 h 3.166016 7.90039 7.902344 a 1.322915,1.322915 0 0 0 1.322266,-1.32422 1.322915,1.322915 0 0 0 -1.322266,-1.32227 h -7.855468 a 1.322915,1.322915 0 0 0 -0.04688,0 z"
         id="path950" />
    </g>
  </g>
</svg>
