<?xml version="1.0" encoding="UTF-8" standalone="no"?>
<svg
   xmlns:dc="http://purl.org/dc/elements/1.1/"
   xmlns:cc="http://creativecommons.org/ns#"
   xmlns:rdf="http://www.w3.org/1999/02/22-rdf-syntax-ns#"
   xmlns:svg="http://www.w3.org/2000/svg"
   xmlns="http://www.w3.org/2000/svg"
   xmlns:sodipodi="http://sodipodi.sourceforge.net/DTD/sodipodi-0.dtd"
   xmlns:inkscape="http://www.inkscape.org/namespaces/inkscape"
   width="451.2612mm"
   height="451.2612mm"
   viewBox="0 0 451.2612 451.2612"
   version="1.1"
   id="svg2095"
   inkscape:version="1.0.1 (3bc2e813f5, 2020-09-07)"
   sodipodi:docname="drawing12(Polaroid).svg">
  <defs
     id="defs2089">
    <inkscape:path-effect
       effect="lattice2"
       gridpoint0="154.86678,137.4094"
       gridpoint1="300.38761,137.4094"
       gridpoint2="154.86678,252.78884"
       gridpoint3="300.38761,252.78884"
       gridpoint4="191.24699,137.4094"
       gridpoint5="264.0074,137.4094"
       gridpoint6="191.24699,252.78884"
       gridpoint7="264.0074,252.78884"
       gridpoint8x9="227.6272,137.4094"
       gridpoint10x11="227.6272,252.78884"
       gridpoint12="154.86678,166.25426"
       gridpoint13="300.38761,166.25426"
       gridpoint14="154.86678,223.94398"
       gridpoint15="300.38761,223.94398"
       gridpoint16="179.56332,165.88894"
       gridpoint17="237.70251,154.0089"
       gridpoint18="203.79283,243.25652"
       gridpoint19="263.05656,193.14319"
       gridpoint20x21="250.3695,167.65949"
       gridpoint22x23="246.27827,215.23339"
       gridpoint24x26="154.86678,195.09912"
       gridpoint25x27="300.38761,195.09912"
       gridpoint28x30="202.80453,214.54927"
       gridpoint29x31="260.28462,181.71089"
       gridpoint32x33x34x35="242.77741,197.02295"
       id="path-effect1107"
       is_visible="true"
       lpeversion="1"
       horizontal_mirror="false"
       vertical_mirror="false"
       perimetral="false"
       live_update="true" />
  </defs>
  <sodipodi:namedview
     id="base"
     pagecolor="#333333"
     bordercolor="#666666"
     borderopacity="1.0"
     inkscape:pageopacity="0"
     inkscape:pageshadow="2"
     inkscape:zoom="0.35355339"
     inkscape:cx="581.14175"
     inkscape:cy="828.37125"
     inkscape:document-units="mm"
     inkscape:current-layer="layer2"
     inkscape:document-rotation="0"
     showgrid="false"
     fit-margin-top="0"
     fit-margin-left="0"
     fit-margin-right="0"
     fit-margin-bottom="0"
     showborder="false"
     inkscape:window-width="1904"
     inkscape:window-height="1037"
     inkscape:window-x="8"
     inkscape:window-y="35"
     inkscape:window-maximized="0" />
  <metadata
     id="metadata2092">
    <rdf:RDF>
      <cc:Work
         rdf:about="">
        <dc:format>image/svg+xml</dc:format>
        <dc:type
           rdf:resource="http://purl.org/dc/dcmitype/StillImage" />
        <dc:title></dc:title>
      </cc:Work>
    </rdf:RDF>
  </metadata>
  <g
     inkscape:label="Canvas"
     inkscape:groupmode="layer"
     id="layer1"
     transform="translate(15.6306,77.1306)"
     sodipodi:insensitive="true">
    <rect
       style="opacity:1;fill:#ffffff;stroke-width:0.0894292;stroke-linecap:round;stroke-linejoin:round"
       id="rect2110"
       width="451.2612"
       height="451.2612"
       x="-15.6306"
       y="-77.1306"
       ry="1.1328373" />
  </g>
  <g
     inkscape:groupmode="layer"
     id="layer2"
     inkscape:label="Layer 1">
    <path
       style="color:#000000;font-style:normal;font-variant:normal;font-weight:normal;font-stretch:normal;font-size:medium;line-height:normal;font-family:sans-serif;font-variant-ligatures:normal;font-variant-position:normal;font-variant-caps:normal;font-variant-numeric:normal;font-variant-alternates:normal;font-variant-east-asian:normal;font-feature-settings:normal;font-variation-settings:normal;text-indent:0;text-align:start;text-decoration:none;text-decoration-line:none;text-decoration-style:solid;text-decoration-color:#000000;letter-spacing:normal;word-spacing:normal;text-transform:none;writing-mode:lr-tb;direction:ltr;text-orientation:mixed;dominant-baseline:auto;baseline-shift:baseline;text-anchor:start;white-space:normal;shape-padding:0;shape-margin:0;inline-size:0;clip-rule:nonzero;display:inline;overflow:visible;visibility:visible;opacity:1;isolation:auto;mix-blend-mode:normal;color-interpolation:sRGB;color-interpolation-filters:linearRGB;solid-color:#000000;solid-opacity:1;vector-effect:none;fill:#5a2ca0;fill-opacity:1;fill-rule:nonzero;stroke:none;stroke-width:1.32292;stroke-linecap:butt;stroke-linejoin:miter;stroke-miterlimit:4;stroke-dasharray:none;stroke-dashoffset:0;stroke-opacity:1;color-rendering:auto;image-rendering:auto;shape-rendering:auto;text-rendering:auto;enable-background:accumulate;stop-color:#000000;stop-opacity:1"
       d="m 8.268144,9.5250005 v 3.9489015 c 144.925026,0.0299 434.590786,0 434.590786,0 V 9.5250005 c 0,0 -289.6674,0.0299 -434.590786,0 z M 280.89503,17.737815 c -43.76921,0.37791 -93.22501,1.272511 -141.86935,1.831551 -51.278682,0.58923 -93.182753,0.71983 -130.740035,0.39663 l -0.03494,3.94893 c 37.591687,0.3235 79.524965,0.19293 130.821715,-0.39666 48.66211,-0.55922 98.11674,-1.45388 141.85768,-1.83155 45.98291,-0.39702 80.24608,-0.16455 112.35453,0.58914 29.6588,0.69618 49.48103,1.63907 49.48103,1.63907 l 0.19233,-3.94893 c 0,0 -19.88489,-0.94187 -49.58601,-1.639071 -32.15531,-0.75483 -66.46384,-0.986431 -112.47704,-0.58911 z m 61.15279,7.594521 c -17.58214,-0.16843 -36.64635,0.002 -58.69713,0.53661 -48.29298,1.19561 -92.88873,3.27378 -141.12855,4.46807 -52.652823,1.30339 -97.174511,1.34607 -133.884023,0.0699 l -0.140066,3.94893 c 36.823625,1.28004 81.417556,1.2347 134.123179,-0.0699 48.29298,-1.1956 92.88873,-3.27374 141.12856,-4.46804 44.03142,-1.0679 76.06659,-0.67655 108.20145,0.94495 29.59626,1.49342 51.02095,3.58727 51.02095,3.58727 l 0.37913,-3.93143 c 0,0 -21.51584,-2.10098 -51.20175,-3.59894 -16.11736,-0.81325 -32.2197,-1.31892 -49.80184,-1.48739 z m 0.53078,7.4662 c -16.67756,-0.20368 -34.58887,0.16246 -55.55896,1.14325 -39.98923,1.87049 -88.65382,5.7318 -140.38776,7.752 -54.381782,2.1236 -101.813762,1.90672 -138.217906,-0.83995 l -0.297454,3.94308 c 36.645004,2.76485 84.185424,2.97328 138.66704,0.8458 51.83372,-2.02411 100.53221,-5.89226 140.41691,-7.75785 41.82213,-1.95618 71.31431,-1.46006 103.1968,1.11993 29.2825,2.36959 52.17588,5.77462 52.17588,5.77462 l 0.57747,-3.90808 c 0,0 -23.01188,-3.42304 -52.43254,-5.8038 -16.01866,-1.29625 -31.46185,-2.06535 -48.13945,-2.269 z m 1.21326,7.26204 c -15.67061,-0.21563 -32.34313,0.4032 -52.14667,1.91319 -37.83924,2.88515 -86.06667,8.66793 -139.65282,11.54928 -56.344526,3.02966 -106.958181,2.40665 -143.479245,-2.21653 l -0.495815,3.91975 c 36.927524,4.67464 87.691189,5.27788 144.19086,2.23985 53.74217,-2.88971 102.0468,-8.68106 139.74032,-11.55509 39.43506,-3.00685 66.13534,-2.45399 97.5388,1.15493 28.76316,3.30546 52.98665,8.13698 52.98665,8.13698 l 0.7758,-3.8731 c 0,0 -24.36034,-4.86285 -53.30746,-8.18946 -15.80569,-1.8164 -30.47978,-2.86427 -46.15042,-3.0798 z m 1.7674,7.1337 c -14.59531,-0.21054 -29.96145,0.69108 -48.54776,2.78815 -17.80206,2.00862 -37.95873,4.96559 -61.28694,7.92701 -23.6621,3.00383 -49.41563,5.85367 -77.65426,7.787 -58.459069,4.00239 -112.463454,2.87132 -149.446347,-3.93143 l -0.711618,3.88478 c 37.576904,6.91199 91.752176,8.00684 150.426295,3.98972 28.33961,-1.94022 54.17446,-4.80076 77.88172,-7.81032 23.37151,-2.96692 43.53101,-5.92371 61.23446,-7.92115 36.94377,-4.16838 60.68675,-3.59862 91.43169,1.09075 28.08128,4.28308 53.49412,10.62765 53.49412,10.62765 l 0.95662,-3.83225 c 0,0 -25.5511,-6.38632 -53.85577,-10.70348 -15.49991,-2.36412 -29.32691,-3.68591 -43.92221,-3.89643 z m 2.21071,7.05789 c -13.48371,-0.19412 -27.52329,1.02594 -44.87302,3.74477 -16.66487,2.61147 -35.99135,6.40788 -59.17541,10.20184 -23.50546,3.84658 -49.81387,7.49193 -79.08915,9.91603 -60.65789,5.02275 -118.16953,3.30698 -155.897609,-5.88545 l -0.9332742,3.8381 c 38.5114322,9.38327 96.2231932,11.03025 157.1575232,5.9846 29.40557,-2.43487 55.82135,-6.09274 79.3983,-9.95103 23.25352,-3.80531 42.60518,-7.60886 59.15209,-10.20184 34.41566,-5.39316 55.09465,-4.84132 85.0446,0.96242 27.27729,5.28583 53.74495,13.18249 53.74495,13.18249 l 1.12575,-3.78556 c 0,0 -26.59416,-7.94108 -54.12408,-13.27585 -15.12086,-2.93012 -28.047,-4.53634 -41.53067,-4.73052 z m 2.54899,7.02288 c -13.11133,-0.23444 -25.43285,1.4651 -41.21572,4.74805 -15.53461,3.23131 -34.04686,7.89729 -57.09306,12.5467 -23.35864,4.71242 -50.20648,9.16923 -80.52988,12.09756 -62.88133,6.07238 -123.939023,3.74125 -162.640544,-7.96783 l -1.1432537,3.7856 c 39.6584787,11.99859 100.9446077,14.218564 164.1629277,8.11366 30.48271,-2.94371 57.47123,-7.42283 80.93237,-12.15592 23.14673,-4.66965 41.71276,-9.34845 57.11638,-12.55252 15.64771,-3.25481 27.61327,-4.89385 40.34077,-4.66637 12.50955,0.22339 24.88474,2.29773 38.20592,5.47714 26.38866,6.29827 53.76245,15.76068 53.76245,15.76068 l 1.28908,-3.73895 c 0,0 -27.47885,-9.50336 -54.13576,-15.86566 -13.48131,-3.21763 -26.15246,-5.35168 -39.05168,-5.58214 z m 2.77649,7.07538 c -11.9818,-0.22787 -22.99041,1.82826 -37.65762,5.73965 -14.43377,3.84915 -32.14573,9.37909 -55.06318,14.88571 -23.22294,5.58 -50.61324,10.85334 -81.97062,14.290784 -65.07582,7.13366 -129.620677,4.18687 -169.470947,-10.091044 l -1.3299081,3.71559 C 48.557486,111.5646 113.36491,114.36911 178.83566,107.19217 c 31.54446,-3.45793 59.10096,-8.759614 82.46062,-14.372454 23.05238,-5.53905 40.86289,-11.10158 55.16232,-14.91489 14.52542,-3.87358 25.07453,-5.8239 36.56103,-5.60547 11.24874,0.21383 22.71679,2.58901 35.54024,6.27044 25.44972,7.30624 53.58159,18.30382 53.58159,18.30382 l 1.44077,-3.68059 c 0,0 -28.21409,-11.0374 -53.93161,-18.42051 -12.98974,-3.72915 -24.80197,-6.19867 -36.55517,-6.42209 z m 2.91066,7.16289 c -10.90334,-0.22757 -20.66057,2.18189 -34.26284,6.70207 -13.53009,4.4962 -30.0302,10.73278 -53.14413,17.16642 -23.10028,6.429924 -51.00464,12.505754 -83.35889,16.449004 -67.1929,8.18934 -135.102738,4.64529 -176.225487,-12.1851 L 7.5215246,107.303 c 42.3436504,17.33004 110.5551854,20.69162 178.1970454,12.44757 32.56729,-3.96924 60.66954,-10.08193 83.94217,-16.55982 23.28171,-6.480374 39.92744,-12.776494 53.33078,-17.230584 13.46525,-4.47467 22.65662,-6.71235 32.93291,-6.49792 10.00631,0.20875 20.81598,2.95138 32.92125,7.05203 24.49112,8.29634 53.23163,20.771224 53.23163,20.771224 l 1.56907,-3.62229 c 0,0 -28.7938,-12.512644 -53.53494,-20.893684 -12.27242,-4.15726 -23.44122,-7.03372 -34.10533,-7.25621 z m 2.96315,7.29704 c -9.90053,-0.23713 -18.49956,2.51339 -31.10721,7.60617 -12.54897,5.06913 -28.33907,12.081444 -51.36508,19.336334 -22.99259,7.24429 -51.38381,14.09907 -84.67715,18.53715 -69.18897,9.22311 -140.265852,5.13537 -182.735084,-14.16827 l -1.6332144,3.59312 c 43.7780254,19.89851 115.2061384,23.77858 184.8932884,14.48908 33.53011,-4.46965 62.13623,-11.37334 85.33624,-18.68299 23.22816,-7.31856 39.22006,-14.415184 51.66256,-19.441304 12.48796,-5.04446 20.41231,-7.53879 29.53229,-7.32036 8.84421,0.21174 18.59309,3.16737 30.40142,7.81032 23.54007,9.255834 52.73584,23.133584 52.73584,23.133584 l 1.69739,-3.56977 c 0,0 -29.23101,-13.89801 -52.98665,-23.238584 -11.96176,-4.70328 -22.10951,-7.8536 -31.75464,-8.08448 z m 2.93397,7.48369 c -8.99473,-0.26012 -16.54735,2.81401 -28.24906,8.42862 -11.65016,5.589904 -26.8139,13.313624 -49.76101,21.337064 -22.90165,8.00752 -51.73406,15.60592 -85.89037,20.52035 -71.02528,10.21913 -145.016985,5.64591 -188.859698,-15.99399 l -1.7498963,3.54644 c 45.2146103,22.31705 119.6023243,26.65276 191.1695543,16.35563 34.41422,-4.95152 63.49508,-12.60963 86.63699,-20.70119 23.18146,-8.10536 38.58813,-15.95216 50.1635,-21.50617 11.6108,-5.571024 18.39049,-8.270404 26.42917,-8.037854 7.74396,0.22399 16.71543,3.44425 28.03322,8.533664 9.78564,4.40045 25.27638,12.11818 34.48447,16.6648 10.57201,5.22009 17.68556,8.69112 17.68556,8.69112 l 1.73237,-3.54644 c 0,0 -7.10301,-3.46864 -17.66803,-8.68527 -9.19376,-4.53957 -24.67476,-12.25419 -34.6128,-16.723164 -11.45317,-5.15027 -20.81437,-8.63104 -29.54397,-8.88361 z m 2.82897,7.70535 c -8.20337,-0.29993 -14.82747,3.066914 -25.72919,9.140274 -10.85462,6.0471 -25.47874,14.41945 -48.3611,23.14522 -22.82902,8.70543 -52.0658,16.99261 -86.99283,22.35775 -72.66724,11.16238 -149.259213,6.19473 -194.459339,-17.5922 l -1.843224,3.49976 c 46.61506,24.53158 123.656083,29.24619 196.903353,17.99469 35.20331,-5.40758 64.6994,-13.75959 87.79778,-22.56773 23.14528,-8.82603 38.06134,-17.35717 48.88024,-23.38436 10.84733,-6.04305 16.61213,-8.90232 23.66434,-8.6445 6.73836,0.2464 15.02729,3.72324 25.88084,9.22782 8.21759,4.16763 25.73902,13.68577 33.7962,18.00052 10.52372,5.6356 17.67971,9.37356 17.67971,9.37356 l 1.82572,-3.49976 c 0,0 -7.13675,-3.72892 -17.6447,-9.3561 -8.02628,-4.29817 -25.51151,-13.80123 -33.87203,-18.04135 -10.96527,-5.56125 -19.59437,-9.363604 -27.52577,-9.653594 z m 2.66567,7.973694 c -7.53915,-0.35898 -13.37646,3.26953 -23.60016,9.7294 -10.17946,6.43188 -24.36012,15.35885 -47.19452,24.70844 -22.77568,9.32551 -52.36385,18.23671 -87.95526,24.02015 -74.08521,12.03858 -152.920867,6.7819 -199.423187,-18.91632 l -1.9131976,3.45897 c 47.9448186,26.49537 127.2747646,31.49766 201.9721846,19.3596 35.88318,-5.83086 65.74341,-14.81938 88.8127,-24.26513 23.12116,-9.46702 37.62812,-18.59408 47.81281,-25.02925 10.20808,-6.45002 15.12155,-9.4112 21.30198,-9.11694 5.84704,0.27834 13.55425,3.99325 23.97932,9.87523 10.27056,5.79479 22.82843,13.29544 33.09623,19.19628 10.44625,6.00338 17.61556,9.97435 17.61556,9.97435 l 1.91902,-3.45311 c 0,0 -7.14069,-3.95556 -17.56305,-9.94521 -10.21991,-5.8733 -22.78435,-13.37921 -33.12538,-19.21377 -10.51016,-5.92998 -18.47187,-10.03686 -25.73505,-10.38269 z m 2.43234,8.27698 c -3.50448,-0.2195 -6.68822,0.68232 -10.05018,2.43819 -3.36197,1.75584 -6.99436,4.33888 -11.83508,7.72285 -9.63913,6.73836 -23.48011,16.14269 -46.28458,26.02668 -22.74238,9.8571 -52.62269,19.3154 -88.7602,25.47838 -75.25421,12.834 -155.937363,7.3904 -203.652103,-19.94289 l -1.9656995,3.42394 C 56.455524,187.566 137.6726,192.74963 213.56514,179.80675 c 36.44186,-6.21489 66.60965,-15.75424 89.66429,-25.7467 23.10958,-10.01622 37.29758,-19.64391 46.9787,-26.41165 4.85052,-3.39082 8.42324,-5.90693 11.39762,-7.46037 2.97435,-1.55342 5.25757,-2.16544 7.97948,-1.99485 5.09081,0.31904 12.33508,4.25474 22.37526,10.47014 9.89894,6.12804 22.24391,14.03265 32.40793,20.2404 10.34331,6.31724 17.49891,10.48767 17.49891,10.48767 l 1.98902,-3.41228 c 0,0 -7.11671,-4.14861 -17.42887,-10.44685 -10.10585,-6.17221 -22.44947,-14.07467 -32.39047,-20.22873 -10.09859,-6.25156 -17.47531,-10.63156 -24.2068,-11.05346 z m 2.15821,8.60948 c -3.30687,-0.27058 -6.30822,0.6653 -9.44357,2.47316 -3.13536,1.80786 -6.53883,4.46505 -11.18179,7.96201 -9.24488,6.963 -22.84978,16.73941 -45.64293,27.0591 -22.72937,10.29083 -52.83452,20.21158 -89.39017,26.70914 -76.15353,13.53585 -158.257258,8.02123 -207.064392,-20.63701 l -2.0007013,3.40644 c 50.2727183,29.51882 132.9473133,34.77403 209.7592133,21.12117 36.86964,-6.5534 67.26918,-16.56288 90.32344,-27.0008 23.11067,-10.46345 37.08082,-20.48691 46.3954,-27.50241 4.6661,-3.5144 8.03321,-6.11362 10.77348,-7.69367 2.74027,-1.58009 4.71923,-2.15884 7.15121,-1.95991 4.4922,0.36752 11.3861,4.51971 21.092,11.01849 13.2361,8.86252 17.88219,12.18342 31.74297,21.09782 10.21844,6.5718 17.32975,10.90181 17.32975,10.90181 l 2.05903,-3.37729 c 0,0 -7.06679,-4.30139 -17.24808,-10.84931 -13.82347,-8.89038 -18.43074,-12.17864 -31.69049,-21.05699 -9.74025,-6.52178 -16.62808,-11.15342 -22.96437,-11.67175 z m 1.83155,8.97108 c -3.1749,-0.33087 -6.06727,0.6145 -9.05859,2.44401 -2.99131,1.82952 -6.25084,4.52819 -10.77348,8.09616 -9.00461,7.10379 -22.48674,17.1511 -45.28715,27.7999 -22.73644,10.61895 -53.00107,20.90758 -89.8393,27.68909 -76.76713,14.13192 -159.830567,8.65852 -209.584205,-20.98702 l -2.0240554,3.39479 c 51.2197594,30.51908 134.8862204,35.73269 212.3257304,21.47698 37.15886,-6.84052 67.72817,-17.21871 90.7959,-27.9924 23.12418,-10.80003 36.9734,-21.10741 46.06292,-28.27821 4.55318,-3.59204 7.79268,-6.24377 10.38267,-7.82782 2.58999,-1.58406 4.36017,-2.11658 6.59124,-1.88405 4.07445,0.42461 10.72459,4.77627 20.1529,11.50259 11.75779,8.38821 18.61275,13.36458 31.12468,21.76279 10.07524,6.76267 17.11977,11.21097 17.11977,11.21097 l 2.10568,-3.34229 c 0,0 -6.98713,-4.41219 -17.02056,-11.14681 -12.46648,-8.36767 -19.26872,-13.30861 -31.03721,-21.70444 -9.44357,-6.73722 -15.96463,-11.58141 -22.03694,-12.21424 z m 1.46409,9.36774 c -3.10612,-0.39768 -5.96615,0.52464 -8.90111,2.34486 -2.93496,1.82023 -6.13951,4.52293 -10.62183,8.11949 -8.92299,7.15969 -22.38573,17.36078 -45.21132,28.22571 -22.76317,10.8352 -53.12209,21.39718 -90.10179,28.40653 -77.08366,14.61095 -160.632191,9.29317 -211.164942,-20.98117 l -2.0298784,3.38894 c 51.9940344,31.14979 136.1658704,36.21104 213.9298004,21.47116 37.30397,-7.07085 67.96965,-17.72274 91.0642,-28.7157 23.14947,-11.01908 36.97839,-21.4872 45.9871,-28.71567 4.51328,-3.6214 7.70735,-6.27435 10.23101,-7.8395 2.52366,-1.56515 4.18922,-2.05732 6.31712,-1.7849 3.85751,0.49388 10.36239,5.02353 19.5754,11.91673 11.11259,8.31457 18.64789,13.95504 30.56475,22.22943 9.91734,6.8861 16.86308,11.40345 16.86308,11.40345 l 2.15238,-3.31311 c 0,0 -6.89159,-4.48447 -16.76393,-11.3393 -11.8665,-8.23942 -19.33472,-13.83261 -30.44809,-22.14774 -9.21567,-6.89524 -15.50893,-11.9096 -21.44195,-12.66921 z m 1.05575,9.78188 c -3.09976,-0.46673 -5.98485,0.39568 -8.95361,2.17571 -2.96874,1.78003 -6.21531,4.45517 -10.73848,8.0378 -9.00157,7.12983 -22.56558,17.37936 -45.43295,28.34239 -22.80872,10.9349 -53.18919,21.65038 -90.16597,28.8265 -77.09627,14.96219 -160.644496,9.9226 -211.771555,-20.60786 l -2.0240554,3.39479 c 52.5790844,31.39749 136.7698204,36.18655 214.5480904,21.09199 37.3017,-7.23919 67.98856,-18.05648 91.12256,-29.14733 23.18519,-11.1154 37.10683,-21.61699 46.17957,-28.80317 4.54709,-3.6016 7.77114,-6.22812 10.31267,-7.752 2.54155,-1.52388 4.20746,-1.97102 6.33461,-1.65072 3.85262,0.5801 10.31216,5.25352 19.3771,12.24922 10.81858,8.34906 18.46898,14.22716 30.06308,22.48023 9.74837,6.93923 16.57728,11.47927 16.57728,11.47927 l 2.18739,-3.28978 c 0,0 -6.77059,-4.50325 -16.47231,-11.40927 -11.54145,-8.21562 -19.12543,-14.04051 -29.9406,-22.38693 -9.06247,-6.9938 -15.28685,-12.14003 -21.20282,-13.03084 z m 0.62414,10.21937 c -3.15775,-0.53401 -6.13617,0.22757 -9.22777,1.93652 -3.0916,1.70895 -6.46686,4.32505 -11.11178,7.85118 -9.23876,7.0135 -23.01679,17.19291 -45.94042,28.13238 -22.87194,10.91477 -53.20368,21.68944 -90.03181,28.9665 C 143.8495,243.26207 60.794906,238.59624 9.271391,208.18996 l -2.0065243,3.40646 C 60.226848,242.85158 143.94187,247.26903 221.42211,231.9593 c 37.15071,-7.34082 67.7742,-18.20562 90.95927,-29.26984 23.22953,-11.08544 37.34876,-21.50759 46.6287,-28.55233 4.65437,-3.53333 7.99459,-6.08008 10.63933,-7.54202 2.64473,-1.46194 4.42721,-1.88172 6.65539,-1.50492 4.0591,0.68644 10.55819,5.47493 19.54626,12.50587 10.779,8.43182 18.18989,14.21579 29.63729,22.49191 9.57178,6.92015 16.26815,11.44427 16.26815,11.44427 l 2.21068,-3.2781 c 0,0 -6.63804,-4.47623 -16.16314,-11.36262 -11.39497,-8.2382 -18.73701,-13.97941 -29.51479,-22.41026 -8.98828,-7.03107 -15.29955,-12.26263 -21.3253,-13.28164 z m -4.68387,10.66847 c -1.60505,0.287 -3.21515,0.84685 -4.86471,1.65075 -3.2991,1.60774 -6.89586,4.13239 -11.74175,7.55952 -9.62888,6.80976 -23.73673,16.80983 -46.72786,27.60156 -22.95129,10.77306 -53.15876,21.4837 -89.6935,28.79152 C 143.04718,252.71427 60.966957,248.52601 9.25392,218.62513 l -1.9773762,3.41811 c 53.1336142,30.72228 135.8794962,34.67754 212.7515162,19.30128 36.8519,-7.37126 67.35115,-18.17741 90.5976,-29.08898 23.27935,-10.92704 37.70275,-21.1439 47.32864,-27.95158 4.83407,-3.41874 8.35823,-5.85116 11.19347,-7.23286 2.83524,-1.38169 4.84771,-1.75909 7.27369,-1.31826 4.46568,0.81152 11.11507,5.66078 20.10039,12.65753 11.02587,8.58564 17.78934,13.91406 29.29899,22.28193 9.39107,6.82762 15.92984,11.27511 15.92981,11.27511 l 2.22239,-3.26646 c 0,0 -6.48466,-4.41022 -15.83069,-11.20511 -11.4601,-8.33185 -18.16104,-13.61493 -29.19398,-22.2061 -8.99578,-7.0049 -15.5491,-12.28189 -21.82112,-13.42165 -1.642,-0.29835 -3.24215,-0.287 -4.84717,0 z m -0.61829,11.00099 c -1.71997,0.23026 -3.4515,0.72455 -5.24384,1.46406 -3.5847,1.47899 -7.49406,3.87696 -12.6167,7.16289 -10.16095,6.51768 -24.71997,16.23189 -47.78364,26.74996 -23.04497,10.50957 -53.05737,21.04302 -89.15686,28.30736 C 141.5503,261.7082 60.927296,258.07449 9.23642,229.05447 l -1.9365518,3.44729 c 53.0886378,29.80472 134.3820718,33.21032 210.3425018,17.92469 36.40817,-7.32645 66.69766,-17.95389 90.01428,-28.58737 23.32893,-10.63902 38.17677,-20.53209 48.27945,-27.01244 5.08436,-3.26136 8.8722,-5.55703 11.98674,-6.84205 3.11456,-1.28506 5.46471,-1.61175 8.17781,-1.10243 5.05527,0.94892 11.95212,5.81252 21.01034,12.70417 11.79429,8.97329 17.04261,13.14065 29.05983,21.8328 9.20964,6.66136 15.57983,10.98931 15.57983,10.98931 l 2.22239,-3.26646 c 0,0 -6.31858,-4.29396 -15.48653,-10.92516 -11.97386,-8.66076 -17.17001,-12.79198 -28.984,-21.78029 -9.08588,-6.91268 -16.00827,-12.18812 -22.67274,-13.43915 -1.74115,-0.32684 -3.44804,-0.35871 -5.16798,-0.12842 z m -1.18993,11.47927 c -1.87082,0.17143 -3.763,0.59607 -5.7338,1.25991 -3.94167,1.32764 -8.24319,3.56932 -13.71331,6.67292 -10.81371,6.13545 -25.95592,15.46171 -49.0844,25.57754 -23.15066,10.1255 -52.90601,20.35941 -88.43357,27.50241 C 139.37671,270.26538 60.66359,267.25394 9.207242,239.47797 l -1.8782257,3.47647 C 60.154247,271.46932 139.53174,274.26446 214.2884,259.23423 c 35.82456,-7.20272 65.83887,-17.52136 89.23269,-27.75324 23.36585,-10.21964 38.76317,-19.69636 49.45771,-25.76419 5.40296,-3.0655 9.53735,-5.19101 13.01916,-6.36377 3.48182,-1.17276 6.25739,-1.43521 9.33857,-0.85745 5.80944,1.08932 13.08086,5.90806 22.28775,12.62253 18.31699,13.35836 44.0914,31.708 44.0914,31.708 l 2.29233,-3.21396 c 0,0 -25.77345,-18.35116 -44.05637,-31.68467 -9.25754,-6.75138 -16.67759,-11.96503 -23.88599,-13.31665 -1.87724,-0.35201 -3.72301,-0.43396 -5.59379,-0.26251 z m 4.36888,12.36005 c -8.20006,-1.49357 -15.69865,0.97816 -27.46158,6.74289 -11.5373,5.65421 -27.47237,14.5391 -50.61846,24.11348 -23.26562,9.6238 -52.69774,19.44206 -87.52362,26.38248 C 136.55703,278.43164 60.179303,276.08904 9.166417,249.90149 l -1.8023992,3.51726 c 52.3453932,26.87164 129.3663722,29.00485 202.6430022,14.4016 35.10804,-6.99668 64.78852,-16.89922 88.26441,-26.60999 23.35172,-9.65943 39.48769,-18.64033 50.84595,-24.2068 11.57349,-5.67189 17.9731,-7.69349 25.01757,-6.41041 6.71049,1.22224 14.46718,5.95378 23.89764,12.41837 18.75914,12.85941 43.70059,30.26726 43.70059,30.26726 l 2.25733,-3.23731 c 0,0 -24.94005,-17.40842 -43.72388,-30.28474 -9.50808,-6.5178 -17.52301,-11.60891 -25.42589,-13.04833 z m -1.67407,12.58752 c -9.03093,-1.56034 -17.56974,0.51075 -30.26723,5.76298 -12.52782,5.18207 -29.18296,13.42953 -52.34503,22.3519 -23.38645,9.0088 -52.44691,18.29982 -86.45034,24.95342 C 133.12312,286.2534 59.493698,284.60516 9.125591,260.32498 l -1.7148946,3.55812 c 51.6547406,24.90041 125.9108736,26.35877 197.4516436,12.36005 34.26755,-6.70527 63.5491,-16.07012 87.10948,-25.1459 23.33108,-8.98748 40.1382,-17.29903 52.43836,-22.38694 12.46326,-5.15531 20.0292,-6.91578 28.0857,-5.52379 7.7417,1.33759 16.11868,5.92649 25.84587,12.06839 19.34354,12.2138 43.41475,28.48236 43.41475,28.48236 l 2.21068,-3.27228 c 0,0 -24.08226,-16.28296 -43.5139,-28.55237 -9.83327,-6.20885 -18.54564,-11.10644 -27.28661,-12.6167 z m -2.09985,13.08334 c -9.99027,-1.60296 -19.69047,0.0615 -33.41707,4.7422 -13.54645,4.6193 -30.94788,12.12725 -54.24655,20.33955 -23.50902,8.28646 -52.13673,16.9353 -85.20794,23.2152 -69.05772,13.11333 -139.588218,12.15195 -189.122171,-9.93356 l -1.6098903,3.6048 c 50.7625903,22.63329 121.8930413,23.42488 191.4670113,10.21351 33.31394,-6.32598 62.14095,-15.03849 85.78539,-23.37271 23.42844,-8.25799 40.92687,-15.7978 54.21159,-20.32787 13.46372,-4.59111 22.33329,-6.05216 31.51549,-4.57887 8.88656,1.42583 18.0029,5.80855 28.0974,11.5551 20.32059,11.56809 43.25142,26.36501 43.25142,26.36501 l 2.14068,-3.31896 c 0,0 -22.96933,-14.82924 -43.43807,-26.48166 -10.22726,-5.82214 -19.71658,-10.46367 -29.42729,-12.02174 z m -19.30713,13.3925 c -6.02435,0.58702 -12.59902,1.86956 -20.05954,3.9139 -14.63971,4.01158 -32.83411,10.69006 -56.27061,18.09387 -23.62829,7.4644 -51.78991,15.36265 -83.83135,21.17947 -66.94003,12.15239 -134.062845,11.83702 -182.58928,-7.8045 l -1.4815618,3.66309 c 49.6819328,20.10924 117.3707418,20.26313 184.7766118,8.02616 32.25963,-5.85642 60.59079,-13.80126 84.31551,-21.29612 23.52667,-7.4323 41.76045,-14.11693 56.12475,-18.05305 29.20742,-8.0034 42.94122,-4.2525 65.87169,7.24454 21.12834,10.59354 43.22224,23.9385 43.22224,23.9385 l 2.04738,-3.38312 c 0,0 -22.17274,-13.38993 -43.50225,-24.08432 -17.4089,-8.72861 -30.55047,-13.19952 -48.62359,-11.43842 z m -4.67219,13.80078 c -6.65543,0.42775 -13.86774,1.47024 -21.94362,3.19646 -16.28138,3.48017 -34.21103,8.98661 -58.39379,15.6615 -23.73745,6.55198 -51.40468,13.59552 -82.33228,18.85799 -64.66199,11.00246 -128.118986,11.27016 -175.484727,-5.72215 l -1.3357318,3.72142 c 48.4294348,17.37393 112.4147088,16.96917 177.4854288,5.89713 31.11808,-5.29484 58.92078,-12.37719 82.71724,-18.94546 24.23687,-6.68983 42.13973,-12.17746 58.1663,-15.60318 31.70717,-6.77743 48.7435,-2.94506 72.59709,7.30871 22.05663,9.48135 43.34475,21.21447 43.34475,21.21447 l 1.90737,-3.45893 c 0,0 -21.39972,-11.79981 -43.69473,-21.38363 -18.12553,-7.79151 -33.06703,-12.02762 -53.0333,-10.74433 z m -5.09801,14.35492 c -7.31609,0.28073 -15.20272,1.08529 -23.91514,2.48484 -33.96754,5.45656 -82.29504,20.19859 -141.28607,29.35149 -62.26196,9.66042 -121.8667,10.40823 -167.942671,-3.77978 l -1.160754,3.77393 c 47.025611,14.48044 107.102755,13.6221 169.710075,3.9081 59.30221,-9.20119 107.8666,-23.9792 141.30936,-29.35149 34.32158,-5.51339 54.77814,-1.75909 79.67246,7.11621 23.09709,8.23458 43.61891,18.21635 43.61891,18.21635 l 1.73237,-3.55227 c 0,0 -20.67664,-10.06054 -44.02719,-18.3855 -18.9119,-6.74248 -35.76313,-10.62395 -57.71135,-9.78188 z m -5.44799,14.90906 c -7.99435,0.15291 -16.55766,0.73426 -25.91584,1.80823 -36.37285,4.17414 -85.11467,16.13247 -141.78771,23.83349 -59.78282,8.12361 -115.40062,9.20202 -160.085668,-2.08238 l -0.9682759,3.83225 c 45.4952199,11.48901 101.5311539,10.32523 161.5905839,2.16403 56.91351,-7.73369 105.78187,-19.69982 141.7002,-23.82182 36.99412,-4.24545 60.94487,-0.76003 86.98116,6.60292 24.23822,6.85445 44.05636,14.96739 44.05636,14.96739 l 1.49906,-3.65727 c 0,0 -20.00112,-8.19008 -44.48217,-15.11322 -19.75283,-5.58602 -38.60461,-8.99246 -62.5877,-8.53362 z m -5.69297,15.47486 c -8.67685,0.0523 -17.92848,0.4302 -27.92823,1.18993 -38.75937,2.94463 -87.86389,11.98637 -142.18433,18.04716 -57.27132,6.39002 -108.870602,7.60826 -152.094516,-0.73494 l -0.7466197,3.87892 c 43.8673507,8.46739 95.8089157,7.1944 153.2844457,0.78163 54.48953,-6.07967 103.64418,-15.11815 142.04433,-18.03552 39.66326,-3.01336 67.10743,-0.0179 94.3657,5.6988 25.46423,5.34086 44.66883,11.49677 44.66883,11.49677 l 1.2074,-3.76228 c 0,0 -19.39469,-6.21757 -45.06546,-11.60174 -20.63256,-4.32636 -41.521,-7.11541 -67.55155,-6.95873 z m 20.63703,16.69393 c -16.70011,-0.8321 -35.11957,-0.93014 -56.36393,0.006 -41.07625,1.80968 -90.49081,7.84975 -142.47015,12.08006 -54.777845,4.45815 -102.400811,5.57802 -144.126708,0.14574 l -0.513286,3.91393 c 42.1759,5.49079 90.052055,4.34634 144.960804,-0.12245 52.0804,-4.23852 101.49564,-10.27545 142.32431,-12.07423 42.26311,-1.86201 73.15233,0.40684 101.68607,4.34556 26.75465,3.69311 45.45045,7.822 45.45045,7.822 l 0.85745,-3.8556 c 0,0 -18.86203,-4.16667 -45.76544,-7.88033 -14.35683,-1.98177 -29.33948,-3.54847 -46.03957,-4.38056 z m -64.09846,16.19814 c -48.72898,0.91598 -87.12119,3.5652 -142.61594,6.03128 -52.353371,2.32653 -96.151406,3.05759 -136.374687,0.43164 l -0.256539,3.94307 c 40.456794,2.64121 84.392088,1.89761 136.806316,-0.43163 55.53925,-2.46806 93.8919,-5.11142 142.51682,-6.02543 44.72373,-0.84069 78.93421,0.43143 108.76727,2.46149 28.08373,1.91104 46.40705,3.98393 46.40705,3.98393 l 0.44332,-3.92558 c 0,0 -18.42146,-2.07933 -46.58206,-3.99558 -29.92564,-2.03639 -64.27485,-3.316 -109.11143,-2.47319 z M 8.268144,354.10154 v 3.95475 c 144.924516,0.0299 434.590786,0 434.590786,0 v -3.95475 c 0,0 -289.66791,0.0299 -434.590786,0 z"
       id="path1111" />
  </g>
</svg>
