<?xml version="1.0" encoding="UTF-8" standalone="no"?>
<svg
   xmlns:dc="http://purl.org/dc/elements/1.1/"
   xmlns:cc="http://creativecommons.org/ns#"
   xmlns:rdf="http://www.w3.org/1999/02/22-rdf-syntax-ns#"
   xmlns:svg="http://www.w3.org/2000/svg"
   xmlns="http://www.w3.org/2000/svg"
   xmlns:xlink="http://www.w3.org/1999/xlink"
   xmlns:sodipodi="http://sodipodi.sourceforge.net/DTD/sodipodi-0.dtd"
   xmlns:inkscape="http://www.inkscape.org/namespaces/inkscape"
   width="451.2612mm"
   height="451.2612mm"
   viewBox="0 0 451.2612 451.2612"
   version="1.1"
   id="svg2095"
   inkscape:version="1.0.2 (1.0.2+r75+1)"
   sodipodi:docname="drawing7(Capsule).svg">
  <defs
     id="defs2089">
    <linearGradient
       inkscape:collect="always"
       id="linearGradient3467">
      <stop
         style="stop-color:#652c74;stop-opacity:1"
         offset="0"
         id="stop3463" />
      <stop
         style="stop-color:#ffd5f6;stop-opacity:1"
         offset="1"
         id="stop3465" />
    </linearGradient>
    <linearGradient
       inkscape:collect="always"
       id="linearGradient3461">
      <stop
         style="stop-color:#653671;stop-opacity:1"
         offset="0"
         id="stop3457" />
      <stop
         style="stop-color:#ffd5f6;stop-opacity:1"
         offset="1"
         id="stop3459" />
    </linearGradient>
    <linearGradient
       inkscape:collect="always"
       id="linearGradient2923">
      <stop
         style="stop-color:#653073;stop-opacity:1"
         offset="0"
         id="stop2919" />
      <stop
         style="stop-color:#ffd5f6;stop-opacity:1"
         offset="1"
         id="stop2921" />
    </linearGradient>
    <linearGradient
       inkscape:collect="always"
       id="linearGradient2463">
      <stop
         style="stop-color:#4d4d4d;stop-opacity:1"
         offset="0"
         id="stop2459" />
      <stop
         style="stop-color:#d18fe0;stop-opacity:1"
         offset="0.33427498"
         id="stop2469" />
      <stop
         style="stop-color:#7f2994;stop-opacity:1"
         offset="0.49831036"
         id="stop2471" />
      <stop
         style="stop-color:#ae3cca;stop-opacity:1"
         offset="0.69220757"
         id="stop2467" />
      <stop
         style="stop-color:#6e0d86;stop-opacity:0;"
         offset="1"
         id="stop2461" />
    </linearGradient>
    <linearGradient
       inkscape:collect="always"
       id="linearGradient865">
      <stop
         style="stop-color:#660080;stop-opacity:1;"
         offset="0"
         id="stop861" />
      <stop
         style="stop-color:#660080;stop-opacity:0;"
         offset="1"
         id="stop863" />
    </linearGradient>
    <linearGradient
       inkscape:collect="always"
       xlink:href="#linearGradient865"
       id="linearGradient867"
       x1="103.0376"
       y1="329.43018"
       x2="103.0376"
       y2="278.58148"
       gradientUnits="userSpaceOnUse" />
    <filter
       inkscape:collect="always"
       style="color-interpolation-filters:sRGB"
       id="filter2389"
       x="-0.046149134"
       width="1.0922983"
       y="-0.056393106"
       height="1.1127862">
      <feGaussianBlur
         inkscape:collect="always"
         stdDeviation="1.7167922"
         id="feGaussianBlur2391" />
    </filter>
    <filter
       inkscape:collect="always"
       style="color-interpolation-filters:sRGB"
       id="filter2393"
       x="-0.035712614"
       width="1.0714252"
       y="-0.019276099"
       height="1.0385522">
      <feGaussianBlur
         inkscape:collect="always"
         stdDeviation="6.4886636"
         id="feGaussianBlur2395" />
    </filter>
    <clipPath
       clipPathUnits="userSpaceOnUse"
       id="clipPath2433">
      <path
         id="path2435"
         style="opacity:1;fill:#ff6600;stroke-width:2.64583;stroke-linecap:round;stroke-linejoin:round"
         d="m 103.88047,129.46234 c 27.41224,0 49.48058,21.05326 49.48058,47.20463 v 98.93974 c 0,26.15138 -22.06834,47.20465 -49.48058,47.20465 -27.412234,0 -49.480569,-21.05327 -49.480569,-47.20465 v -98.93974 c 0,-26.15137 22.068335,-47.20463 49.480569,-47.20463 z"
         sodipodi:nodetypes="sssssss" />
    </clipPath>
    <radialGradient
       inkscape:collect="always"
       xlink:href="#linearGradient2463"
       id="radialGradient2465"
       cx="225.62566"
       cy="212.49605"
       fx="225.62566"
       fy="212.49605"
       r="43.606373"
       gradientTransform="matrix(1.2648727,0,0,0.20276246,-50.507105,167.89151)"
       gradientUnits="userSpaceOnUse" />
    <filter
       inkscape:collect="always"
       style="color-interpolation-filters:sRGB"
       id="filter2606"
       x="-0.5746368"
       width="2.1492736"
       y="-0.5746368"
       height="2.1492736">
      <feGaussianBlur
         inkscape:collect="always"
         stdDeviation="3.1084319"
         id="feGaussianBlur2608" />
    </filter>
    <filter
       inkscape:collect="always"
       style="color-interpolation-filters:sRGB"
       id="filter2878"
       x="-0.0072650288"
       width="1.0145301"
       y="-0.045320697"
       height="1.0906414">
      <feGaussianBlur
         inkscape:collect="always"
         stdDeviation="0.33392802"
         id="feGaussianBlur2880" />
    </filter>
    <filter
       inkscape:collect="always"
       style="color-interpolation-filters:sRGB"
       id="filter2981"
       x="-0.27956434"
       width="1.5591287"
       y="-0.27956434"
       height="1.5591287">
      <feGaussianBlur
         inkscape:collect="always"
         stdDeviation="3.5592256"
         id="feGaussianBlur2983" />
    </filter>
    <radialGradient
       inkscape:collect="always"
       xlink:href="#linearGradient865"
       id="radialGradient2991"
       gradientUnits="userSpaceOnUse"
       gradientTransform="matrix(0.99295418,-0.50776845,0.83172771,1.6264649,-340.35436,84.693616)"
       cx="302.74313"
       cy="248.36816"
       fx="302.74313"
       fy="248.36816"
       r="13.88859" />
    <filter
       inkscape:collect="always"
       style="color-interpolation-filters:sRGB"
       id="filter3429"
       x="-0.014519998"
       width="1.02904"
       y="-0.014519998"
       height="1.02904">
      <feGaussianBlur
         inkscape:collect="always"
         stdDeviation="0.17343993"
         id="feGaussianBlur3431" />
    </filter>
    <linearGradient
       inkscape:collect="always"
       xlink:href="#linearGradient3467"
       id="linearGradient3435"
       x1="306.40802"
       y1="248.00948"
       x2="293.15982"
       y2="227.88118"
       gradientUnits="userSpaceOnUse" />
    <radialGradient
       inkscape:collect="always"
       xlink:href="#linearGradient865"
       id="radialGradient3441"
       gradientUnits="userSpaceOnUse"
       gradientTransform="matrix(0.98900796,-0.50575047,0.82842224,1.6200009,-263.02512,19.705363)"
       cx="302.74313"
       cy="248.36816"
       fx="302.74313"
       fy="248.36816"
       r="13.88859" />
    <linearGradient
       inkscape:collect="always"
       xlink:href="#linearGradient2923"
       id="linearGradient3445"
       gradientUnits="userSpaceOnUse"
       x1="306.40802"
       y1="248.00948"
       x2="293.15982"
       y2="227.88118" />
    <radialGradient
       inkscape:collect="always"
       xlink:href="#linearGradient865"
       id="radialGradient3451"
       gradientUnits="userSpaceOnUse"
       gradientTransform="matrix(0.65668448,-0.33580971,0.55005828,1.0756531,-138.04215,118.82083)"
       cx="302.74313"
       cy="248.36816"
       fx="302.74313"
       fy="248.36816"
       r="13.88859" />
    <linearGradient
       inkscape:collect="always"
       xlink:href="#linearGradient3461"
       id="linearGradient3455"
       gradientUnits="userSpaceOnUse"
       x1="306.40802"
       y1="248.00948"
       x2="293.15982"
       y2="227.88118" />
    <radialGradient
       inkscape:collect="always"
       xlink:href="#linearGradient865"
       id="radialGradient3473"
       gradientUnits="userSpaceOnUse"
       gradientTransform="matrix(0.99295418,-0.50776845,0.83172771,1.6264649,-340.35436,84.693616)"
       cx="302.74313"
       cy="248.36816"
       fx="302.74313"
       fy="248.36816"
       r="13.88859" />
    <linearGradient
       inkscape:collect="always"
       xlink:href="#linearGradient3467"
       id="linearGradient3477"
       gradientUnits="userSpaceOnUse"
       x1="306.40802"
       y1="248.00948"
       x2="293.15982"
       y2="227.88118" />
    <radialGradient
       inkscape:collect="always"
       xlink:href="#linearGradient865"
       id="radialGradient3483"
       gradientUnits="userSpaceOnUse"
       gradientTransform="matrix(0.54110168,-0.27670396,0.45324272,0.88632776,-136.92633,218.70509)"
       cx="302.74313"
       cy="248.36816"
       fx="302.74313"
       fy="248.36816"
       r="13.88859" />
    <linearGradient
       inkscape:collect="always"
       xlink:href="#linearGradient3467"
       id="linearGradient3487"
       gradientUnits="userSpaceOnUse"
       x1="306.40802"
       y1="248.00948"
       x2="293.15982"
       y2="227.88118" />
    <radialGradient
       inkscape:collect="always"
       xlink:href="#linearGradient865"
       id="radialGradient3493"
       gradientUnits="userSpaceOnUse"
       gradientTransform="matrix(0.52050849,-0.26617319,0.43599325,0.85259601,-104.83339,161.58555)"
       cx="302.74313"
       cy="248.36816"
       fx="302.74313"
       fy="248.36816"
       r="13.88859" />
    <linearGradient
       inkscape:collect="always"
       xlink:href="#linearGradient3467"
       id="linearGradient3497"
       gradientUnits="userSpaceOnUse"
       x1="306.40802"
       y1="248.00948"
       x2="293.15982"
       y2="227.88118" />
    <filter
       inkscape:collect="always"
       style="color-interpolation-filters:sRGB"
       id="filter3663"
       x="-0.011844913"
       width="1.0236898"
       y="-0.012416008"
       height="1.024832">
      <feGaussianBlur
         inkscape:collect="always"
         stdDeviation="0.95550525"
         id="feGaussianBlur3665" />
    </filter>
  </defs>
  <sodipodi:namedview
     id="base"
     pagecolor="#333333"
     bordercolor="#666666"
     borderopacity="1.0"
     inkscape:pageopacity="0"
     inkscape:pageshadow="2"
     inkscape:zoom="0.5"
     inkscape:cx="515.7969"
     inkscape:cy="881.88914"
     inkscape:document-units="mm"
     inkscape:current-layer="layer2"
     inkscape:document-rotation="0"
     showgrid="false"
     fit-margin-top="0"
     fit-margin-left="0"
     fit-margin-right="0"
     fit-margin-bottom="0"
     showborder="false"
     inkscape:window-width="1920"
     inkscape:window-height="1025"
     inkscape:window-x="0"
     inkscape:window-y="27"
     inkscape:window-maximized="0" />
  <metadata
     id="metadata2092">
    <rdf:RDF>
      <cc:Work
         rdf:about="">
        <dc:format>image/svg+xml</dc:format>
        <dc:type
           rdf:resource="http://purl.org/dc/dcmitype/StillImage" />
        <dc:title></dc:title>
      </cc:Work>
    </rdf:RDF>
  </metadata>
  <g
     inkscape:label="Canvas"
     inkscape:groupmode="layer"
     id="layer1"
     transform="translate(15.6306,77.1306)"
     sodipodi:insensitive="true">
    <rect
       style="opacity:1;fill:#666666;stroke-width:0.0894292;stroke-linecap:round;stroke-linejoin:round"
       id="rect2110"
       width="451.2612"
       height="451.2612"
       x="-15.6306"
       y="-77.1306"
       ry="1.1328373" />
  </g>
  <g
     inkscape:groupmode="layer"
     id="layer2"
     inkscape:label="Layer 1">
    <ellipse
       style="opacity:0.785332;fill:url(#radialGradient2465);fill-opacity:1;stroke-width:1.25804;stroke-linecap:round;stroke-linejoin:round;filter:url(#filter2878)"
       id="path2437"
       cx="234.88062"
       cy="210.97774"
       rx="55.156509"
       ry="8.8417358"
       transform="matrix(2.2969703,-0.00817439,-0.12604578,1.9261049,-266.81813,-201.36103)"
       inkscape:export-xdpi="127.695"
       inkscape:export-ydpi="127.695" />
    <g
       id="g2399"
       style="stroke-width:0.527332;filter:url(#filter3663)"
       transform="matrix(1.3097088,1.3097088,-1.3728555,1.3728555,400.03066,-220.87579)"
       clip-path="url(#clipPath2433)"
       inkscape:export-xdpi="127.695"
       inkscape:export-ydpi="127.695">
      <path
         id="path839"
         style="opacity:1;fill:#660080;stroke-width:5.27332;stroke-linecap:round;stroke-linejoin:round;filter:url(#filter2393)"
         d="m 392.61914,450.75 c -120.78831,0 -218.0293,87.96866 -218.0293,197.23828 v 413.40432 c 0,109.2697 97.24099,197.2383 218.0293,197.2383 120.78833,0 218.0293,-87.9686 218.0293,-197.2383 V 647.98828 C 610.64844,538.71866 513.40747,450.75 392.61914,450.75 Z m 0,45.82812 c 96.87273,0 174.85938,77.9886 174.85938,174.86133 v 366.50195 c 0,96.8727 -77.98665,174.8613 -174.85938,174.8613 -96.87274,0 -174.86133,-77.9886 -174.86133,-174.8613 V 671.43945 c 0,-96.87273 77.98859,-174.86132 174.86133,-174.86133 z"
         transform="scale(0.26458333)" />
      <ellipse
         style="opacity:1;fill:url(#linearGradient867);fill-opacity:1;stroke-width:1.39524;stroke-linecap:round;stroke-linejoin:round;filter:url(#filter2389)"
         id="path843"
         cx="103.74432"
         cy="292.60403"
         rx="44.641155"
         ry="36.53196" />
    </g>
    <path
       id="rect2473"
       style="opacity:0.2;fill:#cccccc;fill-opacity:1;stroke-width:2.64584;stroke-linecap:round;stroke-linejoin:round"
       d="M 351.86034,91.572769 C 319.33232,59.044749 266.9176,59.085457 234.33811,91.664883 L 92.88878,233.11423 C 60.309294,265.6937 60.267893,318.10912 92.79587,350.63714 l 6.429917,6.42993 c 4.576513,4.57652 9.546243,8.50818 14.799433,11.79536 -20.076802,-32.08451 -16.107544,-74.72778 11.8882,-102.7235 L 267.36275,124.68958 c 27.99574,-27.995717 70.6383,-31.964283 102.72279,-11.88749 -3.28717,-5.25316 -7.21881,-10.22293 -11.79532,-14.799444 z"
       inkscape:export-xdpi="127.695"
       inkscape:export-ydpi="127.695" />
    <path
       id="path2489"
       style="opacity:0.489003;fill:#cccccc;fill-opacity:1;stroke-width:2.64584;stroke-linecap:round;stroke-linejoin:round"
       d="m 95.49153,234.14396 c -25.338712,37.67318 -27.714032,79.35859 -5.721059,102.88382 7.140776,2.07622 12.794069,-5.87139 10.700949,-10.70095 -17.916544,-19.38282 -16.833527,-53.14561 2.71036,-84.49262 4.83796,-5.66217 -0.54413,-15.01832 -7.69025,-7.69025 z"
       sodipodi:nodetypes="ccccc"
       inkscape:export-xdpi="127.695"
       inkscape:export-ydpi="127.695" />
    <circle
       style="opacity:0.489003;fill:#cccccc;fill-opacity:1;stroke:none;stroke-width:2.64584;stroke-linecap:round;stroke-linejoin:round;stroke-miterlimit:4;stroke-dasharray:none;stroke-opacity:1"
       id="path2505"
       cx="322.99847"
       cy="167.78027"
       r="8.9163446"
       transform="rotate(45)"
       inkscape:export-xdpi="127.695"
       inkscape:export-ydpi="127.695" />
    <path
       id="path2507"
       style="opacity:0.489003;fill:#cccccc;fill-opacity:1;stroke:none;stroke-width:2.64584;stroke-linecap:round;stroke-linejoin:round;stroke-miterlimit:4;stroke-dasharray:none;stroke-opacity:1"
       d="m 329.49271,93.582091 c -4.42418,-2.405885 -30.29055,-4.713258 -36.92819,-2.047375 -14.15164,5.683758 -27.21557,-5.577441 -19.69388,-10.885713 11.82834,-8.347561 60.88368,-1.115167 72.42825,7.620637 11.64647,8.812902 9.35881,18.99736 -15.80618,5.312451 z"
       sodipodi:nodetypes="sssss"
       inkscape:export-xdpi="127.695"
       inkscape:export-ydpi="127.695" />
    <circle
       style="opacity:0.489003;fill:#cccccc;fill-opacity:1;stroke:none;stroke-width:2.64584;stroke-linecap:round;stroke-linejoin:round;stroke-miterlimit:4;stroke-dasharray:none;stroke-opacity:1"
       id="circle2510"
       cx="250.88037"
       cy="-115.49508"
       r="8.9163446"
       transform="rotate(45)"
       inkscape:export-xdpi="127.695"
       inkscape:export-ydpi="127.695" />
    <circle
       style="fill:#cccccc;fill-opacity:1;stroke:none;stroke-width:1.33565;stroke-linecap:round;stroke-linejoin:round;stroke-miterlimit:4;stroke-dasharray:none;stroke-opacity:1;filter:url(#filter2606)"
       id="path2512"
       cx="222.49744"
       cy="143.40752"
       r="6.4912624"
       transform="matrix(1.4007325,1.4007325,-1.4007325,1.4007325,225.6306,-406.46565)"
       inkscape:export-xdpi="127.695"
       inkscape:export-ydpi="127.695" />
    <path
       id="path3437"
       style="opacity:0.498728;fill:#fffafe;fill-opacity:1;stroke:none;stroke-width:3.35964;stroke-linecap:round;stroke-linejoin:round;stroke-miterlimit:4;stroke-dasharray:none;stroke-opacity:1;filter:url(#filter2981)"
       d="m 317.47845,242.09554 a 15.277597,15.277597 0 0 1 -15.27759,15.27759 15.277597,15.277597 0 0 1 -15.2776,-15.27759 15.277597,15.277597 0 0 1 15.2776,-15.2776 15.277597,15.277597 0 0 1 15.27759,15.2776 z"
       transform="matrix(0.78753313,0,0,0.78753313,3.6793379,72.838216)"
       inkscape:export-xdpi="127.695"
       inkscape:export-ydpi="127.695" />
    <path
       id="path3447"
       style="opacity:0.498728;fill:#fffafe;fill-opacity:1;stroke:none;stroke-width:5.05983;stroke-linecap:round;stroke-linejoin:round;stroke-miterlimit:4;stroke-dasharray:none;stroke-opacity:1;filter:url(#filter2981)"
       d="m 317.47845,242.09554 a 15.277597,15.277597 0 0 1 -15.27759,15.27759 15.277597,15.277597 0 0 1 -15.2776,-15.27759 15.277597,15.277597 0 0 1 15.2776,-15.2776 15.277597,15.277597 0 0 1 15.27759,15.2776 z"
       transform="matrix(0.52290861,0,0,0.52290861,39.045068,154.10015)"
       inkscape:export-xdpi="127.695"
       inkscape:export-ydpi="127.695" />
    <path
       id="path3469"
       style="opacity:0.498728;fill:#fffafe;fill-opacity:1;stroke:none;stroke-width:3.34629;stroke-linecap:round;stroke-linejoin:round;stroke-miterlimit:4;stroke-dasharray:none;stroke-opacity:1;filter:url(#filter2981)"
       d="m 317.47845,242.09554 a 15.277597,15.277597 0 0 1 -15.27759,15.27759 15.277597,15.277597 0 0 1 -15.2776,-15.27759 15.277597,15.277597 0 0 1 15.2776,-15.2776 15.277597,15.277597 0 0 1 15.27759,15.2776 z"
       transform="matrix(0.79067545,0,0,0.79067545,-72.585729,138.03847)"
       inkscape:export-xdpi="127.695"
       inkscape:export-ydpi="127.695" />
    <path
       id="path3479"
       style="opacity:0.498728;fill:#fffafe;fill-opacity:1;stroke:none;stroke-width:6.14064;stroke-linecap:round;stroke-linejoin:round;stroke-miterlimit:4;stroke-dasharray:none;stroke-opacity:1;filter:url(#filter2981)"
       d="m 317.47845,242.09554 a 15.277597,15.277597 0 0 1 -15.27759,15.27759 15.277597,15.277597 0 0 1 -15.2776,-15.27759 15.277597,15.277597 0 0 1 15.2776,-15.2776 15.277597,15.277597 0 0 1 15.27759,15.2776 z"
       transform="matrix(0.43087164,0,0,0.43087164,8.9918289,247.77489)"
       inkscape:export-xdpi="127.695"
       inkscape:export-ydpi="127.695" />
    <path
       id="path3489"
       style="opacity:0.498728;fill:#fffafe;fill-opacity:1;stroke:none;stroke-width:6.3836;stroke-linecap:round;stroke-linejoin:round;stroke-miterlimit:4;stroke-dasharray:none;stroke-opacity:1;filter:url(#filter2981)"
       d="m 317.47845,242.09554 a 15.277597,15.277597 0 0 1 -15.27759,15.27759 15.277597,15.277597 0 0 1 -15.2776,-15.27759 15.277597,15.277597 0 0 1 15.2776,-15.2776 15.277597,15.277597 0 0 1 15.27759,15.2776 z"
       transform="matrix(0.41447358,0,0,0.41447358,35.531444,189.54902)"
       inkscape:export-xdpi="127.695"
       inkscape:export-ydpi="127.695" />
    <path
       id="path2885"
       style="opacity:0.498728;fill:#fffafe;fill-opacity:1;stroke:none;stroke-width:3.34629;stroke-linecap:round;stroke-linejoin:round;stroke-miterlimit:4;stroke-dasharray:none;stroke-opacity:1;filter:url(#filter2981)"
       d="m 317.47845,242.09554 a 15.277597,15.277597 0 0 1 -15.27759,15.27759 15.277597,15.277597 0 0 1 -15.2776,-15.27759 15.277597,15.277597 0 0 1 15.2776,-15.2776 15.277597,15.277597 0 0 1 15.27759,15.2776 z"
       transform="matrix(0.79067545,0,0,0.79067545,-72.585729,138.03847)"
       inkscape:export-xdpi="127.695"
       inkscape:export-ydpi="127.695" />
    <path
       id="path3439"
       style="opacity:0.745331;fill:url(#radialGradient3441);fill-opacity:1;stroke:none;stroke-width:2.64582;stroke-linecap:round;stroke-linejoin:round;stroke-miterlimit:4;stroke-dasharray:none;stroke-opacity:1"
       d="m 253.74668,263.49649 a 12.074144,12.074144 0 0 1 -12.07414,12.07413 12.074144,12.074144 0 0 1 -12.07415,-12.07413 12.074144,12.074144 0 0 1 12.07415,-12.07416 12.074144,12.074144 0 0 1 12.07414,12.07416 z"
       inkscape:export-xdpi="127.695"
       inkscape:export-ydpi="127.695" />
    <path
       id="path3449"
       style="opacity:0.745331;fill:url(#radialGradient3451);fill-opacity:1;stroke:none;stroke-width:2.64582;stroke-linecap:round;stroke-linejoin:round;stroke-miterlimit:4;stroke-dasharray:none;stroke-opacity:1"
       d="m 205.08555,280.69399 a 8.017026,8.017026 0 0 1 -8.01703,8.01702 8.017026,8.017026 0 0 1 -8.01702,-8.01702 8.017026,8.017026 0 0 1 8.01702,-8.01704 8.017026,8.017026 0 0 1 8.01703,8.01704 z"
       inkscape:export-xdpi="127.695"
       inkscape:export-ydpi="127.695" />
    <path
       id="path3471"
       style="opacity:0.817;fill:url(#radialGradient3473);fill-opacity:1;stroke:none;stroke-width:2.64582;stroke-linecap:round;stroke-linejoin:round;stroke-miterlimit:4;stroke-dasharray:none;stroke-opacity:1"
       d="m 178.47941,329.45748 a 12.12232,12.12232 0 0 1 -12.12231,12.12231 12.12232,12.12232 0 0 1 -12.12233,-12.12231 12.12232,12.12232 0 0 1 12.12233,-12.12233 12.12232,12.12232 0 0 1 12.12231,12.12233 z"
       inkscape:export-xdpi="127.695"
       inkscape:export-ydpi="127.695" />
    <path
       id="path3481"
       style="opacity:0.817;fill:url(#radialGradient3483);fill-opacity:1;stroke:none;stroke-width:2.64582;stroke-linecap:round;stroke-linejoin:round;stroke-miterlimit:4;stroke-dasharray:none;stroke-opacity:1"
       d="m 145.80759,352.087 a 6.6059522,6.6059522 0 0 1 -6.60596,6.60597 6.6059522,6.6059522 0 0 1 -6.60594,-6.60597 6.6059522,6.6059522 0 0 1 6.60594,-6.60596 6.6059522,6.6059522 0 0 1 6.60596,6.60596 z"
       inkscape:export-xdpi="127.695"
       inkscape:export-ydpi="127.695" />
    <path
       id="path3491"
       style="opacity:0.817;fill:url(#radialGradient3493);fill-opacity:1;stroke:none;stroke-width:2.64582;stroke-linecap:round;stroke-linejoin:round;stroke-miterlimit:4;stroke-dasharray:none;stroke-opacity:1"
       d="m 167.14026,289.89123 a 6.3545436,6.3545436 0 0 1 -6.35454,6.35453 6.3545436,6.3545436 0 0 1 -6.35454,-6.35453 6.3545436,6.3545436 0 0 1 6.35454,-6.35456 6.3545436,6.3545436 0 0 1 6.35454,6.35456 z"
       inkscape:export-xdpi="127.695"
       inkscape:export-ydpi="127.695" />
    <path
       id="path2887"
       style="opacity:0.817;fill:url(#radialGradient2991);fill-opacity:1;stroke:none;stroke-width:2.64582;stroke-linecap:round;stroke-linejoin:round;stroke-miterlimit:4;stroke-dasharray:none;stroke-opacity:1"
       d="m 178.47941,329.45748 a 12.12232,12.12232 0 0 1 -12.12231,12.12231 12.12232,12.12232 0 0 1 -12.12233,-12.12231 12.12232,12.12232 0 0 1 12.12233,-12.12233 12.12232,12.12232 0 0 1 12.12231,12.12233 z"
       inkscape:export-xdpi="127.695"
       inkscape:export-ydpi="127.695" />
    <path
       id="path3443"
       style="opacity:0.745331;fill:url(#linearGradient3445);fill-opacity:1;stroke:none;stroke-width:3.35964;stroke-linecap:round;stroke-linejoin:round;stroke-miterlimit:4;stroke-dasharray:none;stroke-opacity:1;filter:url(#filter3429)"
       d="m 316.53475,242.09555 a 14.333881,14.333881 0 0 1 -14.33387,14.33388 14.333881,14.333881 0 0 1 -14.33389,-14.33388 14.333881,14.333881 0 0 1 14.33389,-14.33388 14.333881,14.333881 0 0 1 14.33387,14.33388 z"
       transform="matrix(0.78753313,0,0,0.78753313,3.6793379,72.838216)"
       inkscape:export-xdpi="127.695"
       inkscape:export-ydpi="127.695" />
    <path
       id="path3453"
       style="opacity:0.745331;fill:url(#linearGradient3455);fill-opacity:1;stroke:none;stroke-width:5.05983;stroke-linecap:round;stroke-linejoin:round;stroke-miterlimit:4;stroke-dasharray:none;stroke-opacity:1;filter:url(#filter3429)"
       d="m 316.53475,242.09555 a 14.333881,14.333881 0 0 1 -14.33387,14.33388 14.333881,14.333881 0 0 1 -14.33389,-14.33388 14.333881,14.333881 0 0 1 14.33389,-14.33388 14.333881,14.333881 0 0 1 14.33387,14.33388 z"
       transform="matrix(0.52290861,0,0,0.52290861,39.045068,154.10015)"
       inkscape:export-xdpi="127.695"
       inkscape:export-ydpi="127.695" />
    <path
       id="path3475"
       style="opacity:0.817;fill:url(#linearGradient3477);fill-opacity:1;stroke:none;stroke-width:3.34629;stroke-linecap:round;stroke-linejoin:round;stroke-miterlimit:4;stroke-dasharray:none;stroke-opacity:1;filter:url(#filter3429)"
       d="m 316.53475,242.09555 a 14.333881,14.333881 0 0 1 -14.33387,14.33388 14.333881,14.333881 0 0 1 -14.33389,-14.33388 14.333881,14.333881 0 0 1 14.33389,-14.33388 14.333881,14.333881 0 0 1 14.33387,14.33388 z"
       transform="matrix(0.79067545,0,0,0.79067545,-72.585729,138.03847)"
       inkscape:export-xdpi="127.695"
       inkscape:export-ydpi="127.695" />
    <path
       id="path3485"
       style="opacity:0.817;fill:url(#linearGradient3487);fill-opacity:1;stroke:none;stroke-width:6.14064;stroke-linecap:round;stroke-linejoin:round;stroke-miterlimit:4;stroke-dasharray:none;stroke-opacity:1;filter:url(#filter3429)"
       d="m 316.53475,242.09555 a 14.333881,14.333881 0 0 1 -14.33387,14.33388 14.333881,14.333881 0 0 1 -14.33389,-14.33388 14.333881,14.333881 0 0 1 14.33389,-14.33388 14.333881,14.333881 0 0 1 14.33387,14.33388 z"
       transform="matrix(0.43087164,0,0,0.43087164,8.9918289,247.77489)"
       inkscape:export-xdpi="127.695"
       inkscape:export-ydpi="127.695" />
    <path
       id="path3495"
       style="opacity:0.817;fill:url(#linearGradient3497);fill-opacity:1;stroke:none;stroke-width:6.3836;stroke-linecap:round;stroke-linejoin:round;stroke-miterlimit:4;stroke-dasharray:none;stroke-opacity:1;filter:url(#filter3429)"
       d="m 316.53475,242.09555 a 14.333881,14.333881 0 0 1 -14.33387,14.33388 14.333881,14.333881 0 0 1 -14.33389,-14.33388 14.333881,14.333881 0 0 1 14.33389,-14.33388 14.333881,14.333881 0 0 1 14.33387,14.33388 z"
       transform="matrix(0.41447358,0,0,0.41447358,35.531444,189.54902)"
       inkscape:export-xdpi="127.695"
       inkscape:export-ydpi="127.695" />
    <path
       id="path2913"
       style="opacity:0.817;fill:url(#linearGradient3435);fill-opacity:1;stroke:none;stroke-width:3.34629;stroke-linecap:round;stroke-linejoin:round;stroke-miterlimit:4;stroke-dasharray:none;stroke-opacity:1;filter:url(#filter3429)"
       d="m 316.53475,242.09555 a 14.333881,14.333881 0 0 1 -14.33387,14.33388 14.333881,14.333881 0 0 1 -14.33389,-14.33388 14.333881,14.333881 0 0 1 14.33389,-14.33388 14.333881,14.333881 0 0 1 14.33387,14.33388 z"
       transform="matrix(0.79067545,0,0,0.79067545,-72.585729,138.03847)"
       inkscape:export-xdpi="127.695"
       inkscape:export-ydpi="127.695" />
  </g>
</svg>
