<?xml version="1.0" encoding="UTF-8" standalone="no"?>
<svg
   xmlns:dc="http://purl.org/dc/elements/1.1/"
   xmlns:cc="http://creativecommons.org/ns#"
   xmlns:rdf="http://www.w3.org/1999/02/22-rdf-syntax-ns#"
   xmlns:svg="http://www.w3.org/2000/svg"
   xmlns="http://www.w3.org/2000/svg"
   xmlns:sodipodi="http://sodipodi.sourceforge.net/DTD/sodipodi-0.dtd"
   xmlns:inkscape="http://www.inkscape.org/namespaces/inkscape"
   width="451.2612mm"
   height="451.2612mm"
   viewBox="0 0 451.2612 451.2612"
   version="1.1"
   id="svg2095"
   inkscape:version="1.0.1 (3bc2e813f5, 2020-09-07)"
   sodipodi:docname="drawing11(Komett).svg">
  <defs
     id="defs2089" />
  <sodipodi:namedview
     id="base"
     pagecolor="#333333"
     bordercolor="#666666"
     borderopacity="1.0"
     inkscape:pageopacity="0"
     inkscape:pageshadow="2"
     inkscape:zoom="0.5"
     inkscape:cx="417.18293"
     inkscape:cy="802.32095"
     inkscape:document-units="mm"
     inkscape:current-layer="layer2"
     inkscape:document-rotation="0"
     showgrid="false"
     fit-margin-top="0"
     fit-margin-left="0"
     fit-margin-right="0"
     fit-margin-bottom="0"
     showborder="false"
     inkscape:window-width="960"
     inkscape:window-height="1025"
     inkscape:window-x="960"
     inkscape:window-y="27"
     inkscape:window-maximized="0"
     inkscape:snap-global="false" />
  <metadata
     id="metadata2092">
    <rdf:RDF>
      <cc:Work
         rdf:about="">
        <dc:format>image/svg+xml</dc:format>
        <dc:type
           rdf:resource="http://purl.org/dc/dcmitype/StillImage" />
        <dc:title />
      </cc:Work>
    </rdf:RDF>
  </metadata>
  <g
     inkscape:label="Canvas"
     inkscape:groupmode="layer"
     id="layer1"
     transform="translate(15.6306,77.1306)"
     sodipodi:insensitive="true">
    <rect
       style="opacity:1;fill:#ffffff;stroke-width:0.0894292;stroke-linecap:round;stroke-linejoin:round"
       id="rect2110"
       width="451.2612"
       height="451.2612"
       x="-15.6306"
       y="-77.1306"
       ry="1.1328373" />
  </g>
  <g
     inkscape:groupmode="layer"
     id="layer2"
     inkscape:label="Layer 1">
    <rect
       style="opacity:1;fill:#1a1a1a;fill-opacity:1;stroke:none;stroke-width:0.264583;stroke-linecap:round;stroke-linejoin:round;stroke-dasharray:0.264583, 0.52916700000000005"
       id="rect910"
       width="391.4949"
       height="230.19693"
       x="37.882637"
       y="77.57634"
       inkscape:export-xdpi="90"
       inkscape:export-ydpi="90" />
    <path
       id="rect873"
       style="fill:#2c5aa0;fill-opacity:1;stroke:none;stroke-width:0.264583;stroke-linecap:round;stroke-linejoin:round;stroke-dasharray:0.264583, 0.529166"
       d="m 182.83386,110.91002 c -1.38556,-1.38556 -3.61555,-1.38652 -4.99997,-0.002 -1.3844,1.3844 -1.38346,3.6144 0.002,4.99996 l 10.80375,10.80375 c 1.38557,1.38557 3.61556,1.3865 4.99996,0.002 1.38441,-1.38442 1.38348,-3.6144 -0.002,-4.99997 z m 20.76905,20.76904 c -1.38557,-1.38557 -3.61556,-1.38651 -4.99997,-0.002 -1.38441,1.38441 -1.38347,3.6144 0.002,4.99997 l 3.11702,3.11702 c 1.38558,1.38558 3.61556,1.38651 4.99997,0.002 1.38441,-1.38441 1.38347,-3.61439 -0.002,-4.99996 z m 11.28696,11.28697 c -1.2565,-1.25651 -3.20545,-1.37039 -4.59046,-0.34898 l -0.75639,0.75638 c -1.0214,1.38501 -0.90752,3.33396 0.34898,4.59046 l 1.05763,1.05763 -0.12815,0.12815 20.74575,20.74575 c 1.38558,1.38558 1.38651,3.61556 0.002,4.99997 -1.38441,1.38441 -3.61439,1.38347 -4.99997,-0.002 l -20.74575,-20.74575 -0.12815,0.12815 -1.05762,-1.05763 c -1.25651,-1.2565 -3.20545,-1.37038 -4.59046,-0.34898 l -0.75639,0.75639 c -1.0214,1.38501 -0.90752,3.33396 0.34898,4.59046 l 1.05763,1.05763 -0.12815,0.12815 13.71259,13.71259 c 1.38558,1.38558 1.38652,3.61556 0.002,4.99997 -1.3844,1.38441 -3.61439,1.38348 -4.99996,-0.002 l -13.7126,-13.7126 -0.12815,0.12815 -1.05763,-1.05762 c -1.2565,-1.25651 -3.20544,-1.37039 -4.59046,-0.34899 l -0.75639,0.75639 c -1.0214,1.38501 -0.90752,3.33396 0.34899,4.59046 l 1.05762,1.05763 -0.12815,0.12815 20.74575,20.74575 c 1.38558,1.38558 1.38651,3.61555 0.002,4.99997 -1.3844,1.3844 -3.61439,1.38347 -4.99996,-0.002 l -20.74575,-20.74575 -0.12815,0.12815 -13.3153,-13.3153 c -1.2565,-1.2565 -3.20545,-1.37038 -4.59046,-0.34898 l -0.75639,0.75639 c -1.0214,1.38501 -0.90752,3.33396 0.34898,4.59046 l 13.3153,13.3153 -0.12815,0.12815 9.86285,9.86284 c 1.38557,1.38558 1.38651,3.61556 0.002,4.99997 -1.38441,1.38441 -3.61439,1.38348 -4.99997,-0.002 l -9.86285,-9.86285 -0.12815,0.12815 -1.05763,-1.05762 c -1.2565,-1.25651 -3.20544,-1.37039 -4.59046,-0.34899 l -0.75638,0.75639 c -0.93378,1.2662 -0.91649,3.00189 0.0536,4.25105 l 1.37502,1.37501 49.85708,49.85709 6.66943,6.66942 19.38025,19.38025 c 0.18524,0.18524 0.37265,0.36724 0.56112,0.5471 0.0606,0.0578 0.12174,0.11439 0.18262,0.1716 0.13172,0.12383 0.26381,0.24679 0.39704,0.368 0.0718,0.0654 0.14417,0.12979 0.21642,0.19441 0.12209,0.10914 0.24468,0.21744 0.36797,0.32442 0.0733,0.0636 0.14694,0.12679 0.22068,0.18964 0.13247,0.11292 0.26571,0.2245 0.39953,0.33496 0.0679,0.0561 0.13564,0.11241 0.2039,0.16785 0.12847,0.10433 0.25808,0.20657 0.38774,0.30865 0.0778,0.0613 0.15497,0.12368 0.2332,0.18414 0.19675,0.15204 0.39455,0.30179 0.59389,0.44872 0.0408,0.0301 0.0823,0.0588 0.12323,0.0887 0.16343,0.11929 0.32734,0.2374 0.49243,0.35327 0.0792,0.0556 0.1591,0.10979 0.23871,0.16462 0.1285,0.0885 0.25725,0.17664 0.38672,0.26308 0.0924,0.0617 0.18517,0.12226 0.27801,0.1829 0.11504,0.0751 0.2304,0.1495 0.34615,0.223 0.0984,0.0625 0.19688,0.12482 0.2958,0.18617 0.11448,0.071 0.22949,0.14056 0.34464,0.20998 0.10502,0.0633 0.21001,0.12689 0.31558,0.18893 0.10472,0.0615 0.21008,0.12142 0.31533,0.18168 0.10876,0.0623 0.21704,0.12576 0.32635,0.18668 0.002,0.001 0.002,0.001 0.003,0.002 0.19915,0.11095 0.39944,0.21959 0.60035,0.32603 0.12811,0.0679 0.25715,0.13317 0.38595,0.19922 0.0899,0.0461 0.17951,0.0929 0.26974,0.13809 0.12521,0.0627 0.25109,0.12368 0.37692,0.1847 0.094,0.0456 0.18795,0.091 0.28226,0.13558 0.12658,0.0599 0.25351,0.1188 0.38067,0.17694 0.0962,0.0439 0.19254,0.0874 0.28902,0.13033 0.13048,0.0581 0.26115,0.11563 0.3922,0.17194 0.0803,0.0345 0.16093,0.068 0.24143,0.10176 0.14631,0.0615 0.29253,0.123 0.43952,0.18222 0.0427,0.0172 0.0857,0.0334 0.12848,0.0504 0.38019,0.15129 0.76233,0.29608 1.14677,0.43243 0.16467,0.0584 0.32995,0.11431 0.49535,0.16997 0.0594,0.02 0.11877,0.0405 0.17831,0.0602 0.16401,0.0541 0.32844,0.10626 0.4931,0.15771 0.0596,0.0186 0.11914,0.0374 0.17881,0.0557 0.1653,0.0506 0.33094,0.0995 0.49686,0.14744 0.0571,0.0165 0.11433,0.0327 0.17154,0.0489 0.17762,0.0502 0.35538,0.0996 0.53366,0.1467 0.004,0.001 0.009,0.002 0.0135,0.003 0.0142,0.004 0.0286,0.007 0.0428,0.0108 0.81229,0.21318 1.63105,0.39403 2.45438,0.54314 0.0506,0.009 0.10113,0.0187 0.15177,0.0276 0.17842,0.0314 0.35706,0.0609 0.53589,0.0894 0.0456,0.007 0.0911,0.0145 0.13672,0.0216 0.18387,0.0284 0.36793,0.0553 0.55216,0.0806 0.0414,0.006 0.0828,0.0111 0.12421,0.0166 0.1925,0.0256 0.38511,0.0502 0.57794,0.0723 0.002,7.7e-4 0.002,3.8e-4 0.004,5.5e-4 3.3595,0.38601 6.76595,0.24658 10.09014,-0.4182 0.004,-7.4e-4 0.007,-0.002 0.0107,-0.002 0.28795,-0.0577 0.57517,-0.11986 0.8618,-0.18543 0.033,-0.008 0.0659,-0.0151 0.0989,-0.0227 0.27712,-0.0643 0.55354,-0.13228 0.82924,-0.20398 0.0167,-0.004 0.0335,-0.008 0.0503,-0.0128 0.89976,-0.2355 1.79135,-0.51002 2.67242,-0.82419 0.0163,-0.006 0.0325,-0.012 0.0488,-0.0177 0.26631,-0.0955 0.53163,-0.19475 0.79588,-0.2974 0.0425,-0.0165 0.0848,-0.0333 0.12719,-0.05 0.24558,-0.0966 0.49012,-0.19611 0.73379,-0.29893 0.0412,-0.0174 0.0825,-0.0344 0.12368,-0.052 0.27586,-0.11772 0.5507,-0.23876 0.82392,-0.36448 3.35578,-1.54432 6.50556,-3.69273 9.29009,-6.44438 l 2.6e-4,-2.5e-4 2.5e-4,-2.6e-4 c 0.0467,-0.0467 0.0949,-0.0913 0.14171,-0.13812 0.0324,-0.0324 0.0632,-0.0658 0.0956,-0.0981 2.76547,-2.78829 4.92434,-5.94473 6.47591,-9.30861 0.12599,-0.27313 0.24727,-0.54788 0.36524,-0.82366 0.0188,-0.044 0.0369,-0.0882 0.0555,-0.13219 0.0992,-0.23483 0.19571,-0.47039 0.28916,-0.707 0.0217,-0.0549 0.0432,-0.10978 0.0645,-0.16473 0.0969,-0.24929 0.19066,-0.49948 0.28113,-0.75058 0.0101,-0.0278 0.0203,-0.0555 0.0303,-0.0834 0.31419,-0.87958 0.5889,-1.76967 0.82469,-2.66791 2e-4,-0.003 10e-4,-0.005 0.002,-0.007 10e-4,-0.004 0.002,-0.009 0.003,-0.013 0.0744,-0.28422 0.14466,-0.56927 0.21124,-0.85501 0.007,-0.0294 0.0137,-0.0587 0.0205,-0.0881 0.0656,-0.28518 0.12739,-0.57104 0.18518,-0.85754 10e-4,-0.005 0.002,-0.0104 0.003,-0.0155 0.66781,-3.31951 0.81137,-6.72152 0.43097,-10.07736 -0.0229,-0.20238 -0.0481,-0.4045 -0.0749,-0.60651 -0.004,-0.0329 -0.009,-0.0658 -0.0131,-0.0986 -0.027,-0.19913 -0.0559,-0.39804 -0.0866,-0.59674 -10e-4,-0.006 -0.002,-0.0129 -0.003,-0.0193 -0.002,-0.0104 -0.003,-0.0207 -0.005,-0.0311 -0.0327,-0.20928 -0.0671,-0.41829 -0.10393,-0.62704 -0.15244,-0.86518 -0.34013,-1.72542 -0.56322,-2.57859 -0.003,-0.011 -0.006,-0.0221 -0.009,-0.0331 -0.001,-0.005 -0.003,-0.0102 -0.004,-0.0153 -0.0496,-0.18837 -0.10097,-0.37633 -0.15397,-0.56396 -0.0123,-0.0434 -0.0247,-0.0868 -0.0371,-0.13023 -0.0519,-0.18075 -0.10515,-0.36115 -0.16024,-0.54118 -0.0115,-0.0376 -0.0235,-0.0751 -0.0351,-0.11269 -0.0585,-0.18857 -0.11806,-0.37678 -0.18004,-0.56448 2.6e-4,-2.6e-4 -6.4e-4,-0.002 -7.7e-4,-0.003 -0.002,-0.005 -0.003,-0.01 -0.005,-0.0143 -0.19626,-0.59332 -0.41081,-1.18192 -0.64226,-1.76558 -0.0194,-0.0489 -0.038,-0.0979 -0.0577,-0.14676 -0.0598,-0.14874 -0.12185,-0.29673 -0.18397,-0.44477 -0.0323,-0.077 -0.0643,-0.1541 -0.0973,-0.23091 -0.0625,-0.1457 -0.12605,-0.29107 -0.19074,-0.43603 -0.0317,-0.0711 -0.064,-0.14197 -0.0962,-0.21289 -0.0684,-0.15033 -0.13745,-0.30052 -0.20827,-0.45005 -0.033,-0.0697 -0.067,-0.13908 -0.10049,-0.20861 -0.0691,-0.14319 -0.13822,-0.28639 -0.20951,-0.42878 -0.0377,-0.0753 -0.0767,-0.15011 -0.11503,-0.22516 -0.17471,-0.34219 -0.3544,-0.68236 -0.54205,-1.0196 -0.0726,-0.13055 -0.14769,-0.26019 -0.22226,-0.38996 -0.0495,-0.0862 -0.0985,-0.17264 -0.14885,-0.25848 -0.067,-0.1141 -0.13548,-0.22766 -0.20397,-0.34113 -0.0637,-0.10565 -0.12788,-0.211 -0.19294,-0.31608 -0.0663,-0.10701 -0.13333,-0.21369 -0.20095,-0.32009 -0.0686,-0.108 -0.13821,-0.2155 -0.20821,-0.32285 -0.0641,-0.0983 -0.1282,-0.19635 -0.19344,-0.29405 -0.0862,-0.12918 -0.17404,-0.25775 -0.26233,-0.38599 -0.0535,-0.0777 -0.10613,-0.15564 -0.16036,-0.23293 -0.12023,-0.17143 -0.24263,-0.3416 -0.36653,-0.51121 -0.0266,-0.0364 -0.0525,-0.073 -0.0792,-0.10921 -0.002,-0.002 -0.003,-0.004 -0.004,-0.007 -0.14666,-0.19892 -0.29645,-0.39653 -0.44821,-0.59289 -0.0544,-0.0703 -0.11032,-0.13989 -0.16535,-0.2099 -0.1076,-0.13689 -0.21585,-0.27346 -0.32594,-0.40903 -0.0559,-0.0688 -0.1126,-0.1372 -0.1691,-0.20565 -0.1072,-0.12982 -0.21544,-0.25894 -0.32494,-0.38751 -0.0664,-0.078 -0.13312,-0.15593 -0.20042,-0.23345 -0.10304,-0.11874 -0.20734,-0.23684 -0.31239,-0.35445 -0.0698,-0.0782 -0.13971,-0.15629 -0.21043,-0.23396 -0.11537,-0.12672 -0.2325,-0.25239 -0.35022,-0.37775 -0.0607,-0.0646 -0.12058,-0.12965 -0.18187,-0.19389 -0.18007,-0.1887 -0.36213,-0.37615 -0.54761,-0.56163 L 265.8037,193.88077 215.94662,144.02368 Z m -42.82123,-1.8131 c -1.38557,-1.38557 -3.61555,-1.38651 -4.99997,-0.002 -1.3844,1.38441 -1.38347,3.6144 0.002,4.99997 l 3.11703,3.11702 c 1.38557,1.38558 3.61556,1.38651 4.99996,0.002 1.38442,-1.38441 1.38348,-3.61439 -0.002,-4.99996 z m 11.54323,11.54323 c -1.38557,-1.38557 -3.61555,-1.38651 -4.99997,-0.002 -1.3844,1.38441 -1.38347,3.6144 0.002,4.99997 l 3.11703,3.11702 c 1.38557,1.38558 3.61556,1.38651 4.99996,0.002 1.38442,-1.38441 1.38348,-3.61439 -0.002,-4.99996 z"
       inkscape:export-xdpi="90"
       inkscape:export-ydpi="90" />
    <path
       id="path870"
       style="fill:#afdde9;stroke:none;stroke-width:0.264583;stroke-linecap:round;stroke-linejoin:round;stroke-dasharray:0.264583, 0.529166"
       d="m 241.94737,180.27556 c -1.59298,-1.59298 -3.99006,-1.76101 -5.37447,-0.3766 -1.38441,1.3844 -1.21637,3.78149 0.3766,5.37447 l 32.19204,32.19204 a 25.308353,25.281875 45 0 0 -0.26017,-0.004 l 1.48925,1.48924 c 1.38557,1.38558 1.38651,3.61556 0.002,4.99997 -1.38441,1.38441 -3.6144,1.38347 -4.99997,-0.002 l -5.07145,-5.07145 a 25.308353,25.281875 45 0 0 -0.18928,0.067 l -13.40097,-13.40097 c -1.38557,-1.38557 -3.61555,-1.38651 -4.99996,-0.002 -1.38441,1.38441 -1.38347,3.6144 0.002,4.99997 l 11.88591,11.88592 a 25.308353,25.281875 45 0 0 -0.14668,0.10961 l 3.07494,3.07494 c 1.38557,1.38557 1.38651,3.61555 0.002,4.99997 -1.38441,1.3844 -3.6144,1.38347 -4.99997,-0.002 l -3.07519,-3.0752 a 25.308353,25.281875 45 0 0 -0.10961,0.1467 L 221.4433,200.77963 c -1.59298,-1.59298 -3.99006,-1.76102 -5.37447,-0.3766 -1.38441,1.3844 -1.21637,3.78149 0.3766,5.37447 l 28.41694,28.41694 a 25.308353,25.281875 45 0 0 -0.067,0.18926 l 5.07121,5.07121 c 1.38557,1.38558 1.38651,3.61556 0.002,4.99997 -1.38441,1.38441 -3.6144,1.38347 -4.99997,-0.002 l -1.48924,-1.48924 a 25.308353,25.281875 45 0 0 0.004,0.26016 l -10.40869,-10.40869 c -1.59298,-1.59299 -3.99006,-1.76102 -5.37448,-0.37661 -1.3844,1.3844 -1.21637,3.78149 0.37661,5.37447 l 21.90909,21.90909 c 0.0923,0.0923 0.18745,0.17955 0.28481,0.26229 a 25.308353,25.281875 45 0 0 0.62577,0.64829 25.308353,25.281875 45 0 0 35.77249,0.0185 25.308353,25.281875 45 0 0 -0.0185,-35.7725 25.308353,25.281875 45 0 0 -0.6493,-0.62677 c -0.0825,-0.097 -0.16929,-0.19182 -0.26128,-0.28381 z m -19.09257,1.4115 c -1.38558,-1.38558 -3.61556,-1.38652 -4.99997,-0.002 -1.38441,1.3844 -1.38347,3.61439 0.002,4.99996 l 3.11702,3.11702 c 1.38558,1.38558 3.61556,1.38651 4.99997,0.002 1.38441,-1.38441 1.38347,-3.61439 -0.002,-4.99996 z m 12.05651,12.05651 c -1.38557,-1.38557 -3.61556,-1.38651 -4.99997,-0.002 -1.38441,1.3844 -1.38347,3.61439 0.002,4.99996 l 3.11677,3.11678 c 1.38558,1.38557 3.61556,1.3865 4.99997,0.002 1.38441,-1.38442 1.38347,-3.6144 -0.002,-4.99997 z m -35.88628,5.12186 c -1.38557,-1.38557 -3.61555,-1.38651 -4.99996,-0.002 -1.38441,1.38441 -1.38347,3.6144 0.002,4.99997 l 10.80349,10.80349 c 1.38557,1.38557 3.61556,1.38651 4.99996,0.002 1.38442,-1.38441 1.38348,-3.61439 -0.002,-4.99997 z m 22.30815,22.30814 c -1.38557,-1.38557 -3.61556,-1.38651 -4.99997,-0.002 -1.38441,1.38441 -1.38347,3.6144 0.002,4.99997 l 3.11677,3.11677 c 1.38558,1.38558 3.61556,1.38651 4.99997,0.002 1.38441,-1.38441 1.38347,-3.61439 -0.002,-4.99996 z"
       inkscape:export-xdpi="90"
       inkscape:export-ydpi="90" />
    <path
       sodipodi:type="star"
       style="opacity:1;fill:#ffffff;fill-opacity:1;stroke:none;stroke-width:0.523163;stroke-linecap:round;stroke-linejoin:round;stroke-dasharray:0.523163, 1.04632999999999998"
       id="path936"
       sodipodi:sides="4"
       sodipodi:cx="140.95947"
       sodipodi:cy="37.284271"
       sodipodi:r1="23.051817"
       sodipodi:r2="7.7684622"
       sodipodi:arg1="0.015775576"
       sodipodi:arg2="0.80117374"
       inkscape:flatsided="false"
       inkscape:rounded="0"
       inkscape:randomized="0.005"
       d="m 163.94808,37.618177 -17.68345,5.206445 -5.71563,17.485576 -5.11659,-17.707073 -17.5624,-5.579204 17.79103,-5.403838 5.65867,-17.487913 5.30004,17.770001 z"
       inkscape:transform-center-x="0.027129274"
       inkscape:transform-center-y="-0.011084344"
       transform="matrix(0.5057354,0,0,0.5057391,24.171974,95.53704)"
       inkscape:export-xdpi="90"
       inkscape:export-ydpi="90" />
    <path
       sodipodi:type="star"
       style="opacity:1;fill:#ffffff;fill-opacity:1;stroke:none;stroke-width:0.792156;stroke-linecap:round;stroke-linejoin:round;stroke-dasharray:0.792156, 1.58431999999999995"
       id="path942"
       sodipodi:sides="4"
       sodipodi:cx="140.95947"
       sodipodi:cy="37.284271"
       sodipodi:r1="23.051817"
       sodipodi:r2="7.7684622"
       sodipodi:arg1="0.015775576"
       sodipodi:arg2="0.80117374"
       inkscape:flatsided="false"
       inkscape:rounded="0"
       inkscape:randomized="0.005"
       d="m 163.94808,37.618177 -17.68345,5.206445 -5.71563,17.485576 -5.11659,-17.707073 -17.5624,-5.579204 17.79103,-5.403838 5.65867,-17.487913 5.30004,17.770001 z"
       inkscape:transform-center-x="0.017916625"
       inkscape:transform-center-y="-0.0073204328"
       transform="matrix(0.33400109,0,0,0.33400608,41.953466,239.78899)"
       inkscape:export-xdpi="90"
       inkscape:export-ydpi="90" />
    <path
       sodipodi:type="star"
       style="opacity:1;fill:#ffffff;fill-opacity:1;stroke:none;stroke-width:1.38132;stroke-linecap:round;stroke-linejoin:round;stroke-dasharray:1.38132, 2.76264000000000021"
       id="path938"
       sodipodi:sides="4"
       sodipodi:cx="140.95947"
       sodipodi:cy="37.284271"
       sodipodi:r1="23.051817"
       sodipodi:r2="7.7684622"
       sodipodi:arg1="0.015775576"
       sodipodi:arg2="0.80117374"
       inkscape:flatsided="false"
       inkscape:rounded="0"
       inkscape:randomized="0.005"
       d="m 163.94808,37.618177 -17.68345,5.206445 -5.71563,17.485576 -5.11659,-17.707073 -17.5624,-5.579204 17.79103,-5.403838 5.65867,-17.487913 5.30004,17.770001 z"
       inkscape:transform-center-x="0.010276491"
       inkscape:transform-center-y="-0.0041940645"
       transform="matrix(0.19154031,0,0,0.1915481,180.10661,278.30104)"
       inkscape:export-xdpi="90"
       inkscape:export-ydpi="90" />
    <path
       sodipodi:type="star"
       style="opacity:1;fill:#ffffff;fill-opacity:1;stroke:none;stroke-width:0.703369;stroke-linecap:round;stroke-linejoin:round;stroke-dasharray:0.703369, 1.40674000000000010"
       id="path940"
       sodipodi:sides="4"
       sodipodi:cx="140.95947"
       sodipodi:cy="37.284271"
       sodipodi:r1="23.051817"
       sodipodi:r2="7.7684622"
       sodipodi:arg1="0.015775576"
       sodipodi:arg2="0.80117374"
       inkscape:flatsided="false"
       inkscape:rounded="0"
       inkscape:randomized="0.005"
       d="m 163.94808,37.618177 -17.68345,5.206445 -5.71563,17.485576 -5.11659,-17.707073 -17.5624,-5.579204 17.79103,-5.403838 5.65867,-17.487913 5.30004,17.770001 z"
       inkscape:transform-center-x="0.020179171"
       inkscape:transform-center-y="-0.0082426728"
       transform="matrix(0.37616285,0,0,0.37616752,271.56016,106.22707)"
       inkscape:export-xdpi="90"
       inkscape:export-ydpi="90" />
    <path
       sodipodi:type="star"
       style="opacity:1;fill:#ffffff;fill-opacity:1;stroke:none;stroke-width:1.04347;stroke-linecap:round;stroke-linejoin:round;stroke-dasharray:1.04347, 2.08694999999999986"
       id="path934"
       sodipodi:sides="4"
       sodipodi:cx="140.95947"
       sodipodi:cy="37.284271"
       sodipodi:r1="23.051817"
       sodipodi:r2="7.7684622"
       sodipodi:arg1="0.015775576"
       sodipodi:arg2="0.80117374"
       inkscape:flatsided="false"
       inkscape:rounded="0"
       inkscape:randomized="0.005"
       d="m 163.94808,37.618177 -17.68345,5.206445 -5.71563,17.485576 -5.11659,-17.707073 -17.5624,-5.579204 17.79103,-5.403838 5.65867,-17.487913 5.30004,17.770001 z"
       inkscape:transform-center-x="0.013599786"
       inkscape:transform-center-y="-0.0055598912"
       transform="matrix(0.25355678,0,0,0.25356322,343.40187,225.93843)"
       inkscape:export-xdpi="90"
       inkscape:export-ydpi="90" />
  </g>
</svg>
