<?xml version="1.0" encoding="UTF-8" standalone="no"?>
<svg
   xmlns:dc="http://purl.org/dc/elements/1.1/"
   xmlns:cc="http://creativecommons.org/ns#"
   xmlns:rdf="http://www.w3.org/1999/02/22-rdf-syntax-ns#"
   xmlns:svg="http://www.w3.org/2000/svg"
   xmlns="http://www.w3.org/2000/svg"
   xmlns:sodipodi="http://sodipodi.sourceforge.net/DTD/sodipodi-0.dtd"
   xmlns:inkscape="http://www.inkscape.org/namespaces/inkscape"
   width="451.2612mm"
   height="451.2612mm"
   viewBox="0 0 451.2612 451.2612"
   version="1.1"
   id="svg2095"
   inkscape:version="1.0.2 (1.0.2+r75+1)"
   sodipodi:docname="drawing5(PhnPool).svg">
  <defs
     id="defs2089" />
  <sodipodi:namedview
     id="base"
     pagecolor="#333333"
     bordercolor="#666666"
     borderopacity="1.0"
     inkscape:pageopacity="0"
     inkscape:pageshadow="2"
     inkscape:zoom="0.35355339"
     inkscape:cx="363.28184"
     inkscape:cy="813.29959"
     inkscape:document-units="mm"
     inkscape:current-layer="layer2"
     inkscape:document-rotation="0"
     showgrid="false"
     fit-margin-top="0"
     fit-margin-left="0"
     fit-margin-right="0"
     fit-margin-bottom="0"
     showborder="false"
     inkscape:snap-global="false"
     inkscape:object-paths="true"
     inkscape:window-width="1920"
     inkscape:window-height="1025"
     inkscape:window-x="0"
     inkscape:window-y="27"
     inkscape:window-maximized="0" />
  <metadata
     id="metadata2092">
    <rdf:RDF>
      <cc:Work
         rdf:about="">
        <dc:format>image/svg+xml</dc:format>
        <dc:type
           rdf:resource="http://purl.org/dc/dcmitype/StillImage" />
        <dc:title />
      </cc:Work>
    </rdf:RDF>
  </metadata>
  <g
     inkscape:label="Canvas"
     inkscape:groupmode="layer"
     id="layer1"
     transform="translate(15.6306,77.1306)"
     sodipodi:insensitive="true">
    <rect
       style="opacity:1;fill:#ffffff;stroke-width:0.0894292;stroke-linecap:round;stroke-linejoin:round"
       id="rect2110"
       width="451.2612"
       height="451.2612"
       x="-15.6306"
       y="-77.1306"
       ry="1.1328373" />
  </g>
  <g
     inkscape:groupmode="layer"
     id="layer2"
     inkscape:label="Layer 1">
    <path
       id="path845"
       style="fill:#c1c6cf;fill-opacity:1;stroke-width:1.5875"
       d="m 160.80526,114.8462 c -3.34782,0.0474 -6.5275,0.75325 -8.93392,2.1426 l -118.636912,68.49498 -8.655204,-2.04132 v 9.94281 l 0.004,8e-4 c -0.165738,2.518 1.609449,5.21213 5.236778,7.30636 L 277.99685,343.97748 c 6.35133,3.66697 15.89265,4.06208 21.39303,0.88641 l 123.58705,-71.35282 c 2.47758,-1.43043 3.69555,-3.3347 3.71051,-5.33021 l 0.005,-0.002 v -10.64313 l -5.75106,0.57628 -0.65398,2.38285 -247.02271,-142.6193 c -3.57261,-2.06265 -8.15479,-3.08991 -12.45913,-3.02901 z"
       inkscape:export-xdpi="127.695"
       inkscape:export-ydpi="127.695" />
    <path
       id="rect836"
       style="fill:#f2f2f2;fill-opacity:1;stroke-width:1.58749"
       d="M 28.284332,177.74997 151.87106,106.39713 c 5.5004,-3.17565 15.04171,-2.78015 21.39302,0.88678 l 248.17657,143.28481 c 6.35132,3.66694 7.03635,9.1756 1.53595,12.35125 l -123.58673,71.35284 c -5.5004,3.17565 -15.04169,2.78016 -21.39302,-0.88678 L 29.820287,190.10122 c -6.351317,-3.66692 -7.036353,-9.1756 -1.535955,-12.35125 z"
       inkscape:export-xdpi="127.695"
       inkscape:export-ydpi="127.695" />
    <rect
       style="fill:#afdde9;fill-opacity:1;stroke-width:1.70588"
       id="rect834"
       width="148.96841"
       height="251.21977"
       x="-164.55139"
       y="215.85007"
       transform="matrix(0.8660254,-0.50000001,0.8660254,0.50000001,0,0)"
       inkscape:export-xdpi="127.695"
       inkscape:export-ydpi="127.695" />
    <rect
       style="fill:#00ccff;fill-opacity:1;stroke-width:1.70586"
       id="rect832"
       width="140.69417"
       height="234.5564"
       x="-160.41464"
       y="224.92383"
       transform="matrix(0.8660254,-0.50000001,0.8660254,0.50000001,0,0)"
       inkscape:export-xdpi="127.695"
       inkscape:export-ydpi="127.695" />
    <rect
       style="fill:#c1c6cf;fill-opacity:1;stroke-width:1.70588"
       id="rect841"
       width="45.406357"
       height="4.5434103"
       x="-112.77035"
       y="199.43178"
       ry="2.2717052"
       transform="matrix(0.8660254,-0.50000001,0.8660254,0.50000001,0,0)"
       inkscape:export-xdpi="127.695"
       inkscape:export-ydpi="127.695" />
    <rect
       style="fill:#c1c6cf;fill-opacity:1;stroke-width:1.70588"
       id="rect843"
       width="50.388241"
       height="27.979364"
       x="-115.26129"
       y="471.96146"
       ry="13.989682"
       transform="matrix(0.8660254,-0.50000001,0.8660254,0.50000001,0,0)"
       inkscape:export-xdpi="127.695"
       inkscape:export-ydpi="127.695" />
    <path
       id="path858"
       style="fill:#0081c2;fill-opacity:1;stroke:none;stroke-width:0.264583px;stroke-linecap:butt;stroke-linejoin:miter;stroke-opacity:1"
       d="m 177.71133,122.32215 -121.844925,70.34708 9.847021,5.68508 111.997904,-64.662 z"
       inkscape:export-xdpi="127.695"
       inkscape:export-ydpi="127.695" />
    <path
       id="path865"
       style="fill:#33bbff;fill-opacity:1;stroke:none;stroke-width:0.264583px;stroke-linecap:butt;stroke-linejoin:miter;stroke-opacity:1"
       d="m 177.71133,122.32215 -0.13818,0.0793 0.13818,11.29087 193.28489,111.59278 9.84702,-5.68509 z"
       inkscape:export-xdpi="127.695"
       inkscape:export-ydpi="127.695" />
    <rect
       style="fill:#5cdeff;fill-opacity:1;stroke:#33d6ff;stroke-width:0.284313;stroke-miterlimit:4;stroke-dasharray:none;stroke-opacity:1"
       id="rect870"
       width="96.493042"
       height="160.86708"
       x="-160.41425"
       y="298.61285"
       transform="matrix(0.8660254,-0.50000001,0.8660254,0.50000001,0,0)"
       inkscape:export-xdpi="127.695"
       inkscape:export-ydpi="127.695" />
    <path
       id="rect890"
       style="color:#000000;font-style:normal;font-variant:normal;font-weight:normal;font-stretch:normal;font-size:medium;line-height:normal;font-family:sans-serif;font-variant-ligatures:normal;font-variant-position:normal;font-variant-caps:normal;font-variant-numeric:normal;font-variant-alternates:normal;font-variant-east-asian:normal;font-feature-settings:normal;font-variation-settings:normal;text-indent:0;text-align:start;text-decoration:none;text-decoration-line:none;text-decoration-style:solid;text-decoration-color:#000000;letter-spacing:normal;word-spacing:normal;text-transform:none;writing-mode:lr-tb;direction:ltr;text-orientation:mixed;dominant-baseline:auto;baseline-shift:baseline;text-anchor:start;white-space:normal;shape-padding:0;shape-margin:0;inline-size:0;clip-rule:nonzero;display:inline;overflow:visible;visibility:visible;isolation:auto;mix-blend-mode:normal;color-interpolation:sRGB;color-interpolation-filters:linearRGB;solid-color:#000000;solid-opacity:1;vector-effect:none;fill:#999999;fill-opacity:1;fill-rule:nonzero;stroke:none;stroke-width:0.999997;stroke-linecap:round;stroke-linejoin:round;stroke-miterlimit:4;stroke-dasharray:none;stroke-dashoffset:0;stroke-opacity:1;color-rendering:auto;image-rendering:auto;shape-rendering:auto;text-rendering:auto;enable-background:accumulate;stop-color:#000000"
       d="m 219.94221,135.419 c -2.71298,0 -5.0946,1.54406 -6.69683,3.78297 -1.60222,2.23888 -2.52666,5.2085 -2.52666,8.46309 v 32.95099 a 1.6161595,1.6161595 0 0 0 1.61688,1.61475 1.6161595,1.6161595 0 0 0 1.61475,-1.61475 v -4.82043 l 11.13215,6.78942 v 5.97712 a 1.6161595,1.6161595 0 0 0 1.61756,1.61405 1.6161595,1.6161595 0 0 0 1.61405,-1.61405 v -6.85043 a 1.7957306,1.7957306 0 0 0 0,-0.67131 v -7.94821 a 1.7957306,1.7957306 0 0 0 0,-0.67131 v -7.94752 a 1.7957306,1.7957306 0 0 0 0,-0.67129 v -8.19162 c 0,-2.63384 0.77524,-4.97976 1.92268,-6.58319 1.14746,-1.60345 2.56827,-2.43056 4.06916,-2.43056 1.50093,0 2.91961,0.82711 4.06707,2.43056 1.14745,1.60343 1.922,3.94935 1.922,6.58319 v 0.18027 a 1.6161595,1.6161595 0 0 0 1.61754,1.61686 1.6161595,1.6161595 0 0 0 1.61407,-1.61686 v -0.18027 c 0,-3.25457 -0.92164,-6.22349 -2.52385,-8.4624 -1.60223,-2.23892 -3.98383,-3.78367 -6.69683,-3.78367 -1.9984,0 -3.81724,0.83966 -5.27775,2.17593 -0.3104,-2.41436 -1.14354,-4.59772 -2.38917,-6.33836 -1.60223,-2.23893 -3.98384,-3.78297 -6.69682,-3.78297 z m 0,3.23161 c 1.50091,0 2.9217,0.82781 4.06914,2.43124 1.14746,1.60343 1.91989,3.94936 1.91989,6.58321 v 0.18026 a 1.6161595,1.6161595 0 0 0 0.55557,1.21984 c -0.90293,1.90914 -1.40431,4.14921 -1.40431,6.54531 v 5.52888 l -11.13215,-6.79012 v -6.68417 c 0,-2.63385 0.77453,-4.97978 1.92198,-6.58321 1.14746,-1.60343 2.56897,-2.43124 4.06988,-2.43124 z m -5.99186,19.90668 11.13215,6.78661 v 4.41428 l -11.13215,-6.79012 z m 0,8.61881 11.13215,6.78731 v 4.41429 l -11.13215,-6.78802 z"
       inkscape:export-xdpi="127.695"
       inkscape:export-ydpi="127.695" />
    <rect
       style="fill:none;fill-opacity:1;stroke:none;stroke-width:2.38126;stroke-linecap:round;stroke-linejoin:round;stroke-miterlimit:4;stroke-dasharray:none;stroke-opacity:1"
       id="rect897"
       width="9.1837349"
       height="6.543529"
       x="221.63087"
       y="141.9315"
       ry="3.2717645"
       inkscape:export-xdpi="127.695"
       inkscape:export-ydpi="127.695" />
    <path
       id="path1683"
       style="color:#000000;font-style:normal;font-variant:normal;font-weight:normal;font-stretch:normal;font-size:medium;line-height:normal;font-family:sans-serif;font-variant-ligatures:normal;font-variant-position:normal;font-variant-caps:normal;font-variant-numeric:normal;font-variant-alternates:normal;font-variant-east-asian:normal;font-feature-settings:normal;font-variation-settings:normal;text-indent:0;text-align:start;text-decoration:none;text-decoration-line:none;text-decoration-style:solid;text-decoration-color:#000000;letter-spacing:normal;word-spacing:normal;text-transform:none;writing-mode:lr-tb;direction:ltr;text-orientation:mixed;dominant-baseline:auto;baseline-shift:baseline;text-anchor:start;white-space:normal;shape-padding:0;shape-margin:0;inline-size:0;clip-rule:nonzero;display:inline;overflow:visible;visibility:visible;isolation:auto;mix-blend-mode:normal;color-interpolation:sRGB;color-interpolation-filters:linearRGB;solid-color:#000000;solid-opacity:1;vector-effect:none;fill:#0081c2;fill-opacity:1;fill-rule:nonzero;stroke:none;stroke-width:0.999998;stroke-linecap:round;stroke-linejoin:round;stroke-miterlimit:4;stroke-dasharray:none;stroke-dashoffset:0;stroke-opacity:1;color-rendering:auto;image-rendering:auto;shape-rendering:auto;text-rendering:auto;enable-background:accumulate;stop-color:#000000"
       d="m 210.71872,152.74883 v 27.86718 a 1.6161595,1.6161595 0 0 0 1.61656,1.615 1.6161595,1.6161595 0 0 0 1.615,-1.615 v -4.82066 l 11.13227,6.78975 v 5.97715 a 1.6161595,1.6161595 0 0 0 1.61736,1.61422 1.6161595,1.6161595 0 0 0 1.61421,-1.61422 v -6.85021 a 1.7957305,1.7957305 0 0 0 0,-0.67128 v -7.94859 a 1.7957305,1.7957305 0 0 0 0,-0.67128 v -7.94781 a 1.7957305,1.7957305 0 0 0 0,-0.67128 v -0.89425 l -3.23157,-1.86546 v 0.0974 l -2.98504,-1.8207 z m 3.23156,5.80835 11.13227,6.7866 v 4.41476 L 213.95028,162.968 Z m 0,8.61909 11.13227,6.78739 v 4.41396 l -11.13227,-6.78818 z"
       inkscape:export-xdpi="127.695"
       inkscape:export-ydpi="127.695" />
    <g
       id="g2072"
       transform="matrix(1.5193072,0,0,1.5193072,-139.84295,-112.92316)"
       inkscape:export-xdpi="127.695"
       inkscape:export-ydpi="127.695"
       style="stroke-width:0.658195">
      <path
         id="circle1696"
         style="opacity:1;fill:#ac2f92;fill-opacity:1;stroke:none;stroke-width:1.74147;stroke-linecap:round;stroke-linejoin:round;stroke-miterlimit:4;stroke-dasharray:none;stroke-opacity:1"
         d="m 182.96767,206.38798 v 4.17917 0.002 c -4.2e-4,0.0204 -5.3e-4,0.0407 -5.3e-4,0.061 2.8e-4,3.56425 6.20949,6.45356 13.86878,6.45353 7.65918,-5e-5 13.86822,-2.88933 13.8685,-6.45353 3e-5,-0.0203 -1.3e-4,-0.0407 -5.2e-4,-0.061 v -0.002 -4.17917 c -9.34898,4.77942 -18.59914,4.99896 -27.7362,0 z m 4.39757,4.18069 h 18.94134 c -2.45144,1.22048 -5.88067,1.91328 -9.47067,1.91335 -3.59001,-7e-5 -7.01923,-0.69287 -9.47067,-1.91335 z"
         sodipodi:nodetypes="ccccsssccccccc" />
      <path
         id="path1692"
         style="opacity:1;fill:#de87cd;fill-opacity:1;stroke:none;stroke-width:1.74147;stroke-linecap:round;stroke-linejoin:round;stroke-miterlimit:4;stroke-dasharray:none;stroke-opacity:1"
         d="m 196.76078,199.99512 a 13.868674,6.4537842 0 0 0 -13.79365,6.45385 13.868674,6.4537842 0 0 0 13.86878,6.45384 13.868674,6.4537842 0 0 0 13.8685,-6.45384 13.868674,6.4537842 0 0 0 -13.8685,-6.45385 13.868674,6.4537842 0 0 0 -0.0751,0 z m 0.0219,2.84669 a 7.7514991,3.607158 0 0 1 0.0532,0 7.7514991,3.607158 0 0 1 7.7514,3.60716 7.7514991,3.607158 0 0 1 -7.7514,3.60715 7.7514991,3.607158 0 0 1 -7.75166,-3.60715 7.7514991,3.607158 0 0 1 7.69848,-3.60716 z" />
      <path
         id="circle1698"
         style="opacity:1;fill:#ac2f92;fill-opacity:1;stroke:none;stroke-width:1.74147;stroke-linecap:round;stroke-linejoin:round;stroke-miterlimit:4;stroke-dasharray:none;stroke-opacity:1"
         d="m 196.83591,202.84173 a 7.7514991,3.6071583 0 0 0 -7.75168,3.60724 7.7514991,3.6071583 0 0 0 0.34353,1.06149 7.7514991,3.6071583 0 0 1 7.40815,-2.54552 7.7514991,3.6071583 0 0 1 7.40814,2.54539 7.7514991,3.6071583 0 0 0 0.34326,-1.06136 7.7514991,3.6071583 0 0 0 -7.7514,-3.60724 z" />
      <path
         style="color:#000000;font-style:normal;font-variant:normal;font-weight:normal;font-stretch:normal;font-size:medium;line-height:normal;font-family:sans-serif;font-variant-ligatures:normal;font-variant-position:normal;font-variant-caps:normal;font-variant-numeric:normal;font-variant-alternates:normal;font-variant-east-asian:normal;font-feature-settings:normal;font-variation-settings:normal;text-indent:0;text-align:start;text-decoration:none;text-decoration-line:none;text-decoration-style:solid;text-decoration-color:#000000;letter-spacing:normal;word-spacing:normal;text-transform:none;writing-mode:lr-tb;direction:ltr;text-orientation:mixed;dominant-baseline:auto;baseline-shift:baseline;text-anchor:start;white-space:normal;shape-padding:0;shape-margin:0;inline-size:0;clip-rule:nonzero;display:inline;overflow:visible;visibility:visible;opacity:1;isolation:auto;mix-blend-mode:normal;color-interpolation:sRGB;color-interpolation-filters:linearRGB;solid-color:#000000;solid-opacity:1;vector-effect:none;fill:#ffffff;fill-opacity:1;fill-rule:nonzero;stroke:none;stroke-width:0.174147;stroke-linecap:round;stroke-linejoin:round;stroke-miterlimit:4;stroke-dasharray:none;stroke-dashoffset:0;stroke-opacity:1;color-rendering:auto;image-rendering:auto;shape-rendering:auto;text-rendering:auto;enable-background:accumulate;stop-color:#000000;stop-opacity:1"
         d="m 186.40566,206.05593 a 0.350928,0.39029142 0 0 0 -0.35148,0.38969 c 0,7.9e-4 0,0.002 0,0.002 0,0.78429 0.35266,1.511 0.9264,2.12832 0.57375,0.61731 1.37381,1.14685 2.34656,1.58953 1.94551,0.88536 4.58957,1.4194 7.50877,1.41939 2.91916,0 5.56301,-0.53403 7.50849,-1.41939 0.97273,-0.44268 1.77281,-0.97222 2.34656,-1.58953 0.57372,-0.6173 0.92641,-1.34404 0.92639,-2.12832 0,-7.8e-4 0,-0.002 0,-0.002 a 0.350928,0.39029142 0 0 0 -0.35148,-0.38969 0.350928,0.39029142 0 0 0 -0.35038,0.3909 c 0,4.9e-4 0,8e-4 0,0.002 1e-5,0.52653 -0.23066,1.04875 -0.71255,1.56727 -0.4819,0.51848 -1.20965,1.01157 -2.12449,1.4279 -1.82967,0.83267 -4.40099,1.36146 -7.24254,1.36146 -2.84161,2e-5 -5.41312,-0.52879 -7.24282,-1.36146 -0.91486,-0.41633 -1.64258,-0.90941 -2.12451,-1.4279 -0.48189,-0.51852 -0.71254,-1.04074 -0.71253,-1.56727 0,-4.8e-4 0,-7.9e-4 0,-0.002 a 0.350928,0.39029142 0 0 0 -0.35039,-0.3909 z"
         id="path1727" />
    </g>
    <g
       id="g2078"
       transform="matrix(1.5193072,0,0,1.5193072,-137.19575,-105.27484)"
       inkscape:export-xdpi="127.695"
       inkscape:export-ydpi="127.695"
       style="stroke-width:0.658195">
      <path
         id="path1734"
         style="opacity:1;fill:#e46519;fill-opacity:1;stroke:none;stroke-width:1.74147;stroke-linecap:round;stroke-linejoin:round;stroke-miterlimit:4;stroke-dasharray:none;stroke-opacity:1"
         d="m 254.59452,208.76379 v 4.17918 0.002 c -4.1e-4,0.0204 -5.3e-4,0.0407 -5.3e-4,0.061 2.9e-4,3.56426 6.20949,6.45357 13.86878,6.45354 7.65918,-5e-5 13.86822,-2.88933 13.86851,-6.45354 2e-5,-0.0203 -1.4e-4,-0.0407 -5.3e-4,-0.061 v -0.002 -4.17918 c -9.34898,4.77943 -18.59914,4.99896 -27.7362,0 z m 4.39758,4.18069 h 18.94134 c -2.45145,1.22048 -5.88068,1.91328 -9.47068,1.91335 -3.59,-7e-5 -7.01923,-0.69287 -9.47066,-1.91335 z"
         sodipodi:nodetypes="ccccsssccccccc" />
      <path
         id="path1736"
         style="opacity:1;fill:#ee9966;fill-opacity:1;stroke:none;stroke-width:1.74147;stroke-linecap:round;stroke-linejoin:round;stroke-miterlimit:4;stroke-dasharray:none;stroke-opacity:1"
         d="m 268.38763,202.37094 a 13.868674,6.4537842 0 0 0 -13.79365,6.45384 13.868674,6.4537842 0 0 0 13.86878,6.45385 13.868674,6.4537842 0 0 0 13.86851,-6.45385 13.868674,6.4537842 0 0 0 -13.86851,-6.45384 13.868674,6.4537842 0 0 0 -0.0751,0 z m 0.0219,2.84669 a 7.7514991,3.607158 0 0 1 0.0532,0 7.7514991,3.607158 0 0 1 7.75139,3.60715 7.7514991,3.607158 0 0 1 -7.75139,3.60716 7.7514991,3.607158 0 0 1 -7.75167,-3.60716 7.7514991,3.607158 0 0 1 7.69848,-3.60715 z" />
      <path
         id="path1738"
         style="opacity:1;fill:#e46519;fill-opacity:1;stroke:none;stroke-width:1.74147;stroke-linecap:round;stroke-linejoin:round;stroke-miterlimit:4;stroke-dasharray:none;stroke-opacity:1"
         d="m 268.46276,205.21755 a 7.7514991,3.6071583 0 0 0 -7.75167,3.60723 7.7514991,3.6071583 0 0 0 0.34352,1.06149 7.7514991,3.6071583 0 0 1 7.40815,-2.54551 7.7514991,3.6071583 0 0 1 7.40814,2.54539 7.7514991,3.6071583 0 0 0 0.34326,-1.06137 7.7514991,3.6071583 0 0 0 -7.7514,-3.60723 z" />
      <path
         style="color:#000000;font-style:normal;font-variant:normal;font-weight:normal;font-stretch:normal;font-size:medium;line-height:normal;font-family:sans-serif;font-variant-ligatures:normal;font-variant-position:normal;font-variant-caps:normal;font-variant-numeric:normal;font-variant-alternates:normal;font-variant-east-asian:normal;font-feature-settings:normal;font-variation-settings:normal;text-indent:0;text-align:start;text-decoration:none;text-decoration-line:none;text-decoration-style:solid;text-decoration-color:#000000;letter-spacing:normal;word-spacing:normal;text-transform:none;writing-mode:lr-tb;direction:ltr;text-orientation:mixed;dominant-baseline:auto;baseline-shift:baseline;text-anchor:start;white-space:normal;shape-padding:0;shape-margin:0;inline-size:0;clip-rule:nonzero;display:inline;overflow:visible;visibility:visible;opacity:1;isolation:auto;mix-blend-mode:normal;color-interpolation:sRGB;color-interpolation-filters:linearRGB;solid-color:#000000;solid-opacity:1;vector-effect:none;fill:#ffffff;fill-opacity:1;fill-rule:nonzero;stroke:none;stroke-width:0.174147;stroke-linecap:round;stroke-linejoin:round;stroke-miterlimit:4;stroke-dasharray:none;stroke-dashoffset:0;stroke-opacity:1;color-rendering:auto;image-rendering:auto;shape-rendering:auto;text-rendering:auto;enable-background:accumulate;stop-color:#000000;stop-opacity:1"
         d="m 258.03251,208.43174 a 0.350928,0.39029142 0 0 0 -0.35148,0.3897 c 0,7.9e-4 0,0.002 0,0.002 0,0.78429 0.35266,1.511 0.92641,2.12832 0.57374,0.61731 1.3738,1.14684 2.34656,1.58952 1.94551,0.88536 4.58956,1.4194 7.50876,1.41939 2.91917,0 5.56302,-0.53403 7.50849,-1.41939 0.97273,-0.44268 1.77282,-0.97221 2.34656,-1.58952 0.57372,-0.61731 0.92641,-1.34404 0.92639,-2.12832 0,-7.8e-4 0,-0.002 0,-0.002 a 0.350928,0.39029142 0 0 0 -0.35148,-0.3897 0.350928,0.39029142 0 0 0 -0.35038,0.39091 c 0,4.8e-4 0,7.9e-4 0,0.002 10e-6,0.52653 -0.23065,1.04876 -0.71254,1.56727 -0.4819,0.51849 -1.20966,1.01158 -2.12449,1.42791 -1.82967,0.83267 -4.401,1.36146 -7.24255,1.36146 -2.84161,1e-5 -5.41312,-0.52879 -7.24282,-1.36146 -0.91486,-0.41633 -1.64258,-0.90941 -2.1245,-1.42791 -0.48189,-0.51851 -0.71255,-1.04074 -0.71254,-1.56727 0,-4.8e-4 0,-7.9e-4 0,-0.002 a 0.350928,0.39029142 0 0 0 -0.35039,-0.39091 z"
         id="path1740" />
    </g>
    <g
       id="g2066"
       transform="matrix(0.65147598,0,0,0.65147598,9.488639,183.94818)"
       style="stroke-width:1.53498"
       inkscape:export-xdpi="127.695"
       inkscape:export-ydpi="127.695">
      <path
         style="color:#000000;font-style:normal;font-variant:normal;font-weight:normal;font-stretch:normal;font-size:medium;line-height:normal;font-family:sans-serif;font-variant-ligatures:normal;font-variant-position:normal;font-variant-caps:normal;font-variant-numeric:normal;font-variant-alternates:normal;font-variant-east-asian:normal;font-feature-settings:normal;font-variation-settings:normal;text-indent:0;text-align:start;text-decoration:none;text-decoration-line:none;text-decoration-style:solid;text-decoration-color:#000000;letter-spacing:normal;word-spacing:normal;text-transform:none;writing-mode:lr-tb;direction:ltr;text-orientation:mixed;dominant-baseline:auto;baseline-shift:baseline;text-anchor:start;white-space:normal;shape-padding:0;shape-margin:0;inline-size:0;clip-rule:nonzero;display:inline;overflow:visible;visibility:visible;opacity:1;isolation:auto;mix-blend-mode:normal;color-interpolation:sRGB;color-interpolation-filters:linearRGB;solid-color:#000000;solid-opacity:1;vector-effect:none;fill:#f2f2f2;fill-opacity:1;fill-rule:nonzero;stroke:none;stroke-width:1.53498;stroke-linecap:butt;stroke-linejoin:miter;stroke-miterlimit:4;stroke-dasharray:none;stroke-dashoffset:0;stroke-opacity:1;color-rendering:auto;image-rendering:auto;shape-rendering:auto;text-rendering:auto;enable-background:accumulate;stop-color:#000000;stop-opacity:1"
         d="m 361.67403,94.706895 c -14.52993,0 -26.31309,11.780615 -26.31309,26.310535 0,14.52993 11.78316,26.31309 26.31309,26.31309 14.52992,0 26.31053,-11.78316 26.31053,-26.31309 0,-8.99667 -4.51776,-16.93764 -11.40699,-21.682389 v -5.24e-4 c -0.004,-0.0026 -0.008,-0.0047 -0.0112,-0.0071 -3.84818,-2.647491 -8.43522,-4.297159 -13.38894,-4.576502 v -0.0011 c -0.003,-9.7e-5 -0.003,5.24e-4 -0.005,5.24e-4 -0.49644,-0.0279 -0.99583,-0.04347 -1.49926,-0.04347 z"
         id="path1881" />
      <path
         id="path2053"
         style="color:#000000;font-style:normal;font-variant:normal;font-weight:normal;font-stretch:normal;font-size:medium;line-height:normal;font-family:sans-serif;font-variant-ligatures:normal;font-variant-position:normal;font-variant-caps:normal;font-variant-numeric:normal;font-variant-alternates:normal;font-variant-east-asian:normal;font-feature-settings:normal;font-variation-settings:normal;text-indent:0;text-align:start;text-decoration:none;text-decoration-line:none;text-decoration-style:solid;text-decoration-color:#000000;letter-spacing:normal;word-spacing:normal;text-transform:none;writing-mode:lr-tb;direction:ltr;text-orientation:mixed;dominant-baseline:auto;baseline-shift:baseline;text-anchor:start;white-space:normal;shape-padding:0;shape-margin:0;inline-size:0;clip-rule:nonzero;display:inline;overflow:visible;visibility:visible;opacity:1;isolation:auto;mix-blend-mode:normal;color-interpolation:sRGB;color-interpolation-filters:linearRGB;solid-color:#000000;solid-opacity:1;vector-effect:none;fill:#ff5555;fill-opacity:1;fill-rule:nonzero;stroke:none;stroke-width:5.80149;stroke-linecap:butt;stroke-linejoin:miter;stroke-miterlimit:4;stroke-dasharray:none;stroke-dashoffset:0;stroke-opacity:1;color-rendering:auto;image-rendering:auto;shape-rendering:auto;text-rendering:auto;enable-background:accumulate;stop-color:#000000;stop-opacity:1"
         d="m 1372.7949,358.06445 c -0.056,0.0869 -0.1414,0.25675 -0.2324,0.50782 -0.1917,0.52727 -0.4064,1.3671 -0.6367,2.47851 -0.4605,2.22282 -0.9805,5.54289 -1.5254,9.82813 -0.1603,1.26094 -0.3285,2.77539 -0.4942,4.20117 7.186,0.4982 13.7621,2.7913 19.0411,6.34765 4.0748,-2.63516 7.9862,-4.75147 11.6757,-6.3125 4.7583,-2.01314 9.1673,-3.11761 13.0899,-3.23437 1.7271,-0.0514 3.354,0.0996 4.8809,0.4375 -13.4923,-8.20647 -29.093,-13.28717 -45.7989,-14.25391 z m -46.7402,9.72657 c -1.6232,0.0102 -3.1067,0.34815 -4.4336,1.02734 l -0.01,-0.0215 c -16.3373,8.37775 -30.0509,21.14386 -39.5918,36.74023 8.1854,-8.59462 21.7448,-13.15081 38.1367,-13.65234 1.2871,-0.039 2.5909,-0.0535 3.9122,-0.043 3.511,0.0278 7.1489,0.24842 10.8711,0.6289 2.6937,-5.28225 7.2672,-9.74502 13.0214,-12.84375 -4.5079,-4.07371 -8.795,-7.20265 -12.6894,-9.20312 -3.4165,-1.75496 -6.5115,-2.64991 -9.2168,-2.63281 z m 74.7519,29.42773 c 0.5509,2.01881 0.8516,4.11692 0.8516,6.27539 0,3.63331 -0.8327,7.09959 -2.334,10.28906 20.8044,11.62099 37.4848,26.13041 48.0899,40.86719 9.5945,13.33254 14.2319,26.88451 12.3711,38.62305 4.3058,-11.13265 6.6718,-23.23133 6.6718,-35.88477 0,-10.07991 -1.5048,-19.80602 -4.291,-28.97461 l -0.025,0.008 c -2.8485,-9.35862 -10.0769,-17.02726 -20.6699,-22.42969 -10.5788,-5.3952 -24.5043,-8.5159 -40.6641,-8.77344 z m -67.3515,13.72656 c -10.0604,4.25537 -19.5742,9.39688 -28.084,15.29883 -13.303,9.22626 -23.1448,19.59248 -28.9316,29.98047 -5.7869,10.38798 -7.5185,20.78201 -4.67,30.14062 l -0.022,0.006 c 6.0579,19.93013 18.1982,37.20827 34.2637,49.67383 -2.8057,-4.26592 -4.0577,-10.32812 -3.8066,-17.74609 0.3495,-10.3272 3.5874,-23.32942 9.6523,-37.98242 7.6807,-18.55678 19.1712,-37.96541 32.4063,-55.25391 -5.1509,-3.66021 -8.98,-8.54473 -10.8086,-14.11719 z m 51.4316,16.9668 c -5.2389,2.60165 -11.3763,4.09766 -17.9297,4.09766 -0.6463,0 -1.2879,-0.0182 -1.9258,-0.0469 -1.698,25.05443 -3.1114,52.09459 -3.8984,75.16602 -0.5274,15.46043 -0.7368,27.96268 -0.6328,36.60156 0.052,4.31942 0.1889,7.67662 0.3926,9.9375 0.1018,1.13042 0.2194,1.98749 0.3496,2.5332 0.018,0.0735 0.031,0.0884 0.049,0.15039 17.6854,0.95115 35.6488,-2.55707 51.25,-10.52929 3.3931,-1.87554 5.5346,-5.94517 6.4317,-11.87696 0.9188,-6.07622 0.5137,-14.04554 -1.1543,-23.31836 -3.3361,-18.54565 -11.6827,-42.31475 -24.2461,-66.85937 -2.8134,-5.49633 -5.7233,-10.7841 -8.6856,-15.85547 z"
         transform="scale(0.26458333)" />
    </g>
  </g>
</svg>
