<?xml version="1.0" encoding="UTF-8" standalone="no"?>
<svg
   xmlns:dc="http://purl.org/dc/elements/1.1/"
   xmlns:cc="http://creativecommons.org/ns#"
   xmlns:rdf="http://www.w3.org/1999/02/22-rdf-syntax-ns#"
   xmlns:svg="http://www.w3.org/2000/svg"
   xmlns="http://www.w3.org/2000/svg"
   xmlns:sodipodi="http://sodipodi.sourceforge.net/DTD/sodipodi-0.dtd"
   xmlns:inkscape="http://www.inkscape.org/namespaces/inkscape"
   width="451.2612mm"
   height="451.2612mm"
   viewBox="0 0 451.2612 451.2612"
   version="1.1"
   id="svg2095"
   inkscape:version="1.0.2 (1.0.2+r75+1)"
   sodipodi:docname="drawing3(BlstOff).svg">
  <defs
     id="defs2089">
    <filter
       inkscape:collect="always"
       style="color-interpolation-filters:sRGB"
       id="filter872"
       x="-2.9999997e-05"
       width="1.00006"
       y="-2.9999997e-05"
       height="1.00006">
      <feGaussianBlur
         inkscape:collect="always"
         stdDeviation="0.00040814892"
         id="feGaussianBlur874" />
    </filter>
  </defs>
  <sodipodi:namedview
     id="base"
     pagecolor="#333333"
     bordercolor="#666666"
     borderopacity="1.0"
     inkscape:pageopacity="0"
     inkscape:pageshadow="2"
     inkscape:zoom="0.24748737"
     inkscape:cx="474.59729"
     inkscape:cy="729.70698"
     inkscape:document-units="mm"
     inkscape:current-layer="layer2"
     inkscape:document-rotation="0"
     showgrid="false"
     fit-margin-top="0"
     fit-margin-left="0"
     fit-margin-right="0"
     fit-margin-bottom="0"
     showborder="false"
     inkscape:window-width="1920"
     inkscape:window-height="1025"
     inkscape:window-x="0"
     inkscape:window-y="27"
     inkscape:window-maximized="0" />
  <metadata
     id="metadata2092">
    <rdf:RDF>
      <cc:Work
         rdf:about="">
        <dc:format>image/svg+xml</dc:format>
        <dc:type
           rdf:resource="http://purl.org/dc/dcmitype/StillImage" />
        <dc:title />
      </cc:Work>
    </rdf:RDF>
  </metadata>
  <g
     inkscape:label="Canvas"
     inkscape:groupmode="layer"
     id="layer1"
     transform="translate(15.6306,77.1306)"
     sodipodi:insensitive="true">
    <rect
       style="opacity:1;fill:#ffffff;stroke-width:0.0894292;stroke-linecap:round;stroke-linejoin:round"
       id="rect2110"
       width="451.2612"
       height="451.2612"
       x="-15.6306"
       y="-77.1306"
       ry="1.1328373" />
  </g>
  <g
     inkscape:groupmode="layer"
     id="layer2"
     inkscape:label="Layer 1">
    <path
       id="path1109"
       style="fill:#330080;fill-opacity:1;stroke:none;stroke-width:0.529168;stroke-linecap:round;stroke-linejoin:round"
       d="m 258.01266,153.43889 c -2.36833,16.8285 -3.68157,34.94963 -3.68163,53.51503 1.7e-4,38.0395 5.22035,72.95924 13.59757,99.24816 1.9174,-0.37378 3.86803,-0.57176 5.82293,-0.57179 3.74793,-1.1e-4 7.46019,0.77519 10.96613,2.09899 2.9061,-6.80553 7.50417,-12.89032 13.335,-17.45132 7.39493,-5.78443 16.69203,-9.02437 26.07634,-9.242 a 5.6665722,5.6665725 0 0 1 0.98167,-0.0861 c 11.49764,-8e-5 22.9246,4.73231 31.05472,12.86238 3.69343,3.69348 6.67651,8.07115 8.84231,12.82302 a 140.36468,140.36469 0 0 0 0.98754,-16.61844 140.36468,140.36469 0 0 0 -107.98258,-136.57797 z m -65.33302,0.13577 a 140.36468,140.36469 0 0 0 -107.413675,136.44232 140.36468,140.36469 0 0 0 3.464313,30.99054 c 1.577728,-2.69782 3.461433,-5.21394 5.642054,-7.46685 6.368888,-6.58006 15.007038,-10.92202 24.088168,-12.10681 14.65279,-1.91173 29.98643,5.04924 38.62655,16.94954 4.37378,-2.28094 9.26119,-3.58786 14.1956,-3.58829 2.7164,6e-5 5.42607,0.38349 8.04449,1.10273 0.52326,-1.4056 1.0397,-2.83658 1.54323,-4.30594 9.27186,-27.05566 15.15971,-64.61172 15.1598,-105.80625 -9e-5,-18.06587 -1.18801,-35.72954 -3.35053,-52.21099 z"
       inkscape:export-xdpi="127.69537"
       inkscape:export-ydpi="127.69537" />
    <path
       id="path1202"
       style="fill:#5599ff;fill-opacity:1;stroke:none;stroke-width:6.16478;stroke-linecap:butt;stroke-linejoin:miter;stroke-miterlimit:4;stroke-dasharray:none"
       d="m 214.69873,139.07263 -2.85605,15.5682 -8.27639,-0.0113 c 2.12775,16.67512 3.26006,34.44887 3.26009,52.65006 -1.1e-4,42.26412 -6.10822,82.75256 -16.94954,112.35269 1.55727,0.98798 3.02762,2.11268 4.37886,3.36949 3.43741,3.19718 5.97527,7.25445 7.64626,11.64005 0.14367,-0.0768 0.28737,-0.15355 0.43175,-0.22892 1.96094,-1.02524 3.98662,-1.92556 6.05925,-2.69996 6.24376,-29.81174 12.87973,-75.84457 12.8799,-124.52514 -2e-4,-23.97744 -1.48836,-47.18067 -3.78229,-68.11614 z m 22.66016,0 c -2.58215,21.26699 -4.29119,44.96642 -4.29136,69.46687 5.1e-4,46.17515 7.10462,89.89068 13.02284,119.57447 1.44168,-5.02096 4.09476,-9.68871 7.79211,-13.38606 2.20097,-2.20095 4.74561,-4.04646 7.50185,-5.49037 -8.82187,-28.19099 -13.66147,-63.89586 -13.66172,-100.79142 1.4e-4,-18.64454 1.23474,-36.82439 3.54597,-53.81404 l -7.65501,0.008 -2.85456,-15.56818 z"
       inkscape:export-xdpi="127.69537"
       inkscape:export-ydpi="127.69537" />
    <path
       id="circle884"
       style="fill:#5599ff;fill-opacity:1;stroke:none;stroke-width:0.70855;stroke-linecap:round;stroke-linejoin:round;filter:url(#filter872)"
       d="m 963.41211,811.94727 a 51.218457,51.218457 0 0 1 0.60156,0.0293 51.218457,51.218457 0 0 0 -0.60156,-0.0293 z m 0.60156,0.0293 a 51.218457,51.218457 0 0 1 0.60156,0.0371 51.218457,51.218457 0 0 0 -0.60156,-0.0371 z m 0.60156,0.0371 a 51.218457,51.218457 0 0 1 0.59961,0.043 51.218457,51.218457 0 0 0 -0.59961,-0.043 z m 0.59961,0.043 a 51.218457,51.218457 0 0 1 0.59961,0.0508 51.218457,51.218457 0 0 0 -0.59961,-0.0508 z m 0.59961,0.0508 a 51.218457,51.218457 0 0 1 0.59961,0.0586 51.218457,51.218457 0 0 0 -0.59961,-0.0586 z m 0.59961,0.0586 a 51.218457,51.218457 0 0 1 0.53125,0.0566 51.218457,51.218457 0 0 0 -0.53125,-0.0566 z m 0.61914,0.0664 a 51.218457,51.218457 0 0 1 0.53711,0.0664 51.218457,51.218457 0 0 0 -0.53711,-0.0664 z m 1.80664,0.24024 a 51.218457,51.218457 0 0 1 0.46875,0.0742 51.218457,51.218457 0 0 0 -0.46875,-0.0742 z m 2.33204,0.4082 a 51.218457,51.218457 0 0 1 0.58984,0.12109 51.218457,51.218457 0 0 0 -0.58984,-0.12109 z m 0.58984,0.12109 a 51.218457,51.218457 0 0 1 0.58789,0.12696 51.218457,51.218457 0 0 0 -0.58789,-0.12696 z m 0.58789,0.12696 a 51.218457,51.218457 0 0 1 0.58789,0.13476 51.218457,51.218457 0 0 0 -0.58789,-0.13476 z m 0.58789,0.13476 a 51.218457,51.218457 0 0 1 0.41211,0.0996 51.218457,51.218457 0 0 0 -0.41211,-0.0996 z m 1.18164,0.29297 a 51.218457,51.218457 0 0 1 0.56641,0.15234 51.218457,51.218457 0 0 0 -0.56641,-0.15234 z m 0.56641,0.15234 a 51.218457,51.218457 0 0 1 0.58007,0.16211 51.218457,51.218457 0 0 0 -0.58007,-0.16211 z m 0.58007,0.16211 a 51.218457,51.218457 0 0 1 0.53516,0.15625 51.218457,51.218457 0 0 0 -0.53516,-0.15625 z m 0.5918,0.17188 a 51.218457,51.218457 0 0 1 0.48828,0.15039 51.218457,51.218457 0 0 0 -0.48828,-0.15039 z m -30.64258,0.41211 a 51.218457,51.218457 0 0 0 -1.13867,0.38867 51.218457,51.218457 0 0 1 1.13867,-0.38867 z m -1.13867,0.38867 a 51.218457,51.218457 0 0 0 -1.1289,0.41602 51.218457,51.218457 0 0 1 1.1289,-0.41602 z m 34.62305,0.14063 a 51.218457,51.218457 0 0 1 0.56445,0.20898 51.218457,51.218457 0 0 0 -0.56445,-0.20898 z m 0.56445,0.20898 a 51.218457,51.218457 0 0 1 0.5625,0.21484 51.218457,51.218457 0 0 0 -0.5625,-0.21484 z m 0.5625,0.21484 a 51.218457,51.218457 0 0 1 0.5586,0.22266 51.218457,51.218457 0 0 0 -0.5586,-0.22266 z m 0.5586,0.22266 a 51.218457,51.218457 0 0 1 0.55664,0.22852 51.218457,51.218457 0 0 0 -0.55664,-0.22852 z m 0.55664,0.22852 a 51.218457,51.218457 0 0 1 0.55468,0.23632 51.218457,51.218457 0 0 0 -0.55468,-0.23632 z m 0.55468,0.23632 a 51.218457,51.218457 0 0 1 0.4961,0.2168 51.218457,51.218457 0 0 0 -0.4961,-0.2168 z m -40.22461,-0.16406 a 51.218457,51.218457 0 0 0 -1.10351,0.48047 51.218457,51.218457 0 0 1 1.10351,-0.48047 z m -1.10351,0.48047 a 51.218457,51.218457 0 0 0 -1.0918,0.50781 51.218457,51.218457 0 0 1 1.0918,-0.50781 z m 42.42773,0.17383 a 51.218457,51.218457 0 0 1 0.54492,0.2539 51.218457,51.218457 0 0 0 -0.54492,-0.2539 z m 0.54492,0.2539 a 51.218457,51.218457 0 0 1 0.54102,0.26172 51.218457,51.218457 0 0 0 -0.54102,-0.26172 z m 0.54102,0.26172 a 51.218457,51.218457 0 0 1 0.54102,0.26758 51.218457,51.218457 0 0 0 -0.54102,-0.26758 z m 0.54102,0.26758 a 51.218457,51.218457 0 0 1 0.53515,0.27344 51.218457,51.218457 0 0 0 -0.53515,-0.27344 z m -45.6875,-0.18555 a 51.218457,51.218457 0 0 0 -1.07227,0.54493 51.218457,51.218457 0 0 1 1.07227,-0.54493 z m 47.28515,1.02539 a 51.218457,51.218457 0 0 1 0.48828,0.26954 51.218457,51.218457 0 0 0 -0.48828,-0.26954 z m 1.04688,0.58985 a 51.218457,51.218457 0 0 1 0.51953,0.30469 51.218457,51.218457 0 0 0 -0.51953,-0.30469 z m 0.51953,0.30469 a 51.218457,51.218457 0 0 1 1.53516,0.95117 51.218457,51.218457 0 0 0 -1.53516,-0.95117 z m 1.53516,0.95117 a 51.218457,51.218457 0 0 1 0.5039,0.32812 51.218457,51.218457 0 0 0 -0.5039,-0.32812 z m 0.5039,0.32812 a 51.218457,51.218457 0 0 1 0.5,0.33594 51.218457,51.218457 0 0 0 -0.5,-0.33594 z m 0.5,0.33594 a 51.218457,51.218457 0 0 1 0.4961,0.33984 51.218457,51.218457 0 0 0 -0.4961,-0.33984 z m 0.4961,0.33984 a 51.218457,51.218457 0 0 1 0.43554,0.30664 51.218457,51.218457 0 0 0 -0.43554,-0.30664 z m -56.09766,-1.54687 a 51.218457,51.218457 0 0 0 -1.01758,0.64453 51.218457,51.218457 0 0 1 1.01758,-0.64453 z m 28.86914,0.38672 a 51.218457,51.218457 0 0 0 -51.21875,51.21875 51.218457,51.218457 0 0 0 0.69141,8.3789 51.218457,51.218457 0 0 1 -2.69141,-16.3789 51.218457,51.218457 0 0 1 0.94531,-9.79688 34.006712,34.006712 0 0 0 -12.49609,-2.3789 34.006712,34.006712 0 0 0 -34.00586,34.00586 34.006712,34.006712 0 0 0 0.0645,2.07031 64.488399,64.488399 0 0 1 27.39258,52.75 64.488399,64.488399 0 0 1 -1.33398,13.04883 64.488399,64.488399 0 0 0 0.0547,-2.65625 64.488399,64.488399 0 0 0 -64.48828,-64.48828 64.488399,64.488399 0 0 0 -63.1543,51.45117 64.488399,64.488399 0 0 1 21.37305,-45.35938 33.461303,33.461303 0 0 0 -32.32422,-24.8125 33.461303,33.461303 0 0 0 -15.77343,3.95313 47.15533,47.145483 0.0039477 0 1 -2.32227,35.54101 47.15533,47.145483 0.0039477 0 0 -5.2832,-30.56054 47.15533,47.145483 0.0039477 0 0 -64.10743,-18.36719 47.15533,47.145483 0.0039477 0 0 -16.0371,14.59765 187.94733,187.94733 0 0 0 179.51171,132.28122 187.94733,187.94733 0 0 0 183.8496,-148.91598 51.218457,51.218457 0 0 0 -1.1308,-5.45313 51.218457,51.218457 0 0 1 1.0098,4.70508 51.218457,51.218457 0 0 0 -48.52547,-34.83398 z m 47.51564,30.1289 a 51.218457,51.218457 0 0 0 -0.4922,-1.73828 51.218457,51.218457 0 0 1 0.4922,1.73828 z m -0.4922,-1.73828 a 51.218457,51.218457 0 0 0 -0.75,-2.28515 51.218457,51.218457 0 0 1 0.75,2.28515 z m -0.75,-2.28515 a 51.218457,51.218457 0 0 0 -0.416,-1.13086 51.218457,51.218457 0 0 1 0.416,1.13086 z m -0.416,-1.13086 a 51.218457,51.218457 0 0 0 -0.4414,-1.11914 51.218457,51.218457 0 0 1 0.4414,1.11914 z m -0.4414,-1.11914 a 51.218457,51.218457 0 0 0 -0.9629,-2.20703 51.218457,51.218457 0 0 1 0.9629,2.20703 z m -0.9629,-2.20703 a 51.218457,51.218457 0 0 0 -0.2559,-0.54297 51.218457,51.218457 0 0 1 0.2559,0.54297 z m -0.2559,-0.54297 a 51.218457,51.218457 0 0 0 -0.2636,-0.54297 51.218457,51.218457 0 0 1 0.2636,0.54297 z m -0.2636,-0.54297 a 51.218457,51.218457 0 0 0 -0.2696,-0.53711 51.218457,51.218457 0 0 1 0.2696,0.53711 z m -0.2696,-0.53711 a 51.218457,51.218457 0 0 0 -0.2754,-0.53516 51.218457,51.218457 0 0 1 0.2754,0.53516 z m -0.2754,-0.53516 a 51.218457,51.218457 0 0 0 -0.2812,-0.53125 51.218457,51.218457 0 0 1 0.2812,0.53125 z m -0.2812,-0.53125 a 51.218457,51.218457 0 0 0 -1.1895,-2.09375 51.218457,51.218457 0 0 1 1.1895,2.09375 z m -1.1895,-2.09375 a 51.218457,51.218457 0 0 0 -1.623,-2.5332 51.218457,51.218457 0 0 1 1.623,2.5332 z m -1.623,-2.5332 a 51.218457,51.218457 0 0 0 -1.0449,-1.47266 51.218457,51.218457 0 0 1 1.0449,1.47266 z m -1.0449,-1.47266 a 51.218457,51.218457 0 0 0 -0.3594,-0.48242 51.218457,51.218457 0 0 1 0.3594,0.48242 z m -0.3594,-0.48242 a 51.218457,51.218457 0 0 0 -0.3652,-0.47851 51.218457,51.218457 0 0 1 0.3652,0.47851 z m -0.3652,-0.47851 a 51.218457,51.218457 0 0 0 -1.129,-1.40821 51.218457,51.218457 0 0 1 1.129,1.40821 z m -69.41411,-10.97461 a 51.218457,51.218457 0 0 0 -0.98438,0.6914 51.218457,51.218457 0 0 1 0.98438,-0.6914 z m 59.09765,0.93554 a 51.218457,51.218457 0 0 1 0.48438,0.35742 51.218457,51.218457 0 0 0 -0.48438,-0.35742 z m 0.48438,0.35742 a 51.218457,51.218457 0 0 1 0.47851,0.36329 51.218457,51.218457 0 0 0 -0.47851,-0.36329 z m 0.47851,0.36329 a 51.218457,51.218457 0 0 1 0.47657,0.36914 51.218457,51.218457 0 0 0 -0.47657,-0.36914 z m 0.47657,0.36914 a 51.218457,51.218457 0 0 1 0.4707,0.375 51.218457,51.218457 0 0 0 -0.4707,-0.375 z m 0.4707,0.375 a 51.218457,51.218457 0 0 1 0.41602,0.33593 51.218457,51.218457 0 0 0 -0.41602,-0.33593 z m 0.48633,0.39648 a 51.218457,51.218457 0 0 1 1.35156,1.15625 51.218457,51.218457 0 0 0 -1.35156,-1.15625 z m 1.35156,1.15625 a 51.218457,51.218457 0 0 1 0.89258,0.80859 51.218457,51.218457 0 0 0 -0.89258,-0.80859 z m 0.89258,0.80859 a 51.218457,51.218457 0 0 1 0.4375,0.41211 51.218457,51.218457 0 0 0 -0.4375,-0.41211 z m 0.4375,0.41211 a 51.218457,51.218457 0 0 1 2.52734,2.57813 51.218457,51.218457 0 0 0 -2.52734,-2.57813 z m 2.52734,2.57813 a 51.218457,51.218457 0 0 1 0.4043,0.44726 51.218457,51.218457 0 0 0 -0.4043,-0.44726 z m 0.4043,0.44726 a 51.218457,51.218457 0 0 1 0.77149,0.88477 51.218457,51.218457 0 0 0 -0.77149,-0.88477 z m -71.41016,-4.91406 a 51.218457,51.218457 0 0 0 -0.90625,0.79102 51.218457,51.218457 0 0 1 0.90625,-0.79102 z m -8.52148,9.28906 a 51.218457,51.218457 0 0 0 -0.6875,0.98829 51.218457,51.218457 0 0 1 0.6875,-0.98829 z m -1.02149,1.48829 a 51.218457,51.218457 0 0 0 -0.65234,1.01171 51.218457,51.218457 0 0 1 0.65234,-1.01171 z m -18.13671,10.98632 a 34.006712,34.006712 0 0 1 0.95117,0.24219 34.006712,34.006712 0 0 0 -0.95117,-0.24219 z m 1.42382,0.37305 a 34.006712,34.006712 0 0 1 1.29102,0.39648 34.006712,34.006712 0 0 0 -1.29102,-0.39648 z m 1.86914,0.5918 a 34.006712,34.006712 0 0 1 0.92188,0.33594 34.006712,34.006712 0 0 0 -0.92188,-0.33594 z m 0.92188,0.33594 a 34.006712,34.006712 0 0 1 0.91016,0.36132 34.006712,34.006712 0 0 0 -0.91016,-0.36132 z m 0.91211,0.36328 a 34.006712,34.006712 0 0 1 0.89844,0.38672 34.006712,34.006712 0 0 0 -0.89844,-0.38672 z m 0.90039,0.38867 a 34.006712,34.006712 0 0 1 0.88867,0.41406 34.006712,34.006712 0 0 0 -0.88867,-0.41406 z m 0.88867,0.41406 a 34.006712,34.006712 0 0 1 2.16602,1.14649 34.006712,34.006712 0 0 0 -2.16602,-1.14649 z m 4.87695,0.13086 a 51.218457,51.218457 0 0 0 -0.33007,1.15625 51.218457,51.218457 0 0 1 0.33007,-1.15625 z m -1.86914,1.51758 a 34.006712,34.006712 0 0 1 1.23633,0.79883 51.218457,51.218457 0 0 1 0,-0.002 34.006712,34.006712 0 0 0 -1.23633,-0.79687 z m -155.67773,7.23437 a 33.461303,33.461303 0 0 0 -0.34961,0.008 33.461303,33.461303 0 0 1 0.34961,-0.008 z m -4.86914,0.45118 a 33.461303,33.461303 0 0 0 -0.31445,0.0547 33.461303,33.461303 0 0 1 0.31445,-0.0547 z m -4.64063,1.12304 a 33.461303,33.461303 0 0 0 -0.38476,0.125 33.461303,33.461303 0 0 1 0.38476,-0.125 z m -2.31836,0.83399 a 33.461303,33.461303 0 0 0 -0.3457,0.14062 33.461303,33.461303 0 0 1 0.3457,-0.14062 z m -2.73242,1.24414 a 33.461303,33.461303 0 0 0 -0.25586,0.13086 33.461303,33.461303 0 0 1 0.25586,-0.13086 z m -2.36914,1.33203 a 33.461303,33.461303 0 0 0 -0.82031,0.52344 33.461303,33.461303 0 0 1 0.82031,-0.52344 z m -1.625,1.07031 a 33.461303,33.461303 0 0 0 -0.75,0.54102 33.461303,33.461303 0 0 1 0.75,-0.54102 z m 85.79492,12.24609 a 64.488399,64.488399 0 0 0 -0.96289,0.0918 64.488399,64.488399 0 0 1 0.96289,-0.0918 z m -2.08007,0.21485 a 64.488399,64.488399 0 0 0 -1.09961,0.14062 64.488399,64.488399 0 0 1 1.09961,-0.14062 z m 16.125,0.10156 a 64.488399,64.488399 0 0 1 1.14843,0.16406 64.488399,64.488399 0 0 0 -1.14843,-0.16406 z m 4.70898,0.80273 a 64.488399,64.488399 0 0 1 1.0332,0.22461 64.488399,64.488399 0 0 0 -1.0332,-0.22461 z m 1.83984,0.41211 a 64.488399,64.488399 0 0 1 1.78516,0.45508 64.488399,64.488399 0 0 0 -1.78516,-0.45508 z m 2.14063,0.55274 a 64.488399,64.488399 0 0 1 0.92969,0.26367 64.488399,64.488399 0 0 0 -0.92969,-0.26367 z m 2.41211,0.71484 a 64.488399,64.488399 0 0 1 0.64062,0.20899 64.488399,64.488399 0 0 0 -0.64062,-0.20899 z m -39.5,0.11719 a 64.488399,64.488399 0 0 0 -1.875,0.64062 64.488399,64.488399 0 0 1 1.875,-0.64062 z m -1.95899,0.67188 a 64.488399,64.488399 0 0 0 -1.16015,0.42968 64.488399,64.488399 0 0 1 1.16015,-0.42968 z m -1.32812,0.49609 a 64.488399,64.488399 0 0 0 -2.39649,0.98047 64.488399,64.488399 0 0 1 2.39649,-0.98047 z m 54.26367,0.32226 a 34.006712,34.006712 0 0 0 0.043,0.98047 34.006712,34.006712 0 0 1 -0.043,-0.98047 z m 0.043,0.98047 a 34.006712,34.006712 0 0 0 0.11719,1.46485 34.006712,34.006712 0 0 1 -0.11719,-1.46485 z m 0.11719,1.46485 a 34.006712,34.006712 0 0 0 0.11328,0.97461 34.006712,34.006712 0 0 1 -0.11328,-0.97461 z m 0.11328,0.97461 a 34.006712,34.006712 0 0 0 0.006,0.0508 64.488399,64.488399 0 0 1 0.002,0.002 34.006712,34.006712 0 0 1 -0.008,-0.0527 z m -58.16797,-2.21289 a 64.488399,64.488399 0 0 0 -1.82227,0.86914 64.488399,64.488399 0 0 1 1.82227,-0.86914 z m -3.02539,1.48242 a 64.488399,64.488399 0 0 0 -0.006,0.002 64.488399,64.488399 0 0 0 -0.59766,0.31641 64.488399,64.488399 0 0 0 -3.50781,2.02539 64.488399,64.488399 0 0 0 -0.57227,0.35937 64.488399,64.488399 0 0 0 -0.5664,0.36524 64.488399,64.488399 0 0 1 5.25,-3.06836 z m -6.9336,4.19922 a 64.488399,64.488399 0 0 0 -1.64257,1.18164 64.488399,64.488399 0 0 1 1.64257,-1.18164 z m -1.64453,1.18164 a 64.488399,64.488399 0 0 0 -0.33984,0.2539 64.488399,64.488399 0 0 0 0,0.002 64.488399,64.488399 0 0 1 0.33984,-0.25586 z"
       transform="matrix(0.74682995,0,0,0.74682995,-394.35718,-319.73184)"
       inkscape:export-xdpi="127.69537"
       inkscape:export-ydpi="127.69537" />
    <path
       sodipodi:type="star"
       style="fill:#ffffff;fill-opacity:1;stroke:none;stroke-width:1.00012;stroke-linecap:butt;stroke-linejoin:miter;stroke-miterlimit:4;stroke-dasharray:none"
       id="path1114"
       sodipodi:sides="4"
       sodipodi:cx="111.13145"
       sodipodi:cy="271.30627"
       sodipodi:r1="11.406107"
       sodipodi:r2="4.5738487"
       sodipodi:arg1="1.5707963"
       sodipodi:arg2="2.3561945"
       inkscape:flatsided="false"
       inkscape:rounded="0"
       inkscape:randomized="0"
       inkscape:transform-center-x="7.8035312e-06"
       inkscape:transform-center-y="-1.298358e-06"
       inkscape:export-xdpi="127.69537"
       inkscape:export-ydpi="127.69537"
       d="m 111.13145,282.71238 -3.2342,-8.17191 -8.17191,-3.2342 8.17191,-3.2342 3.2342,-8.1719 3.2342,8.1719 8.1719,3.2342 -8.1719,3.2342 z" />
    <path
       sodipodi:type="star"
       style="fill:#ffffff;fill-opacity:1;stroke:none;stroke-width:1.00012;stroke-linecap:butt;stroke-linejoin:miter;stroke-miterlimit:4;stroke-dasharray:none"
       id="path1116"
       sodipodi:sides="4"
       sodipodi:cx="288.55328"
       sodipodi:cy="235.91785"
       sodipodi:r1="21.495243"
       sodipodi:r2="8.6195927"
       sodipodi:arg1="1.5707963"
       sodipodi:arg2="2.3561945"
       inkscape:flatsided="false"
       inkscape:rounded="0"
       inkscape:randomized="0"
       inkscape:transform-center-x="4.2878086e-06"
       inkscape:transform-center-y="-8.0022472e-06"
       inkscape:export-xdpi="127.69537"
       inkscape:export-ydpi="127.69537"
       d="m 288.55328,257.41309 -6.09497,-15.40027 -15.40027,-6.09497 15.40027,-6.09498 6.09497,-15.40027 6.09498,15.40027 15.40027,6.09498 -15.40027,6.09497 z" />
    <path
       sodipodi:type="star"
       style="fill:#ffffff;fill-opacity:1;stroke:none;stroke-width:1.00012;stroke-linecap:butt;stroke-linejoin:miter;stroke-miterlimit:4;stroke-dasharray:none"
       id="path1122"
       sodipodi:sides="4"
       sodipodi:cx="275.31003"
       sodipodi:cy="183.23756"
       sodipodi:r1="12.170046"
       sodipodi:r2="4.8801885"
       sodipodi:arg1="1.5707963"
       sodipodi:arg2="2.3561945"
       inkscape:flatsided="false"
       inkscape:rounded="0"
       inkscape:randomized="0"
       inkscape:transform-center-x="5.6222712e-06"
       inkscape:transform-center-y="2.5743354e-06"
       inkscape:export-xdpi="127.69537"
       inkscape:export-ydpi="127.69537"
       d="m 275.31003,195.40761 -3.45082,-8.71923 -8.71923,-3.45082 8.71923,-3.45081 3.45082,-8.71923 3.45081,8.71923 8.71923,3.45081 -8.71923,3.45082 z" />
    <path
       sodipodi:type="star"
       style="fill:#ffffff;fill-opacity:1;stroke:none;stroke-width:1.00012;stroke-linecap:butt;stroke-linejoin:miter;stroke-miterlimit:4;stroke-dasharray:none"
       id="path1124"
       sodipodi:sides="4"
       sodipodi:cx="303.19897"
       sodipodi:cy="203.22328"
       sodipodi:r1="6.6699934"
       sodipodi:r2="2.6746676"
       sodipodi:arg1="1.5707963"
       sodipodi:arg2="2.3561945"
       inkscape:flatsided="false"
       inkscape:rounded="0"
       inkscape:randomized="0"
       inkscape:transform-center-x="4.8998482e-06"
       inkscape:transform-center-y="-9.7531326e-06"
       inkscape:export-xdpi="127.69537"
       inkscape:export-ydpi="127.69537"
       d="m 303.19897,209.89328 -1.89127,-4.77872 -4.77872,-1.89128 4.77872,-1.89127 1.89127,-4.77872 1.89128,4.77872 4.77872,1.89127 -4.77872,1.89128 z" />
    <path
       sodipodi:type="star"
       style="fill:#ffffff;fill-opacity:1;stroke:none;stroke-width:1.00012;stroke-linecap:butt;stroke-linejoin:miter;stroke-miterlimit:4;stroke-dasharray:none"
       id="path1128"
       sodipodi:sides="4"
       sodipodi:cx="-334.10458"
       sodipodi:cy="259.76733"
       sodipodi:r1="11.406107"
       sodipodi:r2="4.5738487"
       sodipodi:arg1="1.5707963"
       sodipodi:arg2="2.3561945"
       inkscape:flatsided="false"
       inkscape:rounded="0"
       inkscape:randomized="0"
       inkscape:transform-center-x="-2.5583224e-06"
       inkscape:transform-center-y="-1.298358e-06"
       transform="scale(-1,1)"
       inkscape:export-xdpi="127.69537"
       inkscape:export-ydpi="127.69537"
       d="m -334.10458,271.17344 -3.2342,-8.17191 -8.17191,-3.2342 8.17191,-3.2342 3.2342,-8.1719 3.2342,8.1719 8.1719,3.2342 -8.1719,3.2342 z" />
    <path
       sodipodi:type="star"
       style="fill:#ffffff;fill-opacity:1;stroke:none;stroke-width:1.00012;stroke-linecap:butt;stroke-linejoin:miter;stroke-miterlimit:4;stroke-dasharray:none"
       id="path1130"
       sodipodi:sides="4"
       sodipodi:cx="-163.7476"
       sodipodi:cy="239.36227"
       sodipodi:r1="21.495243"
       sodipodi:r2="8.6195927"
       sodipodi:arg1="1.5707963"
       sodipodi:arg2="2.3561945"
       inkscape:flatsided="false"
       inkscape:rounded="0"
       inkscape:randomized="0"
       inkscape:transform-center-y="-8.0022472e-06"
       transform="scale(-1,1)"
       inkscape:export-xdpi="127.69537"
       inkscape:export-ydpi="127.69537"
       d="m -163.7476,260.85752 -6.09498,-15.40027 -15.40027,-6.09498 15.40027,-6.09497 6.09498,-15.40027 6.09497,15.40027 15.40027,6.09497 -15.40027,6.09498 z" />
    <path
       sodipodi:type="star"
       style="fill:#ffffff;fill-opacity:1;stroke:none;stroke-width:1.00012;stroke-linecap:butt;stroke-linejoin:miter;stroke-miterlimit:4;stroke-dasharray:none"
       id="path1132"
       sodipodi:sides="4"
       sodipodi:cx="-174.45779"
       sodipodi:cy="185.03374"
       sodipodi:r1="12.170046"
       sodipodi:r2="4.8801885"
       sodipodi:arg1="1.5707963"
       sodipodi:arg2="2.3561945"
       inkscape:flatsided="false"
       inkscape:rounded="0"
       inkscape:randomized="0"
       inkscape:transform-center-y="2.5743354e-06"
       transform="scale(-1,1)"
       inkscape:export-xdpi="127.69537"
       inkscape:export-ydpi="127.69537"
       d="m -174.45779,197.20378 -3.45082,-8.71923 -8.71923,-3.45081 8.71923,-3.45082 3.45082,-8.71923 3.45081,8.71923 8.71923,3.45082 -8.71923,3.45081 z" />
    <path
       sodipodi:type="star"
       style="fill:#ffffff;fill-opacity:1;stroke:none;stroke-width:1.00012;stroke-linecap:butt;stroke-linejoin:miter;stroke-miterlimit:4;stroke-dasharray:none"
       id="path1134"
       sodipodi:sides="4"
       sodipodi:cx="-144.12535"
       sodipodi:cy="205.95348"
       sodipodi:r1="6.6699934"
       sodipodi:r2="2.6746676"
       sodipodi:arg1="1.5707963"
       sodipodi:arg2="2.3561945"
       inkscape:flatsided="false"
       inkscape:rounded="0"
       inkscape:randomized="0"
       inkscape:transform-center-y="-9.7531326e-06"
       transform="scale(-1,1)"
       inkscape:export-xdpi="127.69537"
       inkscape:export-ydpi="127.69537"
       d="m -144.12535,212.62347 -1.89128,-4.77872 -4.77871,-1.89127 4.77871,-1.89128 1.89128,-4.77872 1.89127,4.77872 4.77872,1.89128 -4.77872,1.89127 z" />
    <path
       style="color:#000000;font-style:normal;font-variant:normal;font-weight:normal;font-stretch:normal;font-size:medium;line-height:normal;font-family:sans-serif;font-variant-ligatures:normal;font-variant-position:normal;font-variant-caps:normal;font-variant-numeric:normal;font-variant-alternates:normal;font-variant-east-asian:normal;font-feature-settings:normal;font-variation-settings:normal;text-indent:0;text-align:start;text-decoration:none;text-decoration-line:none;text-decoration-style:solid;text-decoration-color:#000000;letter-spacing:normal;word-spacing:normal;text-transform:none;writing-mode:lr-tb;direction:ltr;text-orientation:mixed;dominant-baseline:auto;baseline-shift:baseline;text-anchor:start;white-space:normal;shape-padding:0;shape-margin:0;inline-size:0;clip-rule:nonzero;display:inline;overflow:visible;visibility:visible;isolation:auto;mix-blend-mode:normal;color-interpolation:sRGB;color-interpolation-filters:linearRGB;solid-color:#000000;solid-opacity:1;vector-effect:none;fill:#ffffff;fill-opacity:1;fill-rule:nonzero;stroke:none;stroke-width:3.08768;stroke-linecap:butt;stroke-linejoin:miter;stroke-miterlimit:4;stroke-dasharray:none;stroke-dashoffset:0;stroke-opacity:1;color-rendering:auto;image-rendering:auto;shape-rendering:auto;text-rendering:auto;enable-background:accumulate;stop-color:#000000"
       d="m 225.58784,65.020686 c -2.8796,0.0302 -5.20166,3.060135 -5.20164,6.787294 9e-5,3.748809 2.34829,6.787661 5.24471,6.787266 2.89617,-5.7e-5 5.24398,-3.038768 5.24406,-6.787266 -5e-5,-3.748498 -2.34786,-6.787238 -5.24406,-6.787294 -0.0141,-8.5e-5 -0.0285,-8.5e-5 -0.0429,0 z"
       id="path1176"
       inkscape:export-xdpi="127.69537"
       inkscape:export-ydpi="127.69537" />
    <path
       id="path1136"
       style="fill:#330080;fill-opacity:1;stroke:none;stroke-width:0.0185613;stroke-linecap:butt;stroke-linejoin:miter;stroke-miterlimit:4;stroke-dasharray:none"
       d="m 225.62959,20.875344 a 66.700683,86.330033 0 0 0 -19.43958,60.919335 66.700683,86.330033 0 0 0 0.0169,1.872302 l -12.35661,5.789087 11.6084,64.399412 3.50987,-19.13868 h 11.22591 a 66.700683,86.330033 0 0 0 5.43563,7.99607 66.700683,86.330033 0 0 0 5.43575,-7.99607 h 11.2274 l 3.50984,19.13868 11.60773,-64.399412 -12.35664,-5.789087 a 66.700683,86.330033 0 0 0 0.0169,-1.872302 66.700683,86.330033 0 0 0 -19.43882,-60.919335 z m -0.0615,33.7259 a 13.5095,17.485213 0 0 1 7.1e-4,0 13.5095,17.485213 0 0 1 0.0607,0 13.5095,17.485213 0 0 1 13.50908,17.485587 13.5095,17.485213 0 0 1 -13.50908,17.484656 13.5095,17.485213 0 0 1 -13.50975,-17.484656 13.5095,17.485213 0 0 1 13.44811,-17.485587 z m 0.0198,10.419442 a 5.2441458,6.7874466 0 0 0 -5.20163,6.787294 5.2441458,6.7874466 0 0 0 5.2447,6.787266 5.2441458,6.7874466 0 0 0 5.24406,-6.787266 5.2441458,6.7874466 0 0 0 -5.24406,-6.787294 5.2441458,6.7874466 0 0 0 -0.0429,0 z"
       inkscape:export-xdpi="127.69537"
       inkscape:export-ydpi="127.69537" />
  </g>
</svg>
