<?xml version="1.0" encoding="UTF-8" standalone="no"?>
<svg
   xmlns:dc="http://purl.org/dc/elements/1.1/"
   xmlns:cc="http://creativecommons.org/ns#"
   xmlns:rdf="http://www.w3.org/1999/02/22-rdf-syntax-ns#"
   xmlns:svg="http://www.w3.org/2000/svg"
   xmlns="http://www.w3.org/2000/svg"
   xmlns:sodipodi="http://sodipodi.sourceforge.net/DTD/sodipodi-0.dtd"
   xmlns:inkscape="http://www.inkscape.org/namespaces/inkscape"
   width="451.2612mm"
   height="451.2612mm"
   viewBox="0 0 451.2612 451.2612"
   version="1.1"
   id="svg2095"
   inkscape:version="1.0.2 (1.0.2+r75+1)"
   sodipodi:docname="drawing1(Dnut).svg">
  <defs
     id="defs2089" />
  <sodipodi:namedview
     id="base"
     pagecolor="#333333"
     bordercolor="#666666"
     borderopacity="1.0"
     inkscape:pageopacity="0"
     inkscape:pageshadow="2"
     inkscape:zoom="0.35"
     inkscape:cx="868.57143"
     inkscape:cy="1017.1429"
     inkscape:document-units="mm"
     inkscape:current-layer="layer2"
     inkscape:document-rotation="0"
     showgrid="false"
     fit-margin-top="0"
     fit-margin-left="0"
     fit-margin-right="0"
     fit-margin-bottom="0"
     showborder="false"
     inkscape:window-width="960"
     inkscape:window-height="1025"
     inkscape:window-x="960"
     inkscape:window-y="27"
     inkscape:window-maximized="0" />
  <metadata
     id="metadata2092">
    <rdf:RDF>
      <cc:Work
         rdf:about="">
        <dc:format>image/svg+xml</dc:format>
        <dc:type
           rdf:resource="http://purl.org/dc/dcmitype/StillImage" />
        <dc:title />
      </cc:Work>
    </rdf:RDF>
  </metadata>
  <g
     inkscape:label="Canvas"
     inkscape:groupmode="layer"
     id="layer1"
     transform="translate(15.6306,77.1306)"
     sodipodi:insensitive="true">
    <rect
       style="opacity:1;fill:#ffffff;stroke-width:0.0894292;stroke-linecap:round;stroke-linejoin:round"
       id="rect2110"
       width="451.2612"
       height="451.2612"
       x="-15.6306"
       y="-77.1306"
       ry="1.1328373" />
  </g>
  <g
     inkscape:groupmode="layer"
     id="layer2"
     inkscape:label="Layer 1">
    <path
       id="path837"
       style="fill:#deaa87;fill-opacity:1;stroke:none;stroke-width:0.0896936;stroke-miterlimit:4;stroke-dasharray:none"
       d="M 225.6193,76.100909 A 155.27543,155.27543 0 0 0 70.348956,231.37612 155.27543,155.27543 0 0 0 225.62416,386.6513 155.27543,155.27543 0 0 0 380.89932,231.37612 a 155.27543,155.27543 0 0 0 -11.71304,-59.16368 22.570915,22.570915 0 0 1 -0.31435,-0.0141 22.570915,22.570915 0 0 1 -1.88037,-0.1797 22.570915,22.570915 0 0 1 -0.93353,-0.1494 22.570915,22.570915 0 0 1 -0.30952,-0.0582 22.570915,22.570915 0 0 1 -0.30834,-0.0632 22.570915,22.570915 0 0 1 -0.30833,-0.0667 22.570915,22.570915 0 0 1 -0.91283,-0.22457 22.570915,22.570915 0 0 1 -0.007,-0.003 22.570915,22.570915 0 0 1 -0.6033,-0.17124 22.570915,22.570915 0 0 1 -0.30109,-0.0923 22.570915,22.570915 0 0 1 -0.2998,-0.0971 22.570915,22.570915 0 0 1 -0.29864,-0.10071 22.570915,22.570915 0 0 1 -0.25731,-0.0912 22.570915,22.570915 0 0 1 -0.0693,-0.0245 22.570915,22.570915 0 0 1 -0.2537,-0.0935 22.570915,22.570915 0 0 1 -0.0165,-0.007 22.570915,22.570915 0 0 1 -0.58268,-0.22952 22.570915,22.570915 0 0 1 -0.28404,-0.11772 22.570915,22.570915 0 0 1 -0.0118,-0.007 22.570915,22.570915 0 0 1 -0.24157,-0.10424 22.570915,22.570915 0 0 1 -0.0596,-0.0268 22.570915,22.570915 0 0 1 -0.2695,-0.12151 22.570915,22.570915 0 0 1 -0.28527,-0.13343 22.570915,22.570915 0 0 1 -0.28405,-0.13718 22.570915,22.570915 0 0 1 -0.2039,-0.1019 22.570915,22.570915 0 0 1 -0.15409,-0.0789 22.570915,22.570915 0 0 1 -0.20273,-0.10568 22.570915,22.570915 0 0 1 -0.55229,-0.30227 22.570915,22.570915 0 0 1 -0.24033,-0.13836 22.570915,22.570915 0 0 1 -0.085,-0.0498 22.570915,22.570915 0 0 1 -0.0935,-0.0547 22.570915,22.570915 0 0 1 -0.16021,-0.0947 22.570915,22.570915 0 0 1 -0.23421,-0.14447 22.570915,22.570915 0 0 1 -0.22574,-0.14211 22.570915,22.570915 0 0 1 -0.0801,-0.0522 22.570915,22.570915 0 0 1 -0.2234,-0.14564 22.570915,22.570915 0 0 1 -0.21728,-0.14447 22.570915,22.570915 0 0 1 -0.0812,-0.0547 22.570915,22.570915 0 0 1 -0.22221,-0.15527 22.570915,22.570915 0 0 1 -0.19921,-0.14095 22.570915,22.570915 0 0 1 -0.13108,-0.0947 22.570915,22.570915 0 0 1 -0.18088,-0.13341 22.570915,22.570915 0 0 1 -0.25128,-0.18935 22.570915,22.570915 0 0 1 -0.16749,-0.12988 22.570915,22.570915 0 0 1 -0.16138,-0.12727 22.570915,22.570915 0 0 1 -0.24523,-0.1978 22.570915,22.570915 0 0 1 -0.16374,-0.13483 22.570915,22.570915 0 0 1 -0.0188,-0.0165 22.570915,22.570915 0 0 1 -0.20883,-0.17595 22.570915,22.570915 0 0 1 -0.0897,-0.0777 22.570915,22.570915 0 0 1 -0.15528,-0.13602 22.570915,22.570915 0 0 1 -0.12138,-0.10804 22.570915,22.570915 0 0 1 -0.046,-0.0413 22.570915,22.570915 0 0 1 -0.18464,-0.16866 22.570915,22.570915 0 0 1 -0.19308,-0.17969 22.570915,22.570915 0 0 1 -0.16985,-0.1628 22.570915,22.570915 0 0 1 -0.0862,-0.0824 22.570915,22.570915 0 0 1 -0.10072,-0.0985 22.570915,22.570915 0 0 1 -0.11419,-0.11419 22.570915,22.570915 0 0 1 -0.20273,-0.20507 22.570915,22.570915 0 0 1 -0.18933,-0.19544 22.570915,22.570915 0 0 1 -0.0437,-0.0449 22.570915,22.570915 0 0 1 -0.0959,-0.10307 22.570915,22.570915 0 0 1 -0.15058,-0.16255 22.570915,22.570915 0 0 1 -0.16631,-0.18323 22.570915,22.570915 0 0 1 -0.009,-0.009 22.570915,22.570915 0 0 1 -0.18933,-0.21353 22.570915,22.570915 0 0 1 -0.0141,-0.0141 22.570915,22.570915 0 0 1 -0.20272,-0.23671 22.570915,22.570915 0 0 1 -0.0437,-0.051 22.570915,22.570915 0 0 1 -0.0824,-0.0997 22.570915,22.570915 0 0 1 -0.11157,-0.13484 22.570915,22.570915 0 0 1 -0.0387,-0.0475 22.570915,22.570915 0 0 1 -0.15058,-0.18817 22.570915,22.570915 0 0 1 -0.0691,-0.0862 22.570915,22.570915 0 0 1 -0.12753,-0.16138 22.570915,22.570915 0 0 1 -0.0617,-0.0812 22.570915,22.570915 0 0 1 -0.12988,-0.17242 22.570915,22.570915 0 0 1 -0.0655,-0.0862 22.570915,22.570915 0 0 1 -0.11301,-0.15292 22.570915,22.570915 0 0 1 -0.10072,-0.13836 22.570915,22.570915 0 0 1 -0.0838,-0.11772 22.570915,22.570915 0 0 1 -0.11654,-0.16513 22.570915,22.570915 0 0 1 -0.0534,-0.0765 22.570915,22.570915 0 0 1 -0.16631,-0.244 22.570915,22.570915 0 0 1 -0.007,-0.009 22.570915,22.570915 0 0 1 -0.0705,-0.10425 22.570915,22.570915 0 0 1 -0.13836,-0.21119 22.570915,22.570915 0 0 1 -0.16867,-0.26584 22.570915,22.570915 0 0 1 -0.13107,-0.21001 22.570915,22.570915 0 0 1 -0.009,-0.0165 22.570915,22.570915 0 0 1 -0.0885,-0.14681 22.570915,22.570915 0 0 1 -0.0984,-0.16397 22.570915,22.570915 0 0 1 -0.15785,-0.27191 22.570915,22.570915 0 0 1 -0.15411,-0.27434 22.570915,22.570915 0 0 1 -0.11903,-0.21729 22.570915,22.570915 0 0 1 -0.0315,-0.0594 22.570915,22.570915 0 0 1 -0.14682,-0.27921 22.570915,22.570915 0 0 1 -0.11275,-0.21964 22.570915,22.570915 0 0 1 -0.0188,-0.0375 22.570915,22.570915 0 0 1 -0.057,-0.11419 22.570915,22.570915 0 0 1 -0.0824,-0.16867 22.570915,22.570915 0 0 1 -0.0912,-0.1931 22.570915,22.570915 0 0 1 -0.0303,-0.0643 22.570915,22.570915 0 0 1 -0.0534,-0.11419 22.570915,22.570915 0 0 1 -0.10072,-0.22339 22.570915,22.570915 0 0 1 -0.10084,-0.22575 22.570915,22.570915 0 0 1 -0.0188,-0.0449 22.570915,22.570915 0 0 1 -0.0364,-0.085 22.570915,22.570915 0 0 1 -0.0874,-0.20766 22.570915,22.570915 0 0 1 -0.057,-0.13954 22.570915,22.570915 0 0 1 -0.0487,-0.1189 22.570915,22.570915 0 0 1 -0.0764,-0.19544 22.570915,22.570915 0 0 1 -0.0437,-0.11301 22.570915,22.570915 0 0 1 -0.0475,-0.12491 22.570915,22.570915 0 0 1 -0.0679,-0.18088 22.570915,22.570915 0 0 1 -0.0924,-0.25492 22.570915,22.570915 0 0 1 -0.0959,-0.27554 22.570915,22.570915 0 0 1 -0.0118,-0.0364 22.570915,22.570915 0 0 1 -0.0498,-0.1494 22.570915,22.570915 0 0 1 -0.057,-0.17242 22.570915,22.570915 0 0 1 -0.0387,-0.1261 22.570915,22.570915 0 0 1 -0.0632,-0.20154 22.570915,22.570915 0 0 1 -0.0897,-0.30226 22.570915,22.570915 0 0 1 -0.085,-0.30348 22.570915,22.570915 0 0 1 -0.0643,-0.23794 22.570915,22.570915 0 0 1 -0.0118,-0.0413 22.570915,22.570915 0 0 1 -0.028,-0.11183 22.570915,22.570915 0 0 1 -0.0548,-0.21846 22.570915,22.570915 0 0 1 -0.0729,-0.30593 22.570915,22.570915 0 0 1 -0.0548,-0.24158 22.570915,22.570915 0 0 1 -0.007,-0.0352 22.570915,22.570915 0 0 1 -0.0165,-0.0789 22.570915,22.570915 0 0 1 -0.11301,-0.56085 22.570915,22.570915 0 0 1 -0.007,-0.0449 22.570915,22.570915 0 0 1 -0.0487,-0.27435 22.570915,22.570915 0 0 1 -0.051,-0.31076 22.570915,22.570915 0 0 1 -0.0375,-0.24399 22.570915,22.570915 0 0 1 -0.005,-0.0375 22.570915,22.570915 0 0 1 -0.0165,-0.12138 22.570915,22.570915 0 0 1 -0.028,-0.20389 22.570915,22.570915 0 0 1 -0.007,-0.0582 22.570915,22.570915 0 0 1 -0.0327,-0.2707 22.570915,22.570915 0 0 1 -0.034,-0.31319 22.570915,22.570915 0 0 1 -0.0292,-0.3132 22.570915,22.570915 0 0 1 -0.0212,-0.24641 22.570915,22.570915 0 0 1 -0.005,-0.057 22.570915,22.570915 0 0 1 -0.005,-0.0449 22.570915,22.570915 0 0 1 -0.0188,-0.28041 22.570915,22.570915 0 0 1 -0.0165,-0.31442 22.570915,22.570915 0 0 1 -0.009,-0.24642 22.570915,22.570915 0 0 1 -0.003,-0.0679 35.359219,35.359219 0 0 1 -0.27919,0.1202 35.359219,35.359219 0 0 1 -0.0838,0.0352 35.359219,35.359219 0 0 1 -0.28041,0.11654 35.359219,35.359219 0 0 1 -0.0838,0.034 35.359219,35.359219 0 0 1 -0.28162,0.11301 35.359219,35.359219 0 0 1 -0.20884,0.0824 35.359219,35.359219 0 0 1 -0.24279,0.0935 35.359219,35.359219 0 0 1 -0.36902,0.13836 35.359219,35.359219 0 0 1 -0.28527,0.10425 35.359219,35.359219 0 0 1 -0.085,0.0303 35.359219,35.359219 0 0 1 -0.28646,0.10084 35.359219,35.359219 0 0 1 -0.3739,0.12727 35.359219,35.359219 0 0 1 -0.37387,0.12256 35.359219,35.359219 0 0 1 -0.0862,0.028 35.359219,35.359219 0 0 1 -0.29014,0.0912 35.359219,35.359219 0 0 1 -0.0862,0.0268 35.359219,35.359219 0 0 1 -0.29133,0.0885 35.359219,35.359219 0 0 1 -0.0862,0.0256 35.359219,35.359219 0 0 1 -0.0655,0.0188 35.359219,35.359219 0 0 1 -0.31318,0.0897 35.359219,35.359219 0 0 1 -0.37996,0.10424 35.359219,35.359219 0 0 1 -0.38116,0.10085 35.359219,35.359219 0 0 1 -0.29378,0.0752 35.359219,35.359219 0 0 1 -0.0885,0.0212 35.359219,35.359219 0 0 1 -0.29499,0.0717 35.359219,35.359219 0 0 1 -0.0874,0.0212 35.359219,35.359219 0 0 1 -0.0437,0.009 35.359219,35.359219 0 0 1 -0.34113,0.0789 35.359219,35.359219 0 0 1 -0.3848,0.0836 35.359219,35.359219 0 0 1 -0.38601,0.0789 35.359219,35.359219 0 0 1 -0.38725,0.0752 35.359219,35.359219 0 0 1 -0.29861,0.0558 35.359219,35.359219 0 0 1 -0.0886,0.0165 35.359219,35.359219 0 0 1 -0.29985,0.0522 35.359219,35.359219 0 0 1 -0.0886,0.0141 35.359219,35.359219 0 0 1 -0.0679,0.0118 35.359219,35.359219 0 0 1 -0.31075,0.0498 35.359219,35.359219 0 0 1 -0.0118,0.001 35.359219,35.359219 0 0 1 -0.30103,0.0449 35.359219,35.359219 0 0 1 -0.35083,0.0498 35.359219,35.359219 0 0 1 -0.0387,0.005 35.359219,35.359219 0 0 1 -0.0141,0.003 35.359219,35.359219 0 0 1 -0.30106,0.0375 35.359219,35.359219 0 0 1 -0.0752,0.009 35.359219,35.359219 0 0 1 -0.0897,0.0118 35.359219,35.359219 0 0 1 -0.30226,0.0352 35.359219,35.359219 0 0 1 -0.0897,0.009 35.359219,35.359219 0 0 1 -0.0824,0.009 35.359219,35.359219 0 0 1 -0.30956,0.0315 35.359219,35.359219 0 0 1 -0.39208,0.0364 35.359219,35.359219 0 0 1 -0.3933,0.0315 35.359219,35.359219 0 0 1 -0.30351,0.0212 35.359219,35.359219 0 0 1 -0.0897,0.007 35.359219,35.359219 0 0 1 -0.30348,0.0188 35.359219,35.359219 0 0 1 -0.0897,0.005 35.359219,35.359219 0 0 1 -0.30348,0.0141 35.359219,35.359219 0 0 1 -0.0897,0.005 35.359219,35.359219 0 0 1 -0.3047,0.0118 35.359219,35.359219 0 0 1 -0.3933,0.0118 35.359219,35.359219 0 0 1 -0.21353,0.005 35.359219,35.359219 0 0 1 -0.2707,0.005 35.359219,35.359219 0 0 1 -0.30467,10e-4 35.359219,35.359219 0 0 1 -0.48437,-0.005 35.359219,35.359219 0 0 1 -0.0558,-0.001 35.359219,35.359219 0 0 1 -0.30956,-0.007 35.359219,35.359219 0 0 1 -0.028,0 35.359219,35.359219 0 0 1 -0.30469,-0.009 35.359219,35.359219 0 0 1 -0.39331,-0.0165 35.359219,35.359219 0 0 1 -0.34351,-0.0165 35.359219,35.359219 0 0 1 -0.0679,-0.005 35.359219,35.359219 0 0 1 -0.29618,-0.0188 35.359219,35.359219 0 0 1 -0.08,-0.005 35.359219,35.359219 0 0 1 -0.0268,-0.003 35.359219,35.359219 0 0 1 -0.25249,-0.0188 35.359219,35.359219 0 0 1 -0.16867,-0.0141 35.359219,35.359219 0 0 1 -0.10804,-0.009 35.359219,35.359219 0 0 1 -0.3059,-0.0268 35.359219,35.359219 0 0 1 -0.0534,-0.005 35.359219,35.359219 0 0 1 -0.35203,-0.0352 35.359219,35.359219 0 0 1 -0.39209,-0.0425 35.359219,35.359219 0 0 1 -0.30227,-0.0364 35.359219,35.359219 0 0 1 -0.0118,-0.001 35.359219,35.359219 0 0 1 -0.15527,-0.0212 35.359219,35.359219 0 0 1 -0.31198,-0.0413 35.359219,35.359219 0 0 1 -0.30105,-0.0425 35.359219,35.359219 0 0 1 -0.0838,-0.0118 35.359219,35.359219 0 0 1 -0.0165,-0.003 35.359219,35.359219 0 0 1 -0.37022,-0.057 35.359219,35.359219 0 0 1 -0.0437,-0.007 35.359219,35.359219 0 0 1 -0.35325,-0.0594 35.359219,35.359219 0 0 1 -0.29983,-0.0522 35.359219,35.359219 0 0 1 -0.028,-0.005 35.359219,35.359219 0 0 1 -0.15786,-0.0292 35.359219,35.359219 0 0 1 -0.29012,-0.0559 35.359219,35.359219 0 0 1 -0.29862,-0.0594 35.359219,35.359219 0 0 1 -0.0874,-0.0188 35.359219,35.359219 0 0 1 -0.35689,-0.0752 35.359219,35.359219 0 0 1 -0.32654,-0.0729 35.359219,35.359219 0 0 1 -0.20884,-0.0487 35.359219,35.359219 0 0 1 -0.2622,-0.062 35.359219,35.359219 0 0 1 -0.29501,-0.0728 35.359219,35.359219 0 0 1 -0.0327,-0.009 35.359219,35.359219 0 0 1 -0.14211,-0.0352 35.359219,35.359219 0 0 1 -0.26828,-0.0705 35.359219,35.359219 0 0 1 -0.17244,-0.0461 35.359219,35.359219 0 0 1 -0.23067,-0.0632 35.359219,35.359219 0 0 1 -0.007,-0.003 35.359219,35.359219 0 0 1 -0.37511,-0.10568 35.359219,35.359219 0 0 1 -0.29255,-0.0862 35.359219,35.359219 0 0 1 -0.009,-0.003 35.359219,35.359219 0 0 1 -0.17596,-0.0534 35.359219,35.359219 0 0 1 -0.27676,-0.0862 35.359219,35.359219 0 0 1 -0.29014,-0.0923 35.359219,35.359219 0 0 1 -0.085,-0.028 35.359219,35.359219 0 0 1 -0.28891,-0.0947 35.359219,35.359219 0 0 1 -0.057,-0.0188 35.359219,35.359219 0 0 1 -0.13485,-0.046 35.359219,35.359219 0 0 1 -0.24157,-0.0836 35.359219,35.359219 0 0 1 -0.13484,-0.0475 35.359219,35.359219 0 0 1 -0.21493,-0.0767 35.359219,35.359219 0 0 1 -0.29256,-0.10804 35.359219,35.359219 0 0 1 -0.0487,-0.0188 35.359219,35.359219 0 0 1 -0.2039,-0.0765 35.359219,35.359219 0 0 1 -0.23916,-0.0923 35.359219,35.359219 0 0 1 -0.35082,-0.13836 35.359219,35.359219 0 0 1 -0.29741,-0.12138 35.359219,35.359219 0 0 1 -0.27557,-0.11537 35.359219,35.359219 0 0 1 -0.12491,-0.0522 35.359219,35.359219 0 0 1 -0.32535,-0.14095 35.359219,35.359219 0 0 1 -0.0498,-0.0212 35.359219,35.359219 0 0 1 -0.21235,-0.0947 35.359219,35.359219 0 0 1 -0.11039,-0.0498 35.359219,35.359219 0 0 1 -0.187,-0.085 35.359219,35.359219 0 0 1 -0.24035,-0.11183 35.359219,35.359219 0 0 1 -0.71012,-0.34109 35.359219,35.359219 0 0 1 -0.34961,-0.17594 35.359219,35.359219 0 0 1 -0.27315,-0.14071 35.359219,35.359219 0 0 1 -0.08,-0.0413 35.359219,35.359219 0 0 1 -0.12635,-0.0667 35.359219,35.359219 0 0 1 -0.22223,-0.1189 35.359219,35.359219 0 0 1 -0.26707,-0.14447 35.359219,35.359219 0 0 1 -0.0632,-0.0352 35.359219,35.359219 0 0 1 -0.051,-0.0292 35.359219,35.359219 0 0 1 -0.30833,-0.17242 35.359219,35.359219 0 0 1 -0.2634,-0.15058 35.359219,35.359219 0 0 1 -0.0789,-0.046 35.359219,35.359219 0 0 1 -0.33382,-0.19544 35.359219,35.359219 0 0 1 -0.26584,-0.16138 35.359219,35.359219 0 0 1 -0.0764,-0.046 35.359219,35.359219 0 0 1 -0.13484,-0.0838 35.359219,35.359219 0 0 1 -0.20037,-0.12491 35.359219,35.359219 0 0 1 -0.3326,-0.21118 35.359219,35.359219 0 0 1 -0.25493,-0.16515 35.359219,35.359219 0 0 1 -0.0165,-0.009 35.359219,35.359219 0 0 1 -0.18205,-0.12021 35.359219,35.359219 0 0 1 -0.19051,-0.12753 35.359219,35.359219 0 0 1 -0.10071,-0.0693 35.359219,35.359219 0 0 1 -0.19169,-0.13107 35.359219,35.359219 0 0 1 -0.25978,-0.18089 35.359219,35.359219 0 0 1 -0.0594,-0.0425 35.359219,35.359219 0 0 1 -0.10425,-0.0728 35.359219,35.359219 0 0 1 -0.2683,-0.19309 35.359219,35.359219 0 0 1 -0.24518,-0.17971 35.359219,35.359219 0 0 1 -0.003,-0.003 35.359219,35.359219 0 0 1 -0.20883,-0.15527 35.359219,35.359219 0 0 1 -0.17007,-0.12753 35.359219,35.359219 0 0 1 -0.0212,-0.0165 35.359219,35.359219 0 0 1 -0.28891,-0.22222 35.359219,35.359219 0 0 1 -0.0242,-0.0188 35.359219,35.359219 0 0 1 -0.29377,-0.23068 35.359219,35.359219 0 0 1 -0.23672,-0.18934 35.359219,35.359219 0 0 1 -0.0375,-0.0303 35.359219,35.359219 0 0 1 -0.1019,-0.0838 35.359219,35.359219 0 0 1 -0.23549,-0.19427 35.359219,35.359219 0 0 1 -0.30105,-0.2537 35.359219,35.359219 0 0 1 -0.23068,-0.19779 35.359219,35.359219 0 0 1 -0.29619,-0.25978 35.359219,35.359219 0 0 1 -0.29378,-0.26341 35.359219,35.359219 0 0 1 -0.19051,-0.1736 35.359219,35.359219 0 0 1 -0.085,-0.0789 35.359219,35.359219 0 0 1 -0.0364,-0.0327 35.359219,35.359219 0 0 1 -0.25005,-0.2355 35.359219,35.359219 0 0 1 -0.0752,-0.0717 35.359219,35.359219 0 0 1 -0.17126,-0.16397 35.359219,35.359219 0 0 1 -0.136,-0.13108 35.359219,35.359219 0 0 1 -0.1541,-0.15175 35.359219,35.359219 0 0 1 -0.13718,-0.13601 35.359219,35.359219 0 0 1 -0.15175,-0.15293 35.359219,35.359219 0 0 1 -0.0874,-0.0897 35.359219,35.359219 0 0 1 -0.21235,-0.21728 35.359219,35.359219 0 0 1 -0.0268,-0.028 35.359219,35.359219 0 0 1 -0.25612,-0.2683 35.359219,35.359219 0 0 1 -0.17596,-0.18698 35.359219,35.359219 0 0 1 -0.051,-0.056 35.359219,35.359219 0 0 1 -0.0971,-0.10425 35.359219,35.359219 0 0 1 -0.21001,-0.23185 35.359219,35.359219 0 0 1 -0.17242,-0.19192 35.359219,35.359219 0 0 1 -0.0212,-0.0254 35.359219,35.359219 0 0 1 -0.15786,-0.17853 35.359219,35.359219 0 0 1 -0.16139,-0.18581 35.359219,35.359219 0 0 1 -0.0364,-0.0425 35.359219,35.359219 0 0 1 -0.17125,-0.20037 35.359219,35.359219 0 0 1 -0.22222,-0.26465 35.359219,35.359219 0 0 1 -0.19428,-0.23549 35.359219,35.359219 0 0 1 -0.11157,-0.13719 35.359219,35.359219 0 0 1 -0.0705,-0.0874 35.359219,35.359219 0 0 1 -0.20507,-0.25856 35.359219,35.359219 0 0 1 -0.15904,-0.20273 35.359219,35.359219 0 0 1 -0.0364,-0.046 35.359219,35.359219 0 0 1 -0.10686,-0.14094 35.359219,35.359219 0 0 1 -0.17853,-0.23549 35.359219,35.359219 0 0 1 -0.21494,-0.2877 35.359219,35.359219 0 0 1 -0.14447,-0.19779 35.359219,35.359219 0 0 1 -0.0352,-0.0487 35.359219,35.359219 0 0 1 -0.18581,-0.26098 35.359219,35.359219 0 0 1 -0.0582,-0.0812 35.359219,35.359219 0 0 1 -0.14564,-0.20766 35.359219,35.359219 0 0 1 -0.0947,-0.13718 35.359219,35.359219 0 0 1 -0.10687,-0.15527 35.359219,35.359219 0 0 1 -0.11772,-0.17478 35.359219,35.359219 0 0 1 -0.16021,-0.24155 35.359219,35.359219 0 0 1 -0.0268,-0.0402 35.359219,35.359219 0 0 1 -0.17594,-0.26949 35.359219,35.359219 0 0 1 -0.051,-0.08 35.359219,35.359219 0 0 1 -0.1407,-0.22223 35.359219,35.359219 0 0 1 -0.0824,-0.12988 35.359219,35.359219 0 0 1 -0.0824,-0.13343 35.359219,35.359219 0 0 1 -0.16395,-0.26951 35.359219,35.359219 0 0 1 -0.19427,-0.32288 35.359219,35.359219 0 0 1 -0.0717,-0.12256 35.359219,35.359219 0 0 1 -0.0812,-0.13954 35.359219,35.359219 0 0 1 -0.12256,-0.21376 35.359219,35.359219 0 0 1 -0.10425,-0.18323 35.359219,35.359219 0 0 1 -0.0572,-0.10202 35.359219,35.359219 0 0 1 -0.13341,-0.24277 35.359219,35.359219 0 0 1 -0.0862,-0.15904 35.359219,35.359219 0 0 1 -0.0802,-0.1494 35.359219,35.359219 0 0 1 -0.1104,-0.20765 35.359219,35.359219 0 0 1 -0.0912,-0.1736 35.359219,35.359219 0 0 1 -0.0559,-0.10686 35.359219,35.359219 0 0 1 -0.1287,-0.25249 35.359219,35.359219 0 0 1 -0.0487,-0.0947 35.359219,35.359219 0 0 1 -0.14565,-0.29619 35.359219,35.359219 0 0 1 -0.16513,-0.34233 35.359219,35.359219 0 0 1 -0.0165,-0.0327 35.359219,35.359219 0 0 1 -0.15786,-0.33623 35.359219,35.359219 0 0 1 -0.16021,-0.35085 35.359219,35.359219 0 0 1 -0.0118,-0.0254 35.359219,35.359219 0 0 1 -0.15175,-0.34354 35.359219,35.359219 0 0 1 -0.1019,-0.23549 35.359219,35.359219 0 0 1 -0.0364,-0.085 35.359219,35.359219 0 0 1 -0.0655,-0.15786 35.359219,35.359219 0 0 1 -0.0717,-0.17242 35.359219,35.359219 0 0 1 -0.0679,-0.16631 35.359219,35.359219 0 0 1 -0.10922,-0.27194 35.359219,35.359219 0 0 1 -0.005,-0.007 35.359219,35.359219 0 0 1 -0.14072,-0.36298 35.359219,35.359219 0 0 1 -0.136,-0.36053 35.359219,35.359219 0 0 1 -0.0141,-0.0364 35.359219,35.359219 0 0 1 -0.11157,-0.30469 35.359219,35.359219 0 0 1 -0.0449,-0.12753 35.359219,35.359219 0 0 1 -0.0777,-0.21847 35.359219,35.359219 0 0 1 -0.0437,-0.12753 35.359219,35.359219 0 0 1 -0.10424,-0.30953 35.359219,35.359219 0 0 1 -0.12021,-0.36662 35.359219,35.359219 0 0 1 -0.0268,-0.0836 35.359219,35.359219 0 0 1 -0.0582,-0.18464 35.359219,35.359219 0 0 1 -0.11039,-0.36175 35.359219,35.359219 0 0 1 -0.0897,-0.30467 35.359219,35.359219 0 0 1 -0.0594,-0.20273 35.359219,35.359219 0 0 1 0,-0.005 35.359219,35.359219 0 0 1 -0.10568,-0.37875 35.359219,35.359219 0 0 1 -0.0667,-0.24763 35.359219,35.359219 0 0 1 -0.009,-0.0375 35.359219,35.359219 0 0 1 -0.0559,-0.21493 35.359219,35.359219 0 0 1 -0.0558,-0.21729 35.359219,35.359219 0 0 1 -0.0375,-0.1541 35.359219,35.359219 0 0 1 -0.0655,-0.27435 35.359219,35.359219 0 0 1 -0.0885,-0.38357 35.359219,35.359219 0 0 1 -0.0559,-0.25128 35.359219,35.359219 0 0 1 -0.007,-0.0352 35.359219,35.359219 0 0 1 -0.074,-0.3508 35.359219,35.359219 0 0 1 -0.057,-0.28528 35.359219,35.359219 0 0 1 -0.0413,-0.21117 35.359219,35.359219 0 0 1 -0.0141,-0.0717 35.359219,35.359219 0 0 1 -0.056,-0.29983 35.359219,35.359219 0 0 1 -0.0141,-0.085 35.359219,35.359219 0 0 1 -0.0594,-0.34356 35.359219,35.359219 0 0 1 -0.062,-0.38238 35.359219,35.359219 0 0 1 -0.005,-0.0292 35.359219,35.359219 0 0 1 -0.0522,-0.34961 35.359219,35.359219 0 0 1 -0.007,-0.0498 35.359219,35.359219 0 0 1 -0.0425,-0.30833 35.359219,35.359219 0 0 1 -0.0268,-0.20391 35.359219,35.359219 0 0 1 -0.0188,-0.15292 35.359219,35.359219 0 0 1 -0.0212,-0.16984 35.359219,35.359219 0 0 1 -0.0352,-0.30591 35.359219,35.359219 0 0 1 -0.0375,-0.35567 35.359219,35.359219 0 0 1 -0.0141,-0.14823 35.359219,35.359219 0 0 1 -0.0188,-0.22222 35.359219,35.359219 0 0 1 -0.0165,-0.1736 35.359219,35.359219 0 0 1 -0.0165,-0.18816 35.359219,35.359219 0 0 1 -0.0256,-0.34717 35.359219,35.359219 0 0 1 -0.0188,-0.27799 35.359219,35.359219 0 0 1 -0.0141,-0.23793 35.359219,35.359219 0 0 1 -0.003,-0.0425 35.359219,35.359219 0 0 1 -0.0141,-0.30347 35.359219,35.359219 0 0 1 -0.0118,-0.25857 35.359219,35.359219 0 0 1 -0.005,-0.0897 35.359219,35.359219 0 0 1 -0.007,-0.21235 35.359219,35.359219 0 0 1 -0.007,-0.28892 35.359219,35.359219 0 0 1 -0.005,-0.35447 35.359219,35.359219 0 0 1 -10e-4,-0.1602 35.359219,35.359219 0 0 1 -0.001,-0.20508 35.359219,35.359219 0 0 1 0.001,-0.20507 35.359219,35.359219 0 0 1 10e-4,-0.16021 35.359219,35.359219 0 0 1 0.005,-0.35448 35.359219,35.359219 0 0 1 0.007,-0.28888 35.359219,35.359219 0 0 1 0.007,-0.21235 35.359219,35.359219 0 0 1 0.005,-0.0897 35.359219,35.359219 0 0 1 0.0118,-0.29135 35.359219,35.359219 0 0 1 0.005,-0.0838 35.359219,35.359219 0 0 1 0.0188,-0.35203 35.359219,35.359219 0 0 1 0.0165,-0.25734 35.359219,35.359219 0 0 1 0.001,-0.0165 35.359219,35.359219 0 0 1 0.0165,-0.23794 35.359219,35.359219 0 0 1 0.0165,-0.22832 35.359219,35.359219 0 0 1 0.0165,-0.20155 35.359219,35.359219 0 0 1 0.0141,-0.14682 35.359219,35.359219 0 0 1 0.0235,-0.25734 35.359219,35.359219 0 0 1 0.0118,-0.12256 35.359219,35.359219 0 0 1 0.0375,-0.35933 35.359219,35.359219 0 0 1 0.0352,-0.3059 35.359219,35.359219 0 0 1 0.0212,-0.17594 35.359219,35.359219 0 0 1 0.0165,-0.12021 35.359219,35.359219 0 0 1 0.0364,-0.27677 35.359219,35.359219 0 0 1 0.0188,-0.136 35.359219,35.359219 0 0 1 0.028,-0.20155 35.359219,35.359219 0 0 1 0.0364,-0.23794 35.359219,35.359219 0 0 1 0.0327,-0.21612 35.359219,35.359219 0 0 1 0.046,-0.2816 35.359219,35.359219 0 0 1 0.0594,-0.34356 35.359219,35.359219 0 0 1 0.0141,-0.085 35.359219,35.359219 0 0 1 0.0559,-0.29983 35.359219,35.359219 0 0 1 0.0141,-0.0717 35.359219,35.359219 0 0 1 0.0644,-0.3326 35.359219,35.359219 0 0 1 0.009,-0.0399 35.359219,35.359219 0 0 1 0.0777,-0.37632 35.359219,35.359219 0 0 1 0.0679,-0.31441 35.359219,35.359219 0 0 1 0.0315,-0.1407 35.359219,35.359219 0 0 1 0.0387,-0.16631 35.359219,35.359219 0 0 1 0.0534,-0.22952 35.359219,35.359219 0 0 1 0.028,-0.11654 35.359219,35.359219 0 0 1 0.0789,-0.31806 35.359219,35.359219 0 0 1 0.0935,-0.36054 35.359219,35.359219 0 0 1 0.0717,-0.26949 35.359219,35.359219 0 0 1 0.097,-0.34838 35.359219,35.359219 0 0 1 0.0292,-0.10425 35.359219,35.359219 0 0 1 0.034,-0.11654 35.359219,35.359219 0 0 1 0.0717,-0.24642 35.359219,35.359219 0 0 1 0.0973,-0.32048 22.570915,22.570915 0 0 1 -0.17008,0.0292 22.570915,22.570915 0 0 1 -0.20648,0.0327 22.570915,22.570915 0 0 1 -0.20155,0.0315 22.570915,22.570915 0 0 1 -0.0437,0.007 22.570915,22.570915 0 0 1 -0.17125,0.0242 22.570915,22.570915 0 0 1 -0.0387,0.005 22.570915,22.570915 0 0 1 -0.19779,0.0268 22.570915,22.570915 0 0 1 -0.0752,0.009 22.570915,22.570915 0 0 1 -0.14212,0.0165 22.570915,22.570915 0 0 1 -0.051,0.007 22.570915,22.570915 0 0 1 -0.23914,0.0254 22.570915,22.570915 0 0 1 -0.0235,0.003 22.570915,22.570915 0 0 1 -0.17125,0.0165 22.570915,22.570915 0 0 1 -0.0522,0.005 22.570915,22.570915 0 0 1 -0.17594,0.0165 22.570915,22.570915 0 0 1 -0.2281,0.0188 22.570915,22.570915 0 0 1 -0.29012,0.0212 22.570915,22.570915 0 0 1 -0.0935,0.005 22.570915,22.570915 0 0 1 -0.10189,0.007 22.570915,22.570915 0 0 1 -0.051,0.003 22.570915,22.570915 0 0 1 -0.18088,0.009 22.570915,22.570915 0 0 1 -0.22575,0.009 22.570915,22.570915 0 0 1 -0.31439,0.009 22.570915,22.570915 0 0 1 -0.31562,0.005 22.570915,22.570915 0 0 1 -0.27677,0 22.570915,22.570915 0 0 1 -0.0375,0 22.570915,22.570915 0 0 1 -0.11301,-0.001 22.570915,22.570915 0 0 1 -0.0897,-0.003 22.570915,22.570915 0 0 1 -0.22457,-0.005 22.570915,22.570915 0 0 1 -0.17242,-0.005 22.570915,22.570915 0 0 1 -0.046,-0.003 22.570915,22.570915 0 0 1 -0.25857,-0.0118 22.570915,22.570915 0 0 1 -0.15904,-0.009 22.570915,22.570915 0 0 1 -0.0777,-0.005 22.570915,22.570915 0 0 1 -0.23552,-0.0165 22.570915,22.570915 0 0 1 -0.16138,-0.0118 22.570915,22.570915 0 0 1 -0.0522,-0.005 22.570915,22.570915 0 0 1 -0.2962,-0.0254 22.570915,22.570915 0 0 1 -0.3132,-0.0315 22.570915,22.570915 0 0 1 -0.30347,-0.034 22.570915,22.570915 0 0 1 -0.0188,-0.003 22.570915,22.570915 0 0 1 -0.30348,-0.0387 22.570915,22.570915 0 0 1 -0.24155,-0.034 22.570915,22.570915 0 0 1 -0.18206,-0.028 22.570915,22.570915 0 0 1 -0.14681,-0.0236 22.570915,22.570915 0 0 1 -0.10425,-0.0165 22.570915,22.570915 0 0 1 -0.19051,-0.0327 22.570915,22.570915 0 0 1 -0.10686,-0.0188 22.570915,22.570915 0 0 1 -0.27069,-0.051 22.570915,22.570915 0 0 1 -0.16867,-0.0327 22.570915,22.570915 0 0 1 -0.0558,-0.0118 22.570915,22.570915 0 0 1 -0.13954,-0.0292 22.570915,22.570915 0 0 1 -0.25249,-0.0547 22.570915,22.570915 0 0 1 -0.30712,-0.0705 22.570915,22.570915 0 0 1 -0.28528,-0.0693 22.570915,22.570915 0 0 1 -0.0705,-0.0188 22.570915,22.570915 0 0 1 -0.18934,-0.0487 22.570915,22.570915 0 0 1 -0.16866,-0.0449 22.570915,22.570915 0 0 1 -0.0985,-0.0268 22.570915,22.570915 0 0 1 -0.21846,-0.0617 22.570915,22.570915 0 0 1 -0.097,-0.028 22.570915,22.570915 0 0 1 -0.17737,-0.0522 22.570915,22.570915 0 0 1 -0.19426,-0.0594 22.570915,22.570915 0 0 1 -0.0387,-0.0118 22.570915,22.570915 0 0 1 -0.20155,-0.0632 22.570915,22.570915 0 0 1 -0.21001,-0.0693 22.570915,22.570915 0 0 1 -0.0947,-0.0327 22.570915,22.570915 0 0 1 -0.12753,-0.0425 22.570915,22.570915 0 0 1 -0.17008,-0.0594 22.570915,22.570915 0 0 1 -0.12988,-0.046 22.570915,22.570915 0 0 1 -0.23917,-0.0885 22.570915,22.570915 0 0 1 -0.27554,-0.10425 22.570915,22.570915 0 0 1 -0.0559,-0.0236 22.570915,22.570915 0 0 1 -0.244,-0.0959 22.570915,22.570915 0 0 1 -0.0188,-0.009 22.570915,22.570915 0 0 1 -0.23914,-0.0984 22.570915,22.570915 0 0 1 -0.1494,-0.0632 22.570915,22.570915 0 0 1 -0.10425,-0.046 22.570915,22.570915 0 0 1 -0.13601,-0.0594 22.570915,22.570915 0 0 1 -0.18088,-0.0812 22.570915,22.570915 0 0 1 -0.13225,-0.0608 22.570915,22.570915 0 0 1 -0.12609,-0.0582 22.570915,22.570915 0 0 1 -0.18087,-0.085 22.570915,22.570915 0 0 1 -0.0812,-0.0387 22.570915,22.570915 0 0 1 -0.19544,-0.0959 22.570915,22.570915 0 0 1 -0.15058,-0.0752 22.570915,22.570915 0 0 1 -0.0594,-0.0303 22.570915,22.570915 0 0 1 -0.22809,-0.11772 22.570915,22.570915 0 0 1 -0.0705,-0.0364 22.570915,22.570915 0 0 1 -0.17242,-0.0923 22.570915,22.570915 0 0 1 -0.16256,-0.0874 22.570915,22.570915 0 0 1 -0.0801,-0.0449 22.570915,22.570915 0 0 1 -0.18815,-0.10568 22.570915,22.570915 0 0 1 -0.17971,-0.10308 22.570915,22.570915 0 0 1 -0.2281,-0.13342 22.570915,22.570915 0 0 1 -0.11301,-0.0667 22.570915,22.570915 0 0 1 -0.13718,-0.085 22.570915,22.570915 0 0 1 -0.16397,-0.10072 22.570915,22.570915 0 0 1 -0.0897,-0.0559 22.570915,22.570915 0 0 1 -0.11419,-0.0729 22.570915,22.570915 0 0 1 -0.22575,-0.14681 22.570915,22.570915 0 0 1 -0.14329,-0.0947 22.570915,22.570915 0 0 1 -0.10425,-0.0705 22.570915,22.570915 0 0 1 -0.0292,-0.0188 22.570915,22.570915 0 0 1 -0.18582,-0.12609 22.570915,22.570915 0 0 1 -0.18933,-0.13225 22.570915,22.570915 0 0 1 -0.0212,-0.0165 22.570915,22.570915 0 0 1 -0.17126,-0.12256 22.570915,22.570915 0 0 1 -0.13107,-0.0947 22.570915,22.570915 0 0 1 -0.17242,-0.12871 22.570915,22.570915 0 0 1 -0.0632,-0.0475 22.570915,22.570915 0 0 1 -0.11654,-0.0874 22.570915,22.570915 0 0 1 -0.14211,-0.10922 22.570915,22.570915 0 0 1 -0.1494,-0.11772 22.570915,22.570915 0 0 1 -0.12989,-0.10425 22.570915,22.570915 0 0 1 -0.0643,-0.0522 22.570915,22.570915 0 0 1 -0.15174,-0.12256 22.570915,22.570915 0 0 1 -0.17971,-0.15057 22.570915,22.570915 0 0 1 -0.0242,-0.0188 22.570915,22.570915 0 0 1 -0.22691,-0.19426 22.570915,22.570915 0 0 1 -0.12256,-0.10804 22.570915,22.570915 0 0 1 -0.13836,-0.12138 22.570915,22.570915 0 0 1 -0.12386,-0.11302 22.570915,22.570915 0 0 1 -0.10687,-0.0971 22.570915,22.570915 0 0 1 -0.12256,-0.11419 22.570915,22.570915 0 0 1 -0.11301,-0.10568 22.570915,22.570915 0 0 1 -0.0449,-0.0425 22.570915,22.570915 0 0 1 -0.20039,-0.1931 22.570915,22.570915 0 0 1 -0.18087,-0.17712 22.570915,22.570915 0 0 1 -0.0212,-0.0212 22.570915,22.570915 0 0 1 -0.19919,-0.20271 22.570915,22.570915 0 0 1 -0.21846,-0.22693 22.570915,22.570915 0 0 1 -0.21495,-0.2295 22.570915,22.570915 0 0 1 -0.18322,-0.20155 22.570915,22.570915 0 0 1 -0.0475,-0.0522 22.570915,22.570915 0 0 1 -0.057,-0.0643 22.570915,22.570915 0 0 1 -0.1736,-0.1978 22.570915,22.570915 0 0 1 -0.16513,-0.191669 22.570915,22.570915 0 0 1 -0.0254,-0.02917 22.570915,22.570915 0 0 1 -0.0691,-0.08384 22.570915,22.570915 0 0 1 -0.13107,-0.156685 22.570915,22.570915 0 0 1 -0.10687,-0.132252 22.570915,22.570915 0 0 1 -0.0824,-0.10307 22.570915,22.570915 0 0 1 -0.10804,-0.136005 22.570915,22.570915 0 0 1 -0.0924,-0.118897 22.570915,22.570915 0 0 1 -0.17243,-0.223393 22.570915,22.570915 0 0 1 -0.16513,-0.222216 22.570915,22.570915 0 0 1 -0.0375,-0.04984 22.570915,22.570915 0 0 1 -0.16985,-0.235492 22.570915,22.570915 0 0 1 -0.16138,-0.229501 22.570915,22.570915 0 0 1 -0.0292,-0.04251 22.570915,22.570915 0 0 1 -0.16749,-0.246414 22.570915,22.570915 0 0 1 -0.15902,-0.240357 22.570915,22.570915 0 0 1 -0.0292,-0.04369 22.570915,22.570915 0 0 1 -0.051,-0.08005 22.570915,22.570915 0 0 1 -0.12609,-0.196618 22.570915,22.570915 0 0 1 -0.0693,-0.110395 22.570915,22.570915 0 0 1 -0.10568,-0.171243 22.570915,22.570915 0 0 1 -0.0141,-0.02564 22.570915,22.570915 0 0 1 -0.13836,-0.229501 22.570915,22.570915 0 0 1 -0.0547,-0.09352 22.570915,22.570915 0 0 1 -0.10425,-0.18087 22.570915,22.570915 0 0 1 -0.13484,-0.239167 22.570915,22.570915 0 0 1 -0.0303,-0.05337 22.570915,22.570915 0 0 1 -0.0752,-0.137196 22.570915,22.570915 0 0 1 -0.0632,-0.11772 22.570915,22.570915 0 0 1 -0.12989,-0.246414 22.570915,22.570915 0 0 1 -0.14447,-0.280408 22.570915,22.570915 0 0 1 -0.028,-0.05481 22.570915,22.570915 0 0 1 -0.0643,-0.131075 22.570915,22.570915 0 0 1 -0.0667,-0.137183 22.570915,22.570915 0 0 1 -0.11536,-0.242803 22.570915,22.570915 0 0 1 -0.12492,-0.271907 22.570915,22.570915 0 0 1 -0.009,-0.01883 22.570915,22.570915 0 0 1 -0.0777,-0.175939 22.570915,22.570915 0 0 1 -0.0717,-0.165134 22.570915,22.570915 0 0 1 -0.12256,-0.290114 22.570915,22.570915 0 0 1 -0.0959,-0.234197 22.570915,22.570915 0 0 1 -0.007,-0.01648 22.570915,22.570915 0 0 1 -0.10922,-0.275556 22.570915,22.570915 0 0 1 -0.11157,-0.294979 22.570915,22.570915 0 0 1 -0.0947,-0.262202 22.570915,22.570915 0 0 1 -0.0165,-0.04866 22.570915,22.570915 0 0 1 -0.0984,-0.282841 22.570915,22.570915 0 0 1 -0.0947,-0.282855 22.570915,22.570915 0 0 1 -0.007,-0.02119 22.570915,22.570915 0 0 1 -0.0924,-0.294979 22.570915,22.570915 0 0 1 -0.0897,-0.301049 22.570915,22.570915 0 0 1 -0.0862,-0.303481 22.570915,22.570915 0 0 1 -0.0717,-0.263418 22.570915,22.570915 0 0 1 -0.0141,-0.05101 22.570915,22.570915 0 0 1 -0.0752,-0.294967 22.570915,22.570915 0 0 1 -0.074,-0.305888 22.570915,22.570915 0 0 1 -0.0679,-0.301062 22.570915,22.570915 0 0 1 -10e-4,-0.0092 22.570915,22.570915 0 0 1 -0.0644,-0.305927 22.570915,22.570915 0 0 1 -0.0608,-0.309538 22.570915,22.570915 0 0 1 -0.057,-0.309551 22.570915,22.570915 0 0 1 -0.0413,-0.247643 22.570915,22.570915 0 0 1 -0.0141,-0.08384 22.570915,22.570915 0 0 1 -0.0437,-0.290114 22.570915,22.570915 0 0 1 -0.0437,-0.311984 22.570915,22.570915 0 0 1 -0.0387,-0.310754 22.570915,22.570915 0 0 1 0,-0.0052 22.570915,22.570915 0 0 1 -0.0644,-0.625184 22.570915,22.570915 0 0 1 -0.0643,-0.941993 22.570915,22.570915 0 0 1 -0.0141,-0.31562 22.570915,22.570915 0 0 1 -0.007,-0.264621 22.570915,22.570915 0 0 1 -10e-4,-0.06671 22.570915,22.570915 0 0 1 -0.005,-0.297412 22.570915,22.570915 0 0 1 0.028,-1.260034 22.570915,22.570915 0 0 1 0.0188,-0.314403 22.570915,22.570915 0 0 1 0.005,-0.06056 22.570915,22.570915 0 0 1 0.0118,-0.162794 155.27543,155.27543 0 0 0 -47.64607,-7.49105 155.27543,155.27543 0 0 0 -0.005,0 z m -0.14329,100.928341 a 54.346356,54.346356 0 0 1 0.14822,0 54.346356,54.346356 0 0 1 54.34565,54.34687 54.346356,54.346356 0 0 1 -54.34565,54.34686 54.346356,54.346356 0 0 1 -54.34687,-54.34686 54.346356,54.346356 0 0 1 54.19876,-54.34687 z"
       inkscape:export-xdpi="127.695"
       inkscape:export-ydpi="127.695" />
    <path
       id="path862"
       style="color:#000000;font-style:normal;font-variant:normal;font-weight:normal;font-stretch:normal;font-size:medium;line-height:normal;font-family:sans-serif;font-variant-ligatures:normal;font-variant-position:normal;font-variant-caps:normal;font-variant-numeric:normal;font-variant-alternates:normal;font-variant-east-asian:normal;font-feature-settings:normal;font-variation-settings:normal;text-indent:0;text-align:start;text-decoration:none;text-decoration-line:none;text-decoration-style:solid;text-decoration-color:#000000;letter-spacing:normal;word-spacing:normal;text-transform:none;writing-mode:lr-tb;direction:ltr;text-orientation:mixed;dominant-baseline:auto;baseline-shift:baseline;text-anchor:start;white-space:normal;shape-padding:0;shape-margin:0;inline-size:0;clip-rule:nonzero;display:inline;overflow:visible;visibility:visible;isolation:auto;mix-blend-mode:normal;color-interpolation:sRGB;color-interpolation-filters:linearRGB;solid-color:#000000;solid-opacity:1;vector-effect:none;fill:#4e3b3b;fill-opacity:1;fill-rule:nonzero;stroke:none;stroke-width:6.6146;stroke-linecap:round;stroke-linejoin:round;stroke-miterlimit:4;stroke-dasharray:none;stroke-dashoffset:0;stroke-opacity:1;color-rendering:auto;image-rendering:auto;shape-rendering:auto;text-rendering:auto;enable-background:accumulate;stop-color:#000000"
       d="m 226.4654,72.383915 c -1.09148,-0.0071 -2.18258,-0.0047 -3.27393,0.0094 -36.67786,0.462413 -73.01639,14.206297 -100.85305,38.086515 -7.43879,6.37132 -14.31701,13.40385 -20.44837,21.04438 -18.430616,22.88405 -30.481368,50.91884 -34.039331,80.10852 -0.548692,4.46026 -0.939927,8.94477 -1.077934,13.43679 0.0484,6.13758 0.792451,12.31842 2.699734,18.16985 1.345445,4.02437 3.292544,7.99859 6.468937,10.89728 2.352238,2.17268 5.506866,3.4758 8.720747,3.45844 2.347045,0.0658 4.605499,-1.06939 6.155764,-2.79562 2.227716,-2.44167 3.504217,-5.56067 4.638343,-8.62002 1.637861,-4.56273 2.862997,-9.25686 4.317883,-13.85438 1.757647,-5.53199 3.729567,-11.10202 7.044347,-15.91803 2.29814,-3.34248 5.45463,-6.21679 9.31313,-7.6088 2.93737,-1.05514 6.158,-1.44593 9.24395,-0.90315 3.10401,0.53848 5.86682,2.37777 7.83337,4.80224 2.70525,3.29163 4.34953,7.2915 5.77581,11.2651 2.05857,5.80224 3.50929,11.80409 5.78307,17.55562 1.40683,3.456 3.11978,6.9472 5.96638,9.45273 2.14411,1.92402 5.03607,2.93965 7.90984,2.84297 3.68035,-0.0118 7.45412,-1.09915 10.26365,-3.54826 3.15781,-2.69015 4.94596,-6.61898 5.95423,-10.56832 1.23987,-4.86865 1.4663,-9.92353 1.49676,-14.92504 1.00202,-7.75429 3.86544,-15.26913 8.36385,-21.67077 6.37106,-9.13124 15.79746,-16.195 26.51916,-19.32308 4.02927,-1.22044 8.21563,-1.91033 12.42074,-2.09036 0.4644,-0.0188 1.11865,-0.0396 1.65576,-0.0437 12.38703,-0.0916 24.74868,4.64238 33.87788,13.02164 8.35952,7.68885 14.02304,18.29015 15.6437,29.5418 0.15575,0.86538 0.0672,1.87501 0.0984,2.79805 0.0844,5.8259 0.29821,11.6855 1.38508,17.4233 0.75977,3.82787 1.93211,7.72717 4.43564,10.80018 1.93465,2.40746 4.78411,3.97872 7.80182,4.54732 2.94217,0.5425 6.05499,0.6329 8.92347,-0.32775 3.86772,-1.2638 6.95232,-4.1725 9.29615,-7.41217 3.27417,-4.55072 5.48846,-9.75207 7.49226,-14.95783 2.70145,-7.05607 4.83658,-14.32093 7.72899,-21.30537 1.36166,-3.16493 2.83138,-6.36376 5.11178,-8.98538 1.36426,-1.57282 3.28402,-2.88842 5.44682,-2.81505 2.57692,0.028 5.18634,0.99155 6.95935,2.90368 2.29194,2.41965 3.42527,5.66007 4.25841,8.82392 1.47775,5.90052 1.94418,11.98582 2.71068,18.00354 0.69243,5.56651 1.45798,11.18934 3.39652,16.48248 1.37956,3.72637 3.53731,7.33155 6.87439,9.61057 2.93744,2.04852 6.58293,2.8192 10.12038,2.76043 2.87441,-0.0275 5.79371,0.23756 8.6273,-0.37024 2.10515,-0.42905 4.0164,-1.7179 5.14453,-3.55434 1.62815,-2.58754 2.21176,-5.65591 2.68642,-8.63091 0.86366,-6.10993 0.98729,-12.29221 1.10345,-18.4527 0.009,-2.53569 0.0903,-5.07433 0.007,-7.60877 -0.77985,-16.48203 -4.16836,-32.83544 -9.93708,-48.29674 a 22.570915,26.295825 40.914063 0 1 -25.62935,-1.80509 22.570915,26.295825 40.914063 0 1 -6.99212,-17.27763 35.359219,41.194619 40.914063 0 1 -39.40116,-3.21321 35.359219,41.194619 40.914063 0 1 -8.35294,-39.76414 22.570915,26.295825 40.914063 0 1 -19.55735,-4.14188 22.570915,26.295825 40.914063 0 1 -3.0032,-30.267685 C 256.97,74.758184 241.72181,72.491008 226.46531,72.38361 Z"
       inkscape:export-xdpi="127.695"
       inkscape:export-ydpi="127.695" />
    <path
       id="path864"
       style="color:#000000;font-style:normal;font-variant:normal;font-weight:normal;font-stretch:normal;font-size:medium;line-height:normal;font-family:sans-serif;font-variant-ligatures:normal;font-variant-position:normal;font-variant-caps:normal;font-variant-numeric:normal;font-variant-alternates:normal;font-variant-east-asian:normal;font-feature-settings:normal;font-variation-settings:normal;text-indent:0;text-align:start;text-decoration:none;text-decoration-line:none;text-decoration-style:solid;text-decoration-color:#000000;letter-spacing:normal;word-spacing:normal;text-transform:none;writing-mode:lr-tb;direction:ltr;text-orientation:mixed;dominant-baseline:auto;baseline-shift:baseline;text-anchor:start;white-space:normal;shape-padding:0;shape-margin:0;inline-size:0;clip-rule:nonzero;display:inline;overflow:visible;visibility:visible;isolation:auto;mix-blend-mode:normal;color-interpolation:sRGB;color-interpolation-filters:linearRGB;solid-color:#000000;solid-opacity:1;vector-effect:none;fill:#4e3b3b;fill-opacity:1;fill-rule:nonzero;stroke:none;stroke-width:1;stroke-linecap:round;stroke-linejoin:round;stroke-miterlimit:4;stroke-dasharray:none;stroke-dashoffset:0;stroke-opacity:1;color-rendering:auto;image-rendering:auto;shape-rendering:auto;text-rendering:auto;enable-background:accumulate;stop-color:#000000"
       d="m 226.52124,64.613657 c -1.14339,-0.0071 -2.28608,-0.0047 -3.42931,0.01177 h -0.005 c -38.55201,0.487148 -76.55607,14.866427 -105.80946,39.962023 -7.78465,6.66805 -14.99967,14.04109 -21.448622,22.0774 -19.331485,24.0075 -31.950327,53.34708 -35.690245,84.02946 -0.570377,4.63834 -0.986891,9.3541 -1.133801,14.13602 a 7.7698172,7.7698172 0 0 0 0,0.30225 c 0.05309,6.72419 0.857317,13.69945 3.079696,20.51756 a 7.7698172,7.7698172 0 0 0 0.01883,0.0548 c 1.570251,4.69673 3.98025,9.93723 8.584768,14.14934 3.720167,3.43084 8.592471,5.47166 13.868947,5.48326 4.928378,0.10032 9.124918,-2.11068 12.025023,-5.3315 3.431154,-3.7745 4.968634,-7.90678 6.161834,-11.12552 a 7.7698172,7.7698172 0 0 0 0.028,-0.074 c 1.79301,-4.99495 3.03543,-9.78492 4.40893,-14.12631 1.70574,-5.36869 3.49386,-10.16776 6.03799,-13.86408 a 7.7698172,7.7698172 0 0 0 0.005,-0.005 c 1.59259,-2.31627 3.62301,-4.00522 5.54149,-4.69905 1.81031,-0.64942 3.71696,-0.83591 5.26719,-0.56325 a 7.7698172,7.7698172 0 0 0 0.0141,0.005 c 0.93427,0.16209 2.19436,0.89041 3.12826,2.04179 a 7.7698172,7.7698172 0 0 0 0.0327,0.0375 c 1.72519,2.09913 3.11833,5.20731 4.46355,8.95503 1.87454,5.28968 3.33915,11.3783 5.87291,17.78746 a 7.7698172,7.7698172 0 0 0 0.028,0.074 c 1.54369,3.79221 3.65328,8.47589 8.00088,12.31877 3.68539,3.29615 8.39866,4.92944 13.228,4.79373 5.14093,-0.0408 10.66553,-1.50552 15.16784,-5.4092 4.87823,-4.16993 7.17844,-9.65786 8.42335,-14.53416 1.42524,-5.59659 1.65736,-10.98493 1.70675,-15.97145 0.85763,-6.47654 3.26098,-12.78037 6.98243,-18.07636 a 7.7698172,7.7698172 0 0 0 0.0141,-0.0235 c 5.38938,-7.72429 13.44735,-13.72124 22.32507,-16.31135 a 7.7698172,7.7698172 0 0 0 0.074,-0.0234 c 3.37731,-1.02296 6.92308,-1.6082 10.50156,-1.76138 0.39746,-0.0165 0.99948,-0.0348 1.38141,-0.0375 10.36961,-0.0765 20.93538,3.97246 28.56458,10.97498 7.02494,6.46344 11.85419,15.52329 13.20859,24.92647 a 7.7698172,7.7698172 0 0 0 0.0413,0.27072 c -0.11628,-0.64643 -0.0684,0.14282 -0.0188,1.60114 0.0865,5.92148 0.29097,12.20586 1.5186,18.68697 a 7.7698172,7.7698172 0 0 0 0.009,0.0693 c 0.85921,4.32897 2.24833,9.52681 6.01858,14.16755 3.23266,4.01297 7.70637,6.41466 12.40132,7.29928 a 7.7698172,7.7698172 0 0 0 0.028,0.005 c 3.74094,0.6898 8.16392,0.9401 12.76431,-0.59119 6.04461,-1.98033 10.21831,-6.16266 13.16243,-10.23209 a 7.7698172,7.7698172 0 0 0 0.009,-0.0188 c 3.94387,-5.48154 6.36717,-11.32808 8.43669,-16.70465 a 7.7698172,7.7698172 0 0 0 0.005,-0.009 c 2.8406,-7.41957 4.96116,-14.59183 7.63064,-21.05046 1.30176,-3.02177 2.50784,-5.41173 3.81169,-6.91322 0.35278,0.1062 0.80763,0.21164 0.85339,0.26097 a 7.7698172,7.7698172 0 0 0 0.0559,0.0643 c 0.78424,0.82795 1.65019,2.70307 2.37198,5.42739 1.25561,5.0404 1.73548,10.78081 2.53224,17.03608 0.69934,5.62175 1.48895,11.84008 3.80804,18.17226 a 7.7698172,7.7698172 0 0 0 0.009,0.028 c 1.72471,4.65872 4.56974,9.74982 9.74892,13.30083 4.64915,3.23052 9.90326,4.21432 14.641,4.13825 2.33532,-0.0188 5.78509,0.37531 10.1022,-0.54141 4.15904,-0.85867 7.83172,-3.29895 10.15312,-7.05648 2.63177,-4.20578 3.26498,-8.37478 3.76315,-11.49697 a 7.7698172,7.7698172 0 0 0 0.0235,-0.13836 c 0.95095,-6.72713 1.06244,-13.22682 1.17874,-19.39347 a 7.7698172,7.7698172 0 0 0 0,-0.1189 c 0.009,-2.39032 0.0986,-5.02332 0.007,-7.89163 a 7.7698172,7.7698172 0 0 0 -0.007,-0.11419 c -0.8528,-18.00078 -4.66043,-35.82783 -11.16679,-52.61459 a 22.570915,26.295825 40.914063 0 1 -13.85555,7.30531 c 5.50711,14.73137 8.74894,30.32327 9.49519,46.01215 0.0672,2.14646 0,4.52916 -0.009,7.13051 -0.11537,6.12208 -0.25645,11.953 -1.02218,17.42085 -0.44716,2.77969 -0.98411,4.72429 -1.57926,5.6702 a 7.7698172,7.7698172 0 0 0 -0.0411,0.0728 c 0.0717,-0.11654 -0.056,2.9e-4 -0.0777,0.005 a 7.7698172,7.7698172 0 0 0 -0.0777,0.0188 c -1.30975,0.28093 -3.66612,0.16397 -7.06984,0.19662 a 7.7698172,7.7698172 0 0 0 -0.0559,0 c -2.32231,0.0385 -4.33381,-0.5164 -5.54635,-1.36202 a 7.7698172,7.7698172 0 0 0 -0.0644,-0.046 c -1.47097,-1.00457 -2.93426,-3.10363 -3.96464,-5.8814 -1.55094,-4.2424 -2.29247,-9.25653 -2.97648,-14.7551 a 7.7698172,7.7698172 0 0 0 -0.007,-0.0242 c -0.73347,-5.75824 -1.1919,-12.1587 -2.88188,-18.9067 a 7.7698172,7.7698172 0 0 0 -0.0235,-0.0923 c -0.93883,-3.56525 -2.33575,-8.14682 -6.10232,-12.144 -3.4423,-3.69674 -8.02172,-5.27645 -12.43293,-5.34969 -5.41515,-0.15293 -9.19233,2.80216 -11.50301,5.4638 -3.24892,3.73509 -4.97351,7.72741 -6.3864,11.0114 a 7.7698172,7.7698172 0 0 0 -0.0413,0.097 c -3.10381,7.49495 -5.25545,14.83326 -7.80908,21.50326 -1.93577,5.02775 -3.94091,9.57444 -6.5418,13.19037 -6e-4,0.001 6.5e-4,0.005 0,0.005 -1.73736,2.39528 -3.72354,4.01755 -5.40068,4.56553 a 7.7698172,7.7698172 0 0 0 -0.0547,0.0188 c -1.11906,0.37474 -2.90503,0.44448 -5.02804,0.0558 -1.32879,-0.2532 -2.54187,-0.98738 -3.17558,-1.77596 a 7.7698172,7.7698172 0 0 0 -0.0315,-0.0364 c -1.21651,-1.49325 -2.17236,-4.08174 -2.83085,-7.38305 -0.93547,-4.96011 -1.1618,-10.35137 -1.24426,-16.0479 a 7.7698172,7.7698172 0 0 0 -0.005,-0.14682 c -0.007,-0.22856 0.17124,-1.52657 -0.21118,-3.79469 -1.91456,-13.04042 -8.38199,-25.12676 -18.03633,-34.00655 a 7.7698172,7.7698172 0 0 0 -0.009,-0.005 c -10.62917,-9.75609 -24.78186,-15.1736 -39.18632,-15.06709 -0.68725,0.005 -1.38262,0.0293 -1.91434,0.051 a 7.7698172,7.7698172 0 0 0 -0.0188,0 c -4.82097,0.20648 -9.63812,1.00131 -14.30961,2.41326 -12.54308,3.67213 -23.3189,11.7943 -30.66221,22.31656 -0.001,0.001 -0.003,0.001 -0.005,0.005 -5.24204,7.4677 -8.53895,16.14094 -9.69916,25.11951 a 7.7698172,7.7698172 0 0 0 -0.0644,0.94562 c -0.0292,4.79908 -0.2781,9.21523 -1.2564,13.05685 -0.76927,3.01025 -2.0481,5.36424 -3.46452,6.57091 a 7.7698172,7.7698172 0 0 0 -0.0643,0.0594 c -1.0707,0.93336 -3.01818,1.62579 -5.18462,1.63272 a 7.7698172,7.7698172 0 0 0 -0.23792,0.005 c -0.86998,0.0293 -1.88768,-0.34397 -2.45939,-0.85701 a 7.7698172,7.7698172 0 0 0 -0.0547,-0.051 c -1.31731,-1.15948 -2.63239,-3.4395 -3.89544,-6.53812 -1.99907,-5.07215 -3.43584,-10.95007 -5.66656,-17.23758 a 7.7698172,7.7698172 0 0 0 -0.009,-0.0268 c -1.50525,-4.1936 -3.39595,-9.0744 -7.07106,-13.55334 -2.99461,-3.68375 -7.25156,-6.62131 -12.50693,-7.53838 -0.003,-5.7e-4 -0.007,5.3e-4 -0.009,0 -4.6171,-0.81022 -9.14465,-0.21894 -13.20493,1.23939 a 7.7698172,7.7698172 0 0 0 -0.009,0.005 c -5.79703,2.09137 -10.07761,6.14827 -13.07992,10.5149 -4.083901,5.93465 -6.237873,12.27294 -8.047029,17.96713 a 7.7698172,7.7698172 0 0 0 0,0.009 c -1.529664,4.83379 -2.738097,9.40479 -4.212276,13.52057 -1.067064,2.87334 -2.078591,4.96514 -3.078464,6.06105 a 7.7698172,7.7698172 0 0 0 -0.04133,0.0449 c -0.176422,0.19638 -0.451612,0.21283 -0.156685,0.22105 a 7.7698172,7.7698172 0 0 0 -0.261011,-0.005 c -1.086108,0.005 -2.462148,-0.52053 -3.408654,-1.39481 a 7.7698172,7.7698172 0 0 0 -0.0327,-0.0327 c -1.729173,-1.57797 -3.214104,-4.26823 -4.331225,-7.6015 -1.571507,-4.83697 -2.244681,-10.16809 -2.297956,-15.6595 0.133665,-4.14427 0.494227,-8.33085 1.01362,-12.55304 a 7.7698172,7.7698172 0 0 0 0,-0.009 c 3.375353,-27.69146 14.853608,-54.42209 32.37748,-76.18029 a 7.7698172,7.7698172 0 0 0 0.009,-0.009 c 5.81237,-7.24307 12.34858,-13.93063 19.43958,-20.00404 a 7.7698172,7.7698172 0 0 0 0.009,-0.005 C 153.80846,93.715542 188.4769,80.604749 223.27903,80.165968 a 7.7698172,7.7698172 0 0 0 0.005,-0.0052 l 0.001,0.0012 c 15.27445,-0.201785 30.58919,1.883595 45.21218,6.212805 a 22.570915,26.295825 40.914063 0 1 6.14723,-11.479966 22.570915,26.295825 40.914063 0 1 0.0912,-0.1043 22.570915,26.295825 40.914063 0 1 2.02602,-2.123131 C 260.53479,67.423477 243.52946,64.735654 226.51343,64.6155 Z M 332.29551,211.73987 a 7.7698172,7.7698172 0 0 0 0.17853,0.005 c 0.0242,2.6e-4 0.0307,0.007 0.0487,0.0118 -0.0846,-0.005 -0.0672,-0.009 -0.22692,-0.0165 z"
       inkscape:export-xdpi="127.695"
       inkscape:export-ydpi="127.695" />
    <path
       id="path842"
       style="fill:#6c5353;fill-opacity:1;stroke:none;stroke-width:0.0893158;stroke-miterlimit:4;stroke-dasharray:none"
       d="m 226.4654,72.383915 c -1.09148,-0.0071 -2.18258,-0.0047 -3.27393,0.0094 -36.67786,0.462413 -73.01639,14.206297 -100.85305,38.086515 -7.43879,6.37132 -14.31701,13.40385 -20.44837,21.04438 -18.430616,22.88405 -30.481368,50.91884 -34.039331,80.10852 -0.548692,4.46026 -0.939927,8.94477 -1.077934,13.43679 0.0484,6.13758 0.792451,12.31842 2.699734,18.16985 1.345445,4.02437 3.292544,7.99859 6.468937,10.89728 2.352238,2.17268 5.506866,3.4758 8.720747,3.45844 2.347045,0.0658 4.605499,-1.06939 6.155764,-2.79562 2.227716,-2.44167 3.504217,-5.56067 4.638343,-8.62002 1.637861,-4.56273 2.862997,-9.25686 4.317883,-13.85438 1.757647,-5.53199 3.729567,-11.10202 7.044347,-15.91803 2.29814,-3.34248 5.45463,-6.21679 9.31313,-7.6088 2.93737,-1.05514 6.158,-1.44593 9.24395,-0.90315 3.10401,0.53848 5.86682,2.37777 7.83337,4.80224 2.70525,3.29163 4.34953,7.2915 5.77581,11.2651 2.05857,5.80224 3.50929,11.80409 5.78307,17.55562 1.40683,3.456 3.11978,6.9472 5.96638,9.45273 2.14411,1.92402 5.03607,2.93965 7.90984,2.84297 3.68035,-0.0118 7.45412,-1.09915 10.26365,-3.54826 3.15781,-2.69015 4.94596,-6.61898 5.95423,-10.56832 1.23987,-4.86865 1.4663,-9.92353 1.49676,-14.92504 1.00202,-7.75429 3.86544,-15.26913 8.36385,-21.67077 6.37106,-9.13124 15.79746,-16.195 26.51916,-19.32308 4.02927,-1.22044 8.21563,-1.91033 12.42074,-2.09036 0.4644,-0.0188 1.11865,-0.0396 1.65576,-0.0437 12.38703,-0.0916 24.74868,4.64238 33.87788,13.02164 8.35952,7.68885 14.02304,18.29015 15.6437,29.5418 0.15575,0.86538 0.0672,1.87501 0.0984,2.79805 0.0844,5.8259 0.29821,11.6855 1.38508,17.4233 0.75977,3.82787 1.93211,7.72717 4.43564,10.80018 1.93465,2.40746 4.78411,3.97872 7.80182,4.54732 2.94217,0.5425 6.05499,0.6329 8.92347,-0.32775 3.86772,-1.2638 6.95232,-4.1725 9.29615,-7.41217 3.27417,-4.55072 5.48846,-9.75207 7.49226,-14.95783 2.70145,-7.05607 4.83658,-14.32093 7.72899,-21.30537 1.36166,-3.16493 2.83138,-6.36376 5.11178,-8.98538 1.36426,-1.57282 3.28402,-2.88842 5.44682,-2.81505 2.57692,0.028 5.18634,0.99155 6.95935,2.90368 2.29194,2.41965 3.42527,5.66007 4.25841,8.82392 1.47775,5.90052 1.94418,11.98582 2.71068,18.00354 0.69243,5.56651 1.45798,11.18934 3.39652,16.48248 1.37956,3.72637 3.53731,7.33155 6.87439,9.61057 2.93744,2.04852 6.58293,2.8192 10.12038,2.76043 2.87441,-0.0275 5.79371,0.23756 8.6273,-0.37024 2.10515,-0.42905 4.0164,-1.7179 5.14453,-3.55434 1.62815,-2.58754 2.21176,-5.65591 2.68642,-8.63091 0.86366,-6.10993 0.98729,-12.29221 1.10345,-18.4527 0.009,-2.53569 0.0903,-5.07433 0.007,-7.60877 -0.74971,-15.84459 -3.90991,-31.57016 -9.2779,-46.49894 a 22.570915,30.393188 40.914063 0 1 -33.23331,4.41014 22.570915,30.393188 40.914063 0 1 -6.1266,-18.27544 35.359219,47.613481 40.914063 0 1 -41.78774,-0.46009 35.359219,47.613481 40.914063 0 1 -5.84499,-42.65809 22.570915,30.393188 40.914063 0 1 -20.54545,-3.00201 22.570915,30.393188 40.914063 0 1 2.74465,-37.63008 22.570915,30.393188 40.914063 0 1 0.10424,-0.120205 22.570915,30.393188 40.914063 0 1 0.59845,-0.676134 c -14.45564,-4.31835 -29.53087,-6.539955 -44.61541,-6.646156 z"
       inkscape:export-xdpi="127.695"
       inkscape:export-ydpi="127.695" />
    <path
       id="path882"
       style="opacity:0.462753;fill:#ffffff;fill-opacity:1;stroke:none;stroke-width:0.0896936;stroke-miterlimit:4;stroke-dasharray:none"
       d="m 332.29551,211.73987 c 0.15997,0.005 0.14235,0.009 0.22693,0.0165 -0.0188,-0.003 -0.0245,-0.0118 -0.0487,-0.0118 a 7.7698172,7.7698172 0 0 1 -0.17853,-0.005 z m 0.67494,0.15409 c -1.30385,1.5015 -2.50993,3.89146 -3.81168,6.91323 -2.66948,6.45864 -4.79006,13.63089 -7.63067,21.05045 a 7.7698172,7.7698172 0 0 1 -0.005,0.009 c -2.06954,5.37654 -4.49281,11.2231 -8.43669,16.70463 a 7.7698172,7.7698172 0 0 1 -0.009,0.0188 c -1.88024,2.59886 -4.26585,5.24062 -7.31626,7.32839 -4.75495,11.94223 -12.0845,22.82981 -21.72295,31.43307 -24.19635,22.36965 -61.7845,29.09821 -92.06314,15.87313 -24.87021,-10.39236 -44.19945,-33.14737 -50.58979,-59.2778 -1.72708,-2.57044 -2.87624,-5.19857 -3.8129,-7.49955 a 7.7698172,7.7698172 0 0 1 -0.028,-0.074 c -2.53376,-6.40914 -3.99837,-12.4978 -5.87289,-17.78747 -1.34525,-3.74772 -2.73838,-6.85589 -4.46358,-8.95503 a 7.7698172,7.7698172 0 0 1 -0.0327,-0.0375 c -0.93389,-1.15136 -2.19398,-1.87972 -3.12824,-2.04181 a 7.7698172,7.7698172 0 0 1 -0.0141,-0.005 c -1.55021,-0.27265 -3.45685,-0.0862 -5.26716,0.56326 -1.91848,0.69382 -3.94893,2.3828 -5.54152,4.69906 a 7.7698172,7.7698172 0 0 1 -0.005,0.005 c -2.54413,3.69632 -4.33222,8.4954 -6.03799,13.8641 -1.12657,3.56084 -2.17091,7.42684 -3.49729,11.4569 0.12243,0.9902 0.25238,1.97965 0.39936,2.9656 2.18229,14.8761 6.95319,29.1166 14.32298,42.28541 13.5554,24.18705 35.44787,43.66218 61.30865,53.92563 16.80978,6.76724 35.17559,9.81794 53.1475,8.7062 27.04015,-1.6077 53.65783,-12.33865 73.95522,-30.44492 19.20237,-16.92532 33.04216,-39.87899 38.5842,-64.83871 -1.17992,-1.93237 -2.08706,-3.92846 -2.79929,-5.85227 a 7.7698172,7.7698172 0 0 1 -0.009,-0.028 c -2.31907,-6.33219 -3.10868,-12.55054 -3.80802,-18.1723 -0.79675,-6.25528 -1.27663,-11.99569 -2.53223,-17.03604 -0.72179,-2.72433 -1.58775,-4.59945 -2.37198,-5.42739 a 7.7698172,7.7698172 0 0 1 -0.0559,-0.0644 c -0.0458,-0.0493 -0.50058,-0.1548 -0.85336,-0.26098 z"
       inkscape:export-xdpi="127.695"
       inkscape:export-ydpi="127.695" />
    <path
       id="path917"
       style="opacity:0.447766;fill:#ffffff;fill-opacity:1;stroke:none;stroke-width:0.0896936;stroke-miterlimit:4;stroke-dasharray:none"
       d="m 226.09273,108.51725 c -2.2992,-0.0317 -4.60494,-0.005 -6.87804,0.12491 -18.02056,0.98863 -36.14,6.13533 -52.01735,14.70775 -24.27152,12.85817 -43.69701,34.34529 -54.46948,59.57276 -3.94952,9.09448 -6.73184,18.68194 -8.33351,28.44804 6.12961,-7.66301 17.66333,-11.22225 26.67089,-6.69958 4.37283,2.23894 7.32562,6.09655 9.53527,10.38138 4.10358,-21.01438 15.87108,-40.57583 33.32312,-53.14267 14.75434,-10.90576 32.97812,-17.16108 51.35213,-17.206 35.08134,-0.35417 69.1236,22.9282 81.31272,55.85941 3.45985,8.8778 5.25465,18.30539 5.51239,27.78889 0.6603,-1.90477 1.32068,-3.80717 2.01873,-5.69082 2.50932,-7.07445 5.00316,-14.51819 10.17865,-20.14367 3.53933,-3.50803 9.16739,-4.54136 13.71843,-2.49337 3.67782,1.47474 6.39089,4.40652 8.1927,7.85158 -1.14238,-5.89742 -2.71355,-11.71092 -4.71847,-17.37716 -0.0834,-0.23575 -0.17126,-0.47004 -0.25615,-0.70528 a 22.570915,33.223157 40.914063 0 1 -4.00107,-2.51401 22.570915,33.223157 40.914063 0 1 -5.6556,-18.06181 c -0.12007,-0.20438 -0.2431,-0.40697 -0.36417,-0.6106 a 35.359219,52.046878 40.914063 0 1 -42.9434,1.14715 35.359219,52.046878 40.914063 0 1 -4.11394,-44.6562 22.570915,33.223157 40.914063 0 1 -21.22647,-2.21538 22.570915,33.223157 40.914063 0 1 -5.51602,-10.17502 c -7.99941,-2.16152 -16.21338,-3.51561 -24.48582,-3.9695 -2.24374,-0.10006 -4.53635,-0.1891 -6.83554,-0.22105 z"
       inkscape:export-xdpi="127.695"
       inkscape:export-ydpi="127.695" />
    <g
       id="g2001"
       transform="matrix(2.3490642,0,0,2.3490642,-267.67955,-117.45986)"
       style="stroke-width:0.425701"
       inkscape:export-xdpi="127.695"
       inkscape:export-ydpi="127.695">
      <rect
         style="opacity:1;fill:#0000ff;stroke:none;stroke-width:0.00690683;stroke-linecap:round;stroke-linejoin:round"
         id="rect1986"
         width="11.799841"
         height="2.2656746"
         x="196.48488"
         y="-8.2604523"
         ry="1.1328373"
         transform="rotate(43.122712)" />
      <rect
         style="opacity:1;fill:#0000ff;stroke:none;stroke-width:0.00690683;stroke-linecap:round;stroke-linejoin:round"
         id="rect1988"
         width="11.799841"
         height="2.2656746"
         x="177.89784"
         y="-134.40805"
         ry="1.1328373"
         transform="rotate(71.842343)" />
      <rect
         style="opacity:1;fill:#0000ff;stroke:none;stroke-width:0.00690683;stroke-linecap:round;stroke-linejoin:round"
         id="rect1970"
         width="11.799841"
         height="2.2656746"
         x="-44.603828"
         y="-241.79837"
         ry="1.1328373"
         transform="rotate(126.34718)" />
      <rect
         style="opacity:1;fill:#0000ff;stroke:none;stroke-width:0.00690683;stroke-linecap:round;stroke-linejoin:round"
         id="rect1972"
         width="11.799841"
         height="2.2656746"
         x="156.27702"
         y="137.17374"
         ry="1.1328373"
         transform="rotate(-14.493181)" />
      <rect
         style="opacity:1;fill:#ff7f2a;stroke:none;stroke-width:0.00690683;stroke-linecap:round;stroke-linejoin:round"
         id="rect1974"
         width="11.799841"
         height="2.2656746"
         x="-116.36673"
         y="-180.81636"
         ry="1.1328373"
         transform="rotate(157.16558)" />
      <rect
         style="opacity:1;fill:#00ff00;stroke:none;stroke-width:0.00690683;stroke-linecap:round;stroke-linejoin:round"
         id="rect1976"
         width="11.799841"
         height="2.2656746"
         x="29.640642"
         y="-225.58867"
         ry="1.1328373"
         transform="rotate(110.10117)" />
      <rect
         style="opacity:1;fill:#ff6600;stroke:none;stroke-width:0.00690683;stroke-linecap:round;stroke-linejoin:round"
         id="rect1978"
         width="11.799841"
         height="2.2656746"
         x="221.40041"
         y="-52.710632"
         ry="1.1328373"
         transform="rotate(37.089622)" />
      <rect
         style="opacity:1;fill:#00ff00;stroke:none;stroke-width:0.00690683;stroke-linecap:round;stroke-linejoin:round"
         id="rect1980"
         width="11.799841"
         height="2.2656746"
         x="44.281704"
         y="275.83261"
         ry="1.1328373"
         transform="rotate(-49.136637)" />
      <rect
         style="opacity:1;fill:#0000ff;stroke:none;stroke-width:0.00690683;stroke-linecap:round;stroke-linejoin:round"
         id="rect1982"
         width="11.799841"
         height="2.2656746"
         x="-65.394173"
         y="293.74277"
         ry="1.1328373"
         transform="rotate(-74.248559)" />
      <rect
         style="opacity:1;fill:#ff6600;stroke:none;stroke-width:0.00690683;stroke-linecap:round;stroke-linejoin:round"
         id="rect1984"
         width="11.799841"
         height="2.2656746"
         x="-265.52869"
         y="-15.423917"
         ry="1.1328373"
         transform="rotate(-153.99836)" />
      <rect
         style="opacity:1;fill:#00ff00;stroke:none;stroke-width:0.00690683;stroke-linecap:round;stroke-linejoin:round"
         id="rect1956"
         width="11.799841"
         height="2.2656746"
         x="-193.70444"
         y="71.457039"
         ry="1.1328373"
         transform="rotate(-127.93346)" />
    </g>
  </g>
</svg>
