<?xml version="1.0" encoding="UTF-8" standalone="no"?>
<svg
   xmlns:dc="http://purl.org/dc/elements/1.1/"
   xmlns:cc="http://creativecommons.org/ns#"
   xmlns:rdf="http://www.w3.org/1999/02/22-rdf-syntax-ns#"
   xmlns:svg="http://www.w3.org/2000/svg"
   xmlns="http://www.w3.org/2000/svg"
   xmlns:sodipodi="http://sodipodi.sourceforge.net/DTD/sodipodi-0.dtd"
   xmlns:inkscape="http://www.inkscape.org/namespaces/inkscape"
   width="451.2612mm"
   height="451.2612mm"
   viewBox="0 0 451.2612 451.2612"
   version="1.1"
   id="svg2095"
   inkscape:version="1.0.1 (3bc2e813f5, 2020-09-07)"
   sodipodi:docname="drawing13(Vintage Space).svg">
  <defs
     id="defs2089">
    <marker
       style="overflow:visible"
       id="marker1889"
       refX="0.0"
       refY="0.0"
       orient="auto"
       inkscape:stockid="Arrow1Lstart"
       inkscape:isstock="true">
      <path
         transform="scale(0.8) translate(12.5,0)"
         style="fill-rule:evenodd;stroke:#000000;stroke-width:1pt;stroke-opacity:1;fill:#000000;fill-opacity:1"
         d="M 0.0,0.0 L 5.0,-5.0 L -12.5,0.0 L 5.0,5.0 L 0.0,0.0 z "
         id="path1887" />
    </marker>
    <marker
       style="overflow:visible"
       id="marker1855"
       refX="0.0"
       refY="0.0"
       orient="auto"
       inkscape:stockid="Arrow1Lstart"
       inkscape:isstock="true">
      <path
         transform="scale(0.8) translate(12.5,0)"
         style="fill-rule:evenodd;stroke:#000000;stroke-width:1.0pt"
         d="M 0.0,0.0 L 5.0,-5.0 L -12.5,0.0 L 5.0,5.0 L 0.0,0.0 z "
         id="path1853" />
    </marker>
    <marker
       style="overflow:visible"
       id="marker1827"
       refX="0.0"
       refY="0.0"
       orient="auto"
       inkscape:stockid="Arrow1Lstart"
       inkscape:isstock="true">
      <path
         transform="scale(0.8) translate(12.5,0)"
         style="fill-rule:evenodd;stroke:#000000;stroke-width:1.0pt"
         d="M 0.0,0.0 L 5.0,-5.0 L -12.5,0.0 L 5.0,5.0 L 0.0,0.0 z "
         id="path1825" />
    </marker>
    <marker
       style="overflow:visible"
       id="marker1805"
       refX="0.0"
       refY="0.0"
       orient="auto"
       inkscape:stockid="Arrow1Lstart"
       inkscape:isstock="true">
      <path
         transform="scale(0.8) translate(12.5,0)"
         style="fill-rule:evenodd;stroke:#000000;stroke-width:1.0pt"
         d="M 0.0,0.0 L 5.0,-5.0 L -12.5,0.0 L 5.0,5.0 L 0.0,0.0 z "
         id="path1803" />
    </marker>
    <marker
       style="overflow:visible"
       id="marker1789"
       refX="0.0"
       refY="0.0"
       orient="auto"
       inkscape:stockid="Arrow1Lstart"
       inkscape:isstock="true">
      <path
         transform="scale(0.8) translate(12.5,0)"
         style="fill-rule:evenodd;stroke:#000000;stroke-width:1.0pt"
         d="M 0.0,0.0 L 5.0,-5.0 L -12.5,0.0 L 5.0,5.0 L 0.0,0.0 z "
         id="path1787" />
    </marker>
    <marker
       style="overflow:visible"
       id="Arrow1Lstart"
       refX="0.0"
       refY="0.0"
       orient="auto"
       inkscape:stockid="Arrow1Lstart"
       inkscape:isstock="true">
      <path
         transform="scale(0.8) translate(12.5,0)"
         style="fill-rule:evenodd;stroke:#000000;stroke-width:1.0pt"
         d="M 0.0,0.0 L 5.0,-5.0 L -12.5,0.0 L 5.0,5.0 L 0.0,0.0 z "
         id="path1517" />
    </marker>
  </defs>
  <sodipodi:namedview
     id="base"
     pagecolor="#333333"
     bordercolor="#666666"
     borderopacity="1.0"
     inkscape:pageopacity="0"
     inkscape:pageshadow="2"
     inkscape:zoom="1"
     inkscape:cx="1049.3825"
     inkscape:cy="946.74231"
     inkscape:document-units="mm"
     inkscape:current-layer="layer2"
     inkscape:document-rotation="0"
     showgrid="false"
     fit-margin-top="0"
     fit-margin-left="0"
     fit-margin-right="0"
     fit-margin-bottom="0"
     showborder="false"
     showguides="true"
     inkscape:guide-bbox="true"
     inkscape:snap-smooth-nodes="true"
     inkscape:snap-center="true"
     inkscape:snap-global="false"
     inkscape:window-width="1904"
     inkscape:window-height="1037"
     inkscape:window-x="8"
     inkscape:window-y="35"
     inkscape:window-maximized="0" />
  <metadata
     id="metadata2092">
    <rdf:RDF>
      <cc:Work
         rdf:about="">
        <dc:format>image/svg+xml</dc:format>
        <dc:type
           rdf:resource="http://purl.org/dc/dcmitype/StillImage" />
        <dc:title></dc:title>
      </cc:Work>
    </rdf:RDF>
  </metadata>
  <g
     inkscape:label="Canvas"
     inkscape:groupmode="layer"
     id="layer1"
     transform="translate(15.6306,77.1306)"
     sodipodi:insensitive="true">
    <rect
       style="opacity:1;fill:#ffffff;stroke-width:0.0894292;stroke-linecap:round;stroke-linejoin:round"
       id="rect2110"
       width="451.2612"
       height="451.2612"
       x="-15.6306"
       y="-77.1306"
       ry="1.1328373" />
  </g>
  <g
     inkscape:groupmode="layer"
     id="layer2"
     inkscape:label="Layer 1">
    <g
       aria-label="VINTAGE TOP HALF"
       id="text1426"
       style="font-style:normal;font-variant:normal;font-weight:bold;font-stretch:normal;font-size:10.5833px;line-height:1.25;font-family:FreeSerif;-inkscape-font-specification:'FreeSerif, Bold';font-variant-ligatures:normal;font-variant-caps:normal;font-variant-numeric:normal;font-variant-east-asian:normal;letter-spacing:1.22767px;fill:#000000;fill-opacity:1;stroke:none;stroke-width:0.264583"
       inkscape:export-xdpi="90"
       inkscape:export-ydpi="90">
      <path
         d="m 239.73867,218.88262 0.24245,0.10596 q -0.1168,0.3994 -0.0434,0.62783 0.0777,0.21873 0.45716,0.59248 l 4.72627,4.69881 -0.11443,0.26184 -6.89386,-0.056 q -0.47812,0.0105 -0.65383,0.0954 -0.1757,0.0849 -0.381,0.42253 l -0.24244,-0.10595 1.42398,-3.25842 0.24245,0.10595 q -0.10775,0.29941 -0.12047,0.3285 -0.19552,0.52669 0.1245,0.66655 0.17456,0.0763 0.79571,0.0821 l 3.82388,0.0772 -2.6523,-2.62593 q -0.40982,-0.41009 -0.60378,-0.49485 -0.23274,-0.10172 -0.37813,0.0195 -0.14539,0.12126 -0.41304,0.62798 l -0.24244,-0.10595 z"
         style="font-style:normal;font-variant:normal;font-weight:bold;font-stretch:normal;font-size:10.5833px;font-family:FreeSerif;-inkscape-font-specification:'FreeSerif, Bold';font-variant-ligatures:normal;font-variant-caps:normal;font-variant-numeric:normal;font-variant-east-asian:normal;stroke-width:0.264583"
         id="path1441" />
      <path
         d="m 246.77819,219.0581 -4.35716,-2.69318 q -0.34209,-0.21145 -0.57942,-0.10931 -0.24076,0.0876 -0.57725,0.55145 l -0.22506,-0.13911 1.94755,-3.15084 0.22507,0.13911 q -0.28804,0.50626 -0.2643,0.76978 0.0238,0.26351 0.37484,0.48053 l 4.35717,2.69318 q 0.35109,0.21701 0.58285,0.12387 0.23176,-0.0931 0.58494,-0.58402 l 0.22506,0.13911 -1.94755,3.15084 -0.22506,-0.13911 q 0.2666,-0.53196 0.24072,-0.7719 -0.0203,-0.24895 -0.3624,-0.4604 z"
         style="font-style:normal;font-variant:normal;font-weight:bold;font-stretch:normal;font-size:10.5833px;font-family:FreeSerif;-inkscape-font-specification:'FreeSerif, Bold';font-variant-ligatures:normal;font-variant-caps:normal;font-variant-numeric:normal;font-variant-east-asian:normal;stroke-width:0.264583"
         id="path1443" />
      <path
         d="m 245.91814,209.52392 5.85218,0.091 -2.472,-2.07572 q -0.42956,-0.3607 -0.72097,-0.34282 -0.29951,0.0111 -0.71434,0.42282 l -0.20263,-0.17014 1.46321,-1.74256 0.20263,0.17014 q -0.26864,0.45159 -0.24915,0.67525 0.0182,0.20874 0.3667,0.50139 l 4.7738,4.00851 -0.19056,0.22694 -7.45119,-0.0794 3.25818,2.73587 q 0.42956,0.3607 0.71416,0.35092 0.2833,-0.0247 0.73476,-0.44713 l 0.20262,0.17014 -1.54488,1.83981 -0.20262,-0.17014 q 0.31757,-0.49341 0.30489,-0.72517 -0.006,-0.23987 -0.35439,-0.53251 l -3.84173,-3.22587 q -0.59351,-8.6e-4 -0.82268,0.0416 -0.23727,0.0357 -0.33935,0.15728 l -0.20262,-0.17015 z"
         style="font-style:normal;font-variant:normal;font-weight:bold;font-stretch:normal;font-size:10.5833px;font-family:FreeSerif;-inkscape-font-specification:'FreeSerif, Bold';font-variant-ligatures:normal;font-variant-caps:normal;font-variant-numeric:normal;font-variant-east-asian:normal;stroke-width:0.264583"
         id="path1445" />
      <path
         d="m 256.80153,206.69903 -3.61366,-4.2484 q -0.72915,0.66189 -0.81643,1.278 -0.0861,0.60119 0.4194,1.4078 l -0.23378,0.19885 -1.35408,-1.64092 4.83688,-4.11423 1.39439,1.60664 -0.23378,0.19886 q -0.71508,-0.62833 -1.33035,-0.63296 -0.61407,-0.0195 -1.3763,0.58712 l 3.61366,4.2484 q 0.39085,0.4595 0.62269,0.47071 0.2399,0.004 0.79818,-0.40105 l 0.17143,0.20154 -2.87794,2.44796 -0.17143,-0.20154 q 0.48165,-0.47915 0.50778,-0.70979 0.0273,-0.24555 -0.35666,-0.69699 z"
         style="font-style:normal;font-variant:normal;font-weight:bold;font-stretch:normal;font-size:10.5833px;font-family:FreeSerif;-inkscape-font-specification:'FreeSerif, Bold';font-variant-ligatures:normal;font-variant-caps:normal;font-variant-numeric:normal;font-variant-east-asian:normal;stroke-width:0.264583"
         id="path1447" />
      <path
         d="m 267.73328,200.35971 0.13579,0.22708 -2.94298,1.75978 -0.13579,-0.22708 q 0.17446,-0.14131 0.27437,-0.20106 0.4197,-0.28796 0.25676,-0.56046 -0.16294,-0.27249 -1.1565,-0.98548 l -2.04374,1.22207 0.0756,0.43572 q 0.14394,0.83876 0.23627,0.99317 0.1032,0.17259 0.3301,0.16022 0.22146,-0.0215 0.63742,-0.23318 l 0.13578,0.22708 -1.8439,1.10258 -0.13579,-0.22708 q 0.28898,-0.25912 0.32569,-0.52768 0.0458,-0.274 -0.071,-1.06734 l -0.95993,-6.18342 0.25433,-0.15207 4.8825,3.5666 q 0.81405,0.59836 1.12784,0.73133 0.31746,0.11845 0.58087,-0.0391 z m -5.68766,0.79913 1.77123,-1.05912 -2.23724,-1.65867 z"
         style="font-style:normal;font-variant:normal;font-weight:bold;font-stretch:normal;font-size:10.5833px;font-family:FreeSerif;-inkscape-font-specification:'FreeSerif, Bold';font-variant-ligatures:normal;font-variant-caps:normal;font-variant-numeric:normal;font-variant-east-asian:normal;stroke-width:0.264583"
         id="path1449" />
      <path
         d="m 270.42937,191.64251 q 0.46633,-0.17307 0.92101,-0.19506 0.46091,-0.0356 0.78291,-0.0196 0.32201,0.016 0.47084,-0.0393 0.13891,-0.0516 0.2013,-0.1876 0.0624,-0.13604 0.0659,-0.43084 l 0.2679,-0.0994 0.86166,2.32175 -0.24805,0.0921 q -0.46786,-0.46982 -0.8003,-0.69639 -0.3262,-0.24017 -0.74681,-0.40015 -0.85114,-0.31628 -1.52584,-0.0659 -0.9029,0.3351 -1.06728,1.32177 -0.15815,0.97308 0.41998,2.53083 0.65914,1.77605 1.60971,2.36022 0.70456,0.43841 1.59754,0.107 0.4961,-0.18411 0.66171,-0.43748 0.16193,-0.26329 0.022,-0.64033 l -0.38665,-1.04181 q -0.15098,-0.40681 -0.38368,-0.45591 -0.22647,-0.0627 -0.87621,0.13328 l -0.0921,-0.24805 3.40326,-1.26304 0.0921,0.24805 q -0.53354,0.26574 -0.62345,0.47973 -0.0899,0.21399 0.10894,0.74978 l 0.46765,1.26009 q -0.37315,0.45457 -1.0547,0.89942 -0.68155,0.44485 -1.45547,0.73208 -1.55776,0.57812 -2.90715,-0.0161 -1.34315,-0.6078 -1.91391,-2.14572 -0.56708,-1.52799 0.0359,-2.91451 0.61292,-1.3902 2.0913,-1.93887 z"
         style="font-style:normal;font-variant:normal;font-weight:bold;font-stretch:normal;font-size:10.5833px;font-family:FreeSerif;-inkscape-font-specification:'FreeSerif, Bold';font-variant-ligatures:normal;font-variant-caps:normal;font-variant-numeric:normal;font-variant-east-asian:normal;stroke-width:0.264583"
         id="path1451" />
      <path
         d="m 281.70885,195.79164 q 1.13565,-0.20256 1.64776,-0.76691 0.51211,-0.56436 0.77389,-1.56783 l 0.29173,-0.052 -0.0302,2.24146 -6.09504,1.08712 -0.0465,-0.26047 q 0.57231,-0.16658 0.71485,-0.33176 0.14255,-0.16518 0.0701,-0.57152 l -0.89943,-5.04273 q -0.0706,-0.39592 -0.28603,-0.51875 -0.21541,-0.12283 -0.76277,-0.0575 l -0.0465,-0.26047 6.01169,-1.07225 0.37352,2.09419 -0.26047,0.0465 q -0.38379,-1.00658 -0.94522,-1.2612 -0.56329,-0.26505 -1.83439,-0.0383 -0.40634,0.0725 -0.5232,0.20082 -0.11872,0.11793 -0.0667,0.40966 l 0.43113,2.41718 0.0417,-0.007 q 0.82309,-0.1468 1.11787,-0.54339 0.29291,-0.40701 0.25142,-1.30263 l 0.27089,-0.0483 0.62812,3.52158 -0.27089,0.0483 q -0.25545,-0.88971 -0.69371,-1.17705 -0.42784,-0.2892 -1.28219,-0.13682 l 0.44971,2.52136 q 0.0595,0.33341 0.25889,0.42684 0.20984,0.0916 0.70995,0.002 z"
         style="font-style:normal;font-variant:normal;font-weight:bold;font-stretch:normal;font-size:10.5833px;font-family:FreeSerif;-inkscape-font-specification:'FreeSerif, Bold';font-variant-ligatures:normal;font-variant-caps:normal;font-variant-numeric:normal;font-variant-east-asian:normal;stroke-width:0.264583"
         id="path1453" />
      <path
         d="m 292.83436,194.2017 0.37454,-5.5648 q -0.98416,-0.0344 -1.47649,0.34613 -0.48106,0.37069 -0.68159,1.30124 l -0.30622,-0.0206 0.17453,-2.12031 6.33564,0.42642 -0.12173,2.12386 -0.30622,-0.0206 q -0.074,-0.94902 -0.51163,-1.38155 -0.42633,-0.44238 -1.39567,-0.53944 l -0.37454,5.56481 q -0.0405,0.60188 0.11778,0.77165 0.16885,0.17047 0.85166,0.26946 l -0.0178,0.26399 -3.76971,-0.25372 0.0178,-0.26399 q 0.67936,-0.007 0.85897,-0.15433 0.19088,-0.15687 0.23068,-0.7482 z"
         style="font-style:normal;font-variant:normal;font-weight:bold;font-stretch:normal;font-size:10.5833px;font-family:FreeSerif;-inkscape-font-specification:'FreeSerif, Bold';font-variant-ligatures:normal;font-variant-caps:normal;font-variant-numeric:normal;font-variant-east-asian:normal;stroke-width:0.264583"
         id="path1455" />
      <path
         d="m 303.93961,189.74961 q 1.55103,0.38493 2.31045,1.67474 0.7697,1.29236 0.37967,2.86393 -0.39513,1.59212 -1.67722,2.36436 -1.27182,0.7748 -2.86393,0.37967 -1.59211,-0.39513 -2.36691,-1.66695 -0.76197,-1.27954 -0.36685,-2.87165 0.39768,-1.60239 1.67977,-2.37463 1.29237,-0.7697 2.90502,-0.36947 z m -0.0944,0.33641 q -0.90391,-0.22433 -1.59309,0.5315 -0.68919,0.75583 -1.10216,2.41985 -0.38748,1.56129 -0.12919,2.49774 0.26856,0.939 1.15193,1.15824 0.88336,0.21923 1.54952,-0.48779 0.67899,-0.71475 1.07157,-2.29659 0.39768,-1.60238 0.14441,-2.60301 -0.24044,-1.00835 -1.09299,-1.21994 z"
         style="font-style:normal;font-variant:normal;font-weight:bold;font-stretch:normal;font-size:10.5833px;font-family:FreeSerif;-inkscape-font-specification:'FreeSerif, Bold';font-variant-ligatures:normal;font-variant-caps:normal;font-variant-numeric:normal;font-variant-east-asian:normal;stroke-width:0.264583"
         id="path1457" />
      <path
         d="m 311.16323,196.50323 -0.79782,1.79956 q -0.23591,0.53213 -0.1648,0.73731 0.0851,0.19979 0.62159,0.53027 l -0.10724,0.24188 -3.23148,-1.43265 0.10723,-0.24188 q 0.23001,0.0557 0.24936,0.0642 0.35579,0.11143 0.5491,-0.0113 0.20727,-0.12806 0.40887,-0.58279 l 1.89591,-4.2764 q 0.22733,-0.51278 0.14545,-0.74588 -0.0776,-0.24279 -0.56354,-0.50453 l 0.10724,-0.24188 3.11538,1.38118 q 1.20938,0.53617 1.6614,1.29225 0.46598,0.7507 0.0928,1.59243 -0.24879,0.56116 -0.7568,0.84531 -0.49833,0.28845 -1.17749,0.25361 -0.37504,-0.0158 -0.76953,-0.14436 -0.39449,-0.12858 -1.38564,-0.55642 z m 0.15013,-0.33863 q 0.94816,0.42036 1.4058,0.27594 0.45763,-0.14441 0.84796,-1.02485 0.34744,-0.78368 0.23634,-1.23812 -0.10681,-0.46412 -0.70666,-0.73006 -0.48376,-0.21447 -0.63389,0.12416 z"
         style="font-style:normal;font-variant:normal;font-weight:bold;font-stretch:normal;font-size:10.5833px;font-family:FreeSerif;-inkscape-font-specification:'FreeSerif, Bold';font-variant-ligatures:normal;font-variant-caps:normal;font-variant-numeric:normal;font-variant-east-asian:normal;stroke-width:0.264583"
         id="path1459" />
      <path
         d="m 324.26353,204.25806 -1.99544,-1.58862 -1.5161,1.90436 q -0.24389,0.30635 -0.19542,0.53433 0.0567,0.23456 0.47259,0.64679 l -0.1648,0.20699 -2.79029,-2.22142 0.1648,-0.20699 q 0.47669,0.28481 0.69486,0.28264 0.23304,-0.004 0.47693,-0.31021 l 3.19041,-4.00742 q 0.2439,-0.30635 0.18715,-0.54092 -0.0419,-0.23626 -0.42291,-0.60724 l 0.16479,-0.207 2.79029,2.22142 -0.16479,0.207 q -0.45692,-0.30965 -0.71311,-0.3107 -0.2496,-0.009 -0.50009,0.3053 l -1.36449,1.71392 1.99543,1.58862 1.36449,-1.71392 q 0.25049,-0.31463 0.18546,-0.55579 -0.0584,-0.24945 -0.46263,-0.62534 l 0.1648,-0.20699 2.81513,2.2412 -0.1648,0.20699 q -0.44863,-0.30306 -0.70482,-0.30411 -0.24792,0.006 -0.49181,0.3119 l -3.19041,4.00742 q -0.2439,0.30636 -0.19542,0.53433 0.0551,0.2197 0.45603,0.63361 l -0.1648,0.207 -2.81513,-2.2412 0.1648,-0.20699 q 0.49494,0.31286 0.72798,0.30901 0.24132,0.003 0.48521,-0.30362 z"
         style="font-style:normal;font-variant:normal;font-weight:bold;font-stretch:normal;font-size:10.5833px;font-family:FreeSerif;-inkscape-font-specification:'FreeSerif, Bold';font-variant-ligatures:normal;font-variant-caps:normal;font-variant-numeric:normal;font-variant-east-asian:normal;stroke-width:0.264583"
         id="path1461" />
      <path
         d="m 330.275,215.05498 -0.20018,0.17301 -2.24223,-2.59429 0.20018,-0.17302 q 0.16935,0.14739 0.24548,0.23547 0.3562,0.36358 0.59641,0.15596 0.24022,-0.20761 0.77063,-1.3095 l -1.55711,-1.8016 -0.41608,0.14979 q -0.80123,0.28683 -0.93735,0.40448 -0.15213,0.13149 -0.10071,0.35283 0.0594,0.21442 0.3399,0.58749 l -0.20018,0.17301 -1.40485,-1.62544 0.20018,-0.17301 q 0.30518,0.23981 0.57605,0.22952 0.27779,-0.002 1.03898,-0.25452 l 5.92423,-2.01484 0.19377,0.2242 -2.66846,5.42574 q -0.44857,0.90527 -0.52527,1.23733 -0.0618,0.33316 0.13893,0.56536 z m -1.77074,-5.46376 1.34949,1.56138 1.24676,-2.49039 z"
         style="font-style:normal;font-variant:normal;font-weight:bold;font-stretch:normal;font-size:10.5833px;font-family:FreeSerif;-inkscape-font-specification:'FreeSerif, Bold';font-variant-ligatures:normal;font-variant-caps:normal;font-variant-numeric:normal;font-variant-east-asian:normal;stroke-width:0.264583"
         id="path1463" />
      <path
         d="m 333.10432,219.40925 q 0.15781,0.26323 0.33016,0.46839 0.1778,0.21424 0.34109,0.36313 0.1633,0.14889 0.3611,0.25242 0.21232,0.10716 0.35024,0.17256 0.14336,0.0745 0.35933,0.1054 0.22506,0.0255 0.33576,0.0455 0.11979,0.0146 0.33215,-0.002 0.21237,-0.0163 0.28316,-0.0217 0.0799,-0.0109 0.28134,-0.0453 0.20692,-0.0253 0.23052,-0.0271 l 0.15781,0.26324 -2.28361,0.86311 -3.14534,-5.24656 0.22693,-0.13604 q 0.36284,0.46115 0.56247,0.52656 0.20507,0.0745 0.55,-0.13229 l 4.39331,-2.63381 q 0.34493,-0.20679 0.38313,-0.4518 0.0437,-0.23594 -0.20665,-0.7152 l 0.22693,-0.13604 1.89917,3.1679 -0.22693,0.13605 q -0.38094,-0.57369 -0.63321,-0.64456 -0.24318,-0.0763 -0.7515,0.22841 l -4.28438,2.56851 q -0.29047,0.17414 -0.30689,0.39375 -0.0164,0.21961 0.23391,0.63716 z"
         style="font-style:normal;font-variant:normal;font-weight:bold;font-stretch:normal;font-size:10.5833px;font-family:FreeSerif;-inkscape-font-specification:'FreeSerif, Bold';font-variant-ligatures:normal;font-variant-caps:normal;font-variant-numeric:normal;font-variant-east-asian:normal;stroke-width:0.264583"
         id="path1465" />
      <path
         d="m 341.97023,227.27989 q 0.24197,-0.16473 0.33837,-0.2373 0.10624,-0.0765 0.29122,-0.2413 0.19481,-0.16873 0.25789,-0.29638 0.0631,-0.12765 0.13415,-0.34962 0.0809,-0.22589 0.0537,-0.46569 -0.0173,-0.24372 -0.0935,-0.57793 -0.0761,-0.33421 -0.23671,-0.73732 -0.14881,-0.37362 -0.29805,-0.46228 -0.13939,-0.0926 -0.41469,0.0171 l -2.28105,0.90853 q 0.2937,0.73741 0.72381,0.93064 0.43995,0.18931 1.34033,-0.01 l 0.0979,0.2458 -3.32326,1.32364 -0.0979,-0.2458 q 0.81623,-0.43903 1.01146,-0.89272 0.19523,-0.45369 -0.0866,-1.21859 l -2.29089,0.91245 q -0.40311,0.16056 -0.46244,0.41203 -0.0456,0.25738 0.19513,0.94754 l -0.2458,0.0979 -1.40979,-3.53956 0.2458,-0.0979 q 0.27829,0.5271 0.46877,0.63351 0.19047,0.1064 0.57393,-0.0463 l 4.75874,-1.89539 q 0.38345,-0.15273 0.45061,-0.38453 0.077,-0.23572 -0.0971,-0.75874 l 0.2458,-0.0979 2.22043,5.5748 -1.97625,0.78714 z"
         style="font-style:normal;font-variant:normal;font-weight:bold;font-stretch:normal;font-size:10.5833px;font-family:FreeSerif;-inkscape-font-specification:'FreeSerif, Bold';font-variant-ligatures:normal;font-variant-caps:normal;font-variant-numeric:normal;font-variant-east-asian:normal;stroke-width:0.264583"
         id="path1467" />
    </g>
    <path
       id="path1501"
       style="color:#000000;font-style:normal;font-variant:normal;font-weight:normal;font-stretch:normal;font-size:medium;line-height:normal;font-family:sans-serif;font-variant-ligatures:normal;font-variant-position:normal;font-variant-caps:normal;font-variant-numeric:normal;font-variant-alternates:normal;font-variant-east-asian:normal;font-feature-settings:normal;font-variation-settings:normal;text-indent:0;text-align:start;text-decoration:none;text-decoration-line:none;text-decoration-style:solid;text-decoration-color:#000000;letter-spacing:normal;word-spacing:normal;text-transform:none;writing-mode:lr-tb;direction:ltr;text-orientation:mixed;dominant-baseline:auto;baseline-shift:baseline;text-anchor:start;white-space:normal;shape-padding:0;shape-margin:0;inline-size:0;clip-rule:nonzero;display:inline;overflow:visible;visibility:visible;opacity:1;isolation:auto;mix-blend-mode:normal;color-interpolation:sRGB;color-interpolation-filters:linearRGB;solid-color:#000000;solid-opacity:1;vector-effect:none;fill:#000000;fill-opacity:1;fill-rule:nonzero;stroke:none;stroke-width:48;stroke-linecap:round;stroke-linejoin:round;stroke-miterlimit:4;stroke-dasharray:none;stroke-dashoffset:0;stroke-opacity:1;color-rendering:auto;image-rendering:auto;shape-rendering:auto;text-rendering:auto;enable-background:accumulate;stop-color:#000000;stop-opacity:1"
       d="M 869.4082 927.49414 C 869.71913 977.72657 886.49434 1028.1636 920.6543 1069.959 C 1000.0719 1167.1281 1143.952 1181.5914 1241.1211 1102.1738 C 1295.5744 1057.6684 1324.0456 992.92095 1324.584 927.49414 L 1300.7285 947.70898 L 1276.873 927.49414 C 1276.3978 978.93752 1253.8576 1029.7671 1210.7422 1065.0059 C 1133.6589 1128.007 1020.8195 1116.6692 957.81836 1039.5859 C 930.81327 1006.5446 917.48133 966.93345 917.11914 927.49414 L 893.26367 947.70898 L 869.4082 927.49414 z M 926.05273 1035.7285 A 4.9367545 4.9367545 0 0 1 930.99023 1040.666 A 4.9367545 4.9367545 0 0 1 926.05273 1045.6016 A 4.9367545 4.9367545 0 0 1 921.11719 1040.666 A 4.9367545 4.9367545 0 0 1 926.05273 1035.7285 z M 1267.9395 1035.7285 A 4.9367545 4.9367545 0 0 1 1272.875 1040.666 A 4.9367545 4.9367545 0 0 1 1267.9395 1045.6016 A 4.9367545 4.9367545 0 0 1 1263.002 1040.666 A 4.9367545 4.9367545 0 0 1 1267.9395 1035.7285 z M 947.19141 1045.7441 L 955.41406 1054.1504 L 954.69922 1054.8496 C 953.91482 1054.1621 953.31633 1053.7792 952.90234 1053.6992 C 952.52608 1053.6196 952.12839 1053.785 951.70898 1054.1953 C 951.49935 1054.4004 951.24984 1054.7747 950.96094 1055.3184 L 943.9082 1068.9297 L 956.01562 1063.6895 L 957.78125 1060.0039 C 958.11158 1059.1213 957.77521 1058.1093 956.76953 1056.9668 L 957.48438 1056.2676 L 966.21094 1065.1895 L 965.49609 1065.8887 C 965.36507 1065.7929 965.23396 1065.6765 965.10352 1065.543 C 964.45004 1064.9512 963.92616 1064.6065 963.53125 1064.5078 C 963.13634 1064.409 962.76696 1064.5274 962.42383 1064.8633 C 962.21419 1065.0684 961.81171 1065.7241 961.21484 1066.8301 L 954.62695 1079.3164 L 967.56836 1072.9258 C 968.08016 1072.6864 968.54544 1072.3615 968.96484 1071.9512 C 969.40329 1071.5223 969.56713 1071.0807 969.45898 1070.627 C 969.38843 1070.1736 969.00057 1069.5479 968.29297 1068.748 L 969.00781 1068.0488 L 974.09766 1073.252 L 973.38281 1073.9512 C 972.35518 1073.0913 971.10208 1073.0316 969.62305 1073.7695 L 946.81445 1084.8867 L 946.06055 1084.1152 L 954.91602 1065.8848 L 936.07422 1073.9062 L 935.29102 1073.1074 L 946.57617 1050.207 C 947.03911 1049.2693 947.26406 1048.5823 947.25 1048.1484 C 947.23488 1047.7146 946.9769 1047.1466 946.47656 1046.4434 L 947.19141 1045.7441 z M 1243.3984 1048.8867 L 1249.2539 1054.3965 L 1248.5684 1055.125 C 1246.2791 1053.6665 1244.3755 1053.1006 1242.8574 1053.4297 C 1241.32 1053.7405 1239.4366 1055.0819 1237.207 1057.4512 C 1236.4943 1058.2085 1236.1156 1058.805 1236.0723 1059.2402 C 1236.0095 1059.6572 1236.2493 1060.1211 1236.793 1060.6328 L 1243.5508 1066.9922 L 1243.6621 1066.875 C 1245.1058 1065.3408 1245.8263 1063.9521 1245.8262 1062.707 C 1245.806 1061.4437 1245.082 1059.9381 1243.6523 1058.1895 L 1244.3652 1057.4316 L 1254.2109 1066.6973 L 1253.498 1067.4551 C 1251.644 1066.0399 1250.0584 1065.3695 1248.7402 1065.4473 C 1247.4403 1065.5057 1246.0415 1066.3315 1244.543 1067.9238 L 1251.5918 1074.5586 C 1252.2132 1075.1434 1252.7961 1075.3804 1253.3398 1075.2695 C 1253.9018 1075.1393 1254.6209 1074.6079 1255.498 1073.6758 C 1257.49 1071.559 1258.5804 1069.5438 1258.7676 1067.6328 C 1258.9548 1065.7218 1258.5572 1063.5555 1257.5781 1061.1328 L 1258.3457 1060.3164 L 1263.3086 1067.1836 L 1247.2734 1084.2246 L 1246.5449 1083.5391 C 1247.4518 1082.3419 1247.9249 1081.4702 1247.9648 1080.9219 C 1248.0049 1080.3736 1247.6462 1079.744 1246.8887 1079.0312 L 1232.7891 1065.7637 C 1232.0511 1065.0692 1231.3722 1064.7585 1230.752 1064.834 C 1230.1317 1064.9093 1229.3171 1065.4257 1228.3086 1066.3809 L 1227.5801 1065.6953 L 1243.3984 1048.8867 z M 1225.1289 1070.9082 C 1226.987 1070.9737 1228.5506 1071.7989 1229.8203 1073.3828 C 1230.7877 1074.5896 1231.2945 1075.9267 1231.3418 1077.3926 C 1231.4098 1078.8418 1231.0112 1080.3058 1230.1465 1081.7852 C 1229.6767 1082.6061 1229.0709 1083.3835 1228.3262 1084.1172 C 1227.5815 1084.8509 1226.1563 1086.0787 1224.0508 1087.8008 L 1228.7031 1093.6055 C 1229.6205 1094.7498 1230.3511 1095.3609 1230.8926 1095.4395 C 1231.4382 1095.4805 1232.3909 1095.093 1233.752 1094.2754 L 1234.377 1095.0547 L 1223.9531 1103.4121 L 1223.3281 1102.6309 C 1223.7192 1102.1807 1223.935 1101.9396 1223.9766 1101.9062 C 1224.6381 1101.2393 1224.9451 1100.6176 1224.8945 1100.043 C 1224.8482 1099.4308 1224.4325 1098.6361 1223.6484 1097.6582 L 1212.5898 1083.8633 C 1211.7058 1082.7605 1210.9544 1082.1669 1210.3379 1082.0801 C 1209.7048 1081.9725 1208.8147 1082.3097 1207.666 1083.0938 L 1207.041 1082.3145 L 1217.0898 1074.2578 C 1219.6906 1072.1728 1222.099 1071.0632 1224.3145 1070.9277 C 1224.5919 1070.9061 1224.8635 1070.8989 1225.1289 1070.9082 z M 976.0957 1073.8242 L 987.24609 1082.2891 L 986.64258 1083.0859 C 985.4421 1082.2417 984.50846 1081.8183 983.8418 1081.8145 C 983.17514 1081.8094 982.52722 1082.2212 981.89844 1083.0508 L 970.19336 1098.4707 C 969.56457 1099.2991 969.33971 1100.0154 969.51758 1100.6191 C 969.69547 1101.2228 970.35577 1102.0274 971.50195 1103.0312 L 970.89844 1103.8262 L 959.74609 1095.3633 L 960.35156 1094.5664 C 961.62163 1095.3631 962.55992 1095.7572 963.16797 1095.75 C 963.79726 1095.7601 964.41859 1095.361 965.03125 1094.5527 L 976.73633 1079.1328 C 977.34899 1078.3257 977.5565 1077.612 977.35742 1076.9922 C 977.19566 1076.3673 976.57272 1075.5767 975.49023 1074.6211 L 976.0957 1073.8242 z M 1219.9492 1074.7988 C 1219.0536 1074.8247 1218.1218 1075.2244 1217.1543 1076 C 1216.114 1076.834 1215.885 1077.6155 1216.4688 1078.3438 L 1223.1738 1086.707 C 1225.2128 1085.0724 1226.336 1083.6599 1226.543 1082.4688 C 1226.7501 1081.2774 1226.0961 1079.7351 1224.5781 1077.8418 C 1223.2271 1076.1565 1221.9776 1075.1744 1220.832 1074.8965 C 1220.5415 1074.8218 1220.2478 1074.7902 1219.9492 1074.7988 z M 989.73047 1084.3066 L 1010.4102 1096.4863 L 1006.3984 1103.4531 L 1005.4004 1102.8652 C 1006.3061 1100.6443 1006.5104 1098.7987 1006.0137 1097.3301 C 1005.5534 1095.852 1004.2862 1094.4566 1002.2129 1093.1426 L 991.51562 1111.3066 C 990.74426 1112.6163 990.44083 1113.5521 990.60547 1114.1133 C 990.79319 1114.688 991.5996 1115.4723 993.02539 1116.4668 L 992.51758 1117.3281 L 980.21289 1110.082 L 980.7207 1109.2207 C 982.25892 1109.9719 983.31413 1110.2824 983.88477 1110.1543 C 984.49191 1110.0167 985.17377 1109.3043 985.93164 1108.0176 L 996.62891 1089.8535 C 994.45139 1088.6639 992.59348 1088.2208 991.05469 1088.5215 C 989.5524 1088.8127 988.05001 1089.8927 986.54688 1091.7617 L 985.54688 1091.1719 L 989.73047 1084.3066 z M 1193.4219 1090.0039 L 1211.7656 1103.6328 C 1213.8045 1105.157 1215.2179 1106.0902 1216.0059 1106.4316 C 1216.8033 1106.7365 1217.5343 1106.6924 1218.2012 1106.3008 L 1218.3398 1106.2207 L 1218.8457 1107.084 L 1207.6699 1113.6445 L 1207.1641 1112.7812 C 1207.6065 1112.4288 1207.9541 1112.1797 1208.207 1112.0312 C 1209.2704 1111.3143 1209.5984 1110.6098 1209.1934 1109.9199 C 1208.7884 1109.23 1207.3424 1107.9768 1204.8535 1106.1602 L 1197.0918 1110.7168 L 1197.3652 1112.3652 C 1197.7108 1114.4815 1197.997 1115.736 1198.2266 1116.127 C 1198.4831 1116.5639 1198.8968 1116.7687 1199.4688 1116.7422 C 1200.0271 1116.6925 1200.8344 1116.4058 1201.8867 1115.8809 L 1202.3926 1116.7422 L 1195.3887 1120.8535 L 1194.8828 1119.9902 C 1195.6162 1119.3433 1196.0329 1118.6818 1196.1309 1118.0059 C 1196.2518 1117.3164 1196.1727 1115.972 1195.8945 1113.9707 L 1192.4551 1090.5723 L 1193.4219 1090.0039 z M 1012.3105 1097.6465 L 1024.8301 1102.6445 L 1024.459 1103.5723 C 1023.1316 1103.1572 1022.1599 1103.0428 1021.541 1103.2266 C 1020.932 1103.3856 1020.4382 1103.934 1020.0625 1104.875 L 1016.9941 1112.5664 L 1025.9453 1116.1406 L 1029.0156 1108.4492 C 1029.3913 1107.5081 1029.4142 1106.7709 1029.082 1106.2363 C 1028.7598 1105.677 1027.9748 1105.0917 1026.7266 1104.4785 L 1027.0957 1103.5488 L 1039.7266 1108.5918 L 1039.3555 1109.5195 C 1038.0528 1109.1144 1037.0935 1109.0038 1036.4746 1109.1875 C 1035.8805 1109.381 1035.401 1109.9352 1035.0352 1110.8516 L 1027.8574 1128.832 C 1027.4916 1129.7484 1027.4498 1130.4637 1027.7324 1130.9785 C 1028.0249 1131.4686 1028.8041 1132.0682 1030.0723 1132.7754 L 1029.7012 1133.7031 L 1017.0723 1128.6621 L 1017.4414 1127.7324 C 1018.8629 1128.1276 1019.8546 1128.2373 1020.4141 1128.0586 C 1020.9983 1127.8898 1021.4721 1127.346 1021.8379 1126.4297 L 1025.25 1117.8867 L 1016.2969 1114.3125 L 1012.8848 1122.8555 C 1012.519 1123.7718 1012.4771 1124.4872 1012.7598 1125.002 C 1013.0671 1125.5267 1013.873 1126.1358 1015.1758 1126.8281 L 1014.8047 1127.7578 L 1002.2852 1122.7598 L 1002.6562 1121.8301 C 1004.0133 1122.1708 1004.9537 1122.2596 1005.4785 1122.0957 C 1006.038 1121.9171 1006.5014 1121.3695 1006.8672 1120.4531 L 1014.0449 1102.4727 C 1014.4107 1101.5563 1014.4402 1100.8372 1014.1328 1100.3125 C 1013.8601 1099.7729 1013.1283 1099.1924 1011.9395 1098.5742 L 1012.3105 1097.6465 z M 1178.3848 1098.4902 L 1181.8359 1107.1914 L 1180.9062 1107.5605 C 1180.4421 1107.1136 1179.981 1106.7085 1179.5215 1106.3457 C 1179.0521 1105.9581 1178.375 1105.4811 1177.4902 1104.9141 C 1176.6054 1104.3471 1175.7566 1103.9089 1174.9453 1103.5996 C 1174.1242 1103.2655 1173.1845 1103.0635 1172.125 1102.9961 C 1171.0903 1102.919 1170.1144 1103.062 1169.1973 1103.4258 C 1166.9664 1104.3108 1165.6673 1105.989 1165.2988 1108.459 C 1164.9304 1110.9289 1165.5071 1114.0857 1167.0312 1117.9277 C 1170.0994 1125.6613 1174.1252 1128.5391 1179.1074 1126.5625 C 1180.7434 1125.9135 1182.0738 1124.9258 1183.0977 1123.6016 C 1184.1215 1122.2773 1185.0378 1120.6088 1185.8457 1118.5957 L 1187.3281 1119.084 L 1187.0664 1119.832 C 1186.882 1120.3069 1186.7611 1120.6154 1186.7012 1120.7539 C 1186.6563 1120.8577 1186.5212 1121.1681 1186.2969 1121.6875 C 1186.0875 1122.1722 1185.9127 1122.5285 1185.7734 1122.7559 C 1185.6341 1122.9834 1185.4185 1123.3408 1185.125 1123.8301 C 1184.8216 1124.2947 1184.5386 1124.6668 1184.2754 1124.9434 C 1184.037 1125.2101 1183.7139 1125.5529 1183.3066 1125.9727 C 1182.8896 1126.3676 1182.4648 1126.7082 1182.0332 1126.9941 C 1181.6362 1127.2951 1181.1676 1127.5959 1180.627 1127.8965 C 1180.0864 1128.197 1179.5187 1128.4652 1178.9238 1128.7012 C 1175.0818 1130.2254 1171.4347 1130.2518 1167.9824 1128.7812 C 1164.5549 1127.301 1162.0828 1124.6532 1160.5684 1120.8359 C 1159.0638 1117.0435 1159.0373 1113.3964 1160.4883 1109.8945 C 1161.9541 1106.3581 1164.5333 1103.8559 1168.2266 1102.3906 C 1169.3916 1101.9284 1170.5473 1101.6571 1171.6914 1101.5762 C 1172.8505 1101.4605 1173.8364 1101.4134 1174.6484 1101.4355 C 1175.4605 1101.4582 1176.052 1101.3962 1176.4238 1101.248 C 1176.7708 1101.1105 1177.0185 1100.8678 1177.168 1100.5215 C 1177.3174 1100.1753 1177.3887 1099.6315 1177.3809 1098.8887 L 1178.3848 1098.4902 z M 1195.1406 1098.7812 L 1196.8203 1109.0684 L 1203.5469 1105.1191 L 1195.1406 1098.7812 z M 1150.2754 1108.7578 L 1152.3262 1117.1934 L 1151.2383 1117.457 C 1149.8882 1115.1782 1148.3966 1113.6196 1146.7656 1112.7812 C 1145.1606 1111.9367 1143.5689 1111.7074 1141.9883 1112.0918 C 1140.6668 1112.4132 1139.7029 1113.0177 1139.0957 1113.9062 C 1138.5144 1114.7886 1138.3683 1115.8257 1138.6582 1117.0176 C 1138.885 1117.9504 1139.3456 1118.6608 1140.041 1119.1504 C 1140.756 1119.6077 1141.9848 1120.0363 1143.7285 1120.4355 L 1150.1328 1121.8828 C 1151.5278 1122.2022 1152.7875 1122.9266 1153.9121 1124.0527 C 1155.0367 1125.1789 1155.776 1126.4669 1156.1289 1127.918 C 1156.7212 1130.3536 1156.3087 1132.554 1154.8926 1134.5176 C 1153.4961 1136.4489 1151.3605 1137.7635 1148.4844 1138.4629 C 1147.0852 1138.8031 1145.6313 1138.9224 1144.125 1138.8223 C 1142.6446 1138.7157 1141.7747 1138.6948 1141.5156 1138.7578 C 1140.9456 1138.8964 1140.6649 1139.4319 1140.6719 1140.3633 L 1139.5449 1140.6367 L 1137.209 1131.0371 L 1138.3359 1130.7617 C 1141.0318 1135.9791 1144.3505 1138.1101 1148.2891 1137.1523 C 1149.7919 1136.7869 1150.8847 1136.0956 1151.5703 1135.0781 C 1152.2559 1134.0606 1152.4351 1132.8767 1152.1074 1131.5293 C 1151.8618 1130.5188 1151.363 1129.7626 1150.6094 1129.2598 C 1149.8559 1128.7569 1148.5266 1128.3112 1146.6211 1127.9238 L 1143.7148 1127.3145 C 1141.1378 1126.7611 1139.1621 1125.9781 1137.791 1124.9668 C 1136.4136 1123.9296 1135.5174 1122.5558 1135.1016 1120.8457 C 1134.503 1118.3841 1134.7847 1116.2705 1135.9473 1114.5059 C 1137.1358 1112.7349 1139.0523 1111.5294 1141.6953 1110.8867 C 1142.9391 1110.5843 1144.2877 1110.4888 1145.7422 1110.6016 C 1147.1904 1110.6885 1148.0061 1110.7101 1148.1875 1110.666 C 1148.5244 1110.5841 1148.7612 1110.4306 1148.8984 1110.2051 C 1149.0295 1109.9536 1149.0995 1109.5667 1149.1094 1109.043 L 1150.2754 1108.7578 z M 1054.9141 1112.2031 L 1068.6758 1114.7773 L 1068.4922 1115.7598 C 1067.0407 1115.5426 1066.0157 1115.5816 1065.418 1115.877 C 1064.8202 1116.1721 1064.4255 1116.8313 1064.2344 1117.8535 L 1060.6758 1136.8828 C 1060.4845 1137.9051 1060.6036 1138.6473 1061.0332 1139.1074 C 1061.4626 1139.5675 1062.4142 1139.9888 1063.8887 1140.373 L 1063.7051 1141.3555 L 1049.9434 1138.7832 L 1050.1289 1137.8008 C 1051.6213 1137.9442 1052.6373 1137.8763 1053.1777 1137.5977 C 1053.7444 1137.3238 1054.1204 1136.6875 1054.3066 1135.6914 L 1057.8652 1116.6621 C 1058.0514 1115.666 1057.9165 1114.9357 1057.4609 1114.4707 C 1057.0364 1113.9844 1056.1263 1113.557 1054.7305 1113.1875 L 1054.9141 1112.2031 z M 1128.9961 1114.5957 L 1129.0918 1115.5918 C 1127.1691 1115.9357 1125.5386 1116.6808 1124.2012 1117.8262 C 1122.8904 1118.969 1120.5462 1121.6437 1117.1699 1125.8496 L 1130.75 1139.7441 C 1131.2519 1140.2321 1131.9273 1140.4489 1132.7793 1140.3945 L 1132.875 1141.3887 L 1119.4961 1142.6641 L 1119.4004 1141.668 C 1119.7695 1141.606 1120.194 1141.5534 1120.6719 1141.5078 C 1121.912 1141.3093 1122.5098 1140.9845 1122.4668 1140.5332 C 1122.4313 1140.1615 1122.0565 1139.6068 1121.3438 1138.8711 L 1113.2363 1130.5234 L 1112.2559 1131.6211 L 1113 1139.4258 C 1113.0935 1140.408 1113.3823 1141.0639 1113.8691 1141.3926 C 1114.3533 1141.6947 1115.3222 1141.8688 1116.7734 1141.918 L 1116.8672 1142.9141 L 1103.4492 1144.1934 L 1103.3535 1143.1973 C 1104.7718 1142.9014 1105.6765 1142.5613 1106.0684 1142.1758 C 1106.4842 1141.7611 1106.645 1141.0498 1106.5488 1140.041 L 1104.7129 1120.7676 C 1104.6141 1119.7323 1104.3081 1119.0507 1103.7949 1118.7246 C 1103.3057 1118.3694 1102.3665 1118.2196 1100.9785 1118.2715 L 1100.8828 1117.2754 L 1114.3418 1115.9922 L 1114.4375 1116.9883 C 1112.9876 1117.2337 1112.0601 1117.616 1111.6543 1118.1367 C 1111.246 1118.631 1111.1081 1119.5813 1111.2422 1120.9883 L 1112.0547 1129.5098 L 1119.8691 1120.0059 C 1120.4215 1119.3371 1120.7644 1118.8627 1120.8984 1118.582 C 1121.0589 1118.2989 1121.1239 1117.9983 1121.0938 1117.6797 C 1121.0456 1117.1753 1120.7881 1116.8788 1120.3242 1116.7891 C 1119.8843 1116.6704 1118.972 1116.6375 1117.584 1116.6895 L 1117.4883 1115.6934 L 1128.9961 1114.5957 z M 1071.6387 1115.5508 L 1080.0625 1116.0742 L 1092.9297 1134.0684 L 1093.6875 1121.8926 C 1093.7752 1120.482 1093.5819 1119.4934 1093.1094 1118.9297 C 1092.6384 1118.3393 1091.6763 1117.9331 1090.2207 1117.709 L 1090.2812 1116.7109 L 1098.8652 1117.2441 L 1098.8027 1118.2422 C 1097.4853 1118.374 1096.6155 1118.6275 1096.1914 1119.002 C 1095.7956 1119.3514 1095.5614 1120.0977 1095.4902 1121.2422 L 1094.0273 1144.7578 L 1092.9102 1144.6875 L 1076.416 1121.8594 L 1075.418 1137.9082 C 1075.3303 1139.3188 1075.5092 1140.3051 1075.9551 1140.8672 C 1076.4293 1141.4043 1077.4327 1141.8154 1078.9648 1142.0977 L 1078.9023 1143.0957 L 1069.8398 1142.5312 L 1069.9023 1141.5332 C 1071.3777 1141.438 1072.3403 1141.2048 1072.791 1140.832 C 1073.2683 1140.461 1073.5421 1139.703 1073.6133 1138.5586 L 1074.791 1119.6348 C 1073.904 1118.4307 1073.2457 1117.6273 1072.8164 1117.2266 C 1072.3888 1116.7992 1071.9754 1116.5736 1071.5762 1116.5488 L 1071.6387 1115.5508 z "
       transform="scale(0.26458333)"
       inkscape:export-xdpi="90"
       inkscape:export-ydpi="90" />
    <path
       id="path1515"
       style="opacity:0.545688;fill:none;stroke:#000000;stroke-width:2;stroke-linecap:round;stroke-linejoin:miter;stroke-miterlimit:4;stroke-dasharray:none;stroke-opacity:1"
       d="M 1079.5445 876.60762 L 1035.7759 771.46114 "
       transform="scale(0.26458333)"
       inkscape:export-xdpi="90"
       inkscape:export-ydpi="90" />
    <path
       id="path2785"
       style="opacity:0.545688;fill:none;stroke:#000000;stroke-width:2;stroke-linecap:round;stroke-linejoin:miter;stroke-miterlimit:4;stroke-dasharray:none;stroke-opacity:1"
       d="M 1158.2163 1065.6031 L 1119.5893 972.80847 "
       transform="scale(0.26458333)"
       inkscape:export-xdpi="90"
       inkscape:export-ydpi="90" />
    <path
       id="path2783"
       style="opacity:0.545688;fill:none;stroke:#000000;stroke-width:2;stroke-linecap:round;stroke-linejoin:miter;stroke-miterlimit:4;stroke-dasharray:none;stroke-opacity:1"
       d="M 1087.9008 850.36737 L 1075.9267 760.6275 "
       transform="scale(0.26458333)"
       inkscape:export-xdpi="90"
       inkscape:export-ydpi="90" />
    <path
       id="path2779"
       style="opacity:0.545688;fill:none;stroke:#000000;stroke-width:2;stroke-linecap:round;stroke-linejoin:miter;stroke-miterlimit:4;stroke-dasharray:none;stroke-opacity:1"
       d="M 1118.0655 1076.4367 L 1102.5534 960.18124 "
       transform="scale(0.26458333)"
       inkscape:export-xdpi="90"
       inkscape:export-ydpi="90" />
    <path
       id="path2777"
       style="opacity:0.545688;fill:none;stroke:#000000;stroke-width:2;stroke-linecap:round;stroke-linejoin:miter;stroke-miterlimit:4;stroke-dasharray:none;stroke-opacity:1"
       d="M 1105.8079 850.68351 L 1117.5134 760.55478 "
       transform="scale(0.26458333)"
       inkscape:export-xdpi="90"
       inkscape:export-ydpi="90" />
    <path
       id="path2773"
       style="opacity:0.545688;fill:none;stroke:#000000;stroke-width:2;stroke-linecap:round;stroke-linejoin:miter;stroke-miterlimit:4;stroke-dasharray:none;stroke-opacity:1"
       d="M 1076.4788 1076.5094 L 1091.6878 959.40415 "
       transform="scale(0.26458333)"
       inkscape:export-xdpi="90"
       inkscape:export-ydpi="90" />
    <path
       id="path2771"
       style="opacity:0.545688;fill:none;stroke:#000000;stroke-width:2;stroke-linecap:round;stroke-linejoin:miter;stroke-miterlimit:4;stroke-dasharray:none;stroke-opacity:1"
       d="M 1114.0958 877.04483 L 1157.7018 771.24805 "
       transform="scale(0.26458333)"
       inkscape:export-xdpi="90"
       inkscape:export-ydpi="90" />
    <path
       id="path2767"
       style="opacity:0.545688;fill:none;stroke:#000000;stroke-width:2;stroke-linecap:round;stroke-linejoin:miter;stroke-miterlimit:4;stroke-dasharray:none;stroke-opacity:1"
       d="M 1036.2904 1065.8162 L 1075.13 971.58361 "
       transform="scale(0.26458333)"
       inkscape:export-xdpi="90"
       inkscape:export-ydpi="90" />
    <path
       id="path2765"
       style="opacity:0.545688;fill:none;stroke:#000000;stroke-width:2;stroke-linecap:round;stroke-linejoin:miter;stroke-miterlimit:4;stroke-dasharray:none;stroke-opacity:1"
       d="M 1134.2616 889.83363 L 1223.2108 821.33318 "
       transform="scale(0.26458333)"
       inkscape:export-xdpi="90"
       inkscape:export-ydpi="90" />
    <path
       id="path2761"
       style="opacity:0.545688;fill:none;stroke:#000000;stroke-width:2;stroke-linecap:round;stroke-linejoin:miter;stroke-miterlimit:4;stroke-dasharray:none;stroke-opacity:1"
       d="M 970.78137 1015.7311 L 1055.2729 950.66346 "
       transform="scale(0.26458333)"
       inkscape:export-xdpi="90"
       inkscape:export-ydpi="90" />
    <path
       id="path2759"
       style="opacity:0.545688;fill:none;stroke:#000000;stroke-width:2;stroke-linecap:round;stroke-linejoin:miter;stroke-miterlimit:4;stroke-dasharray:none;stroke-opacity:1"
       d="M 1118.8688 889.92361 L 1193.7532 791.97838 "
       transform="scale(0.26458333)"
       inkscape:export-xdpi="90"
       inkscape:export-ydpi="90" />
    <path
       id="path2755"
       style="opacity:0.545688;fill:none;stroke:#000000;stroke-width:2;stroke-linecap:round;stroke-linejoin:miter;stroke-miterlimit:4;stroke-dasharray:none;stroke-opacity:1"
       d="M 1000.239 1045.0859 L 1041.8562 990.6525 "
       transform="scale(0.26458333)"
       inkscape:export-xdpi="90"
       inkscape:export-ydpi="90" />
    <path
       id="path2753"
       style="opacity:0.545688;fill:none;stroke:#000000;stroke-width:2;stroke-linecap:round;stroke-linejoin:miter;stroke-miterlimit:4;stroke-dasharray:none;stroke-opacity:1"
       d="M 1166.3931 889.64471 L 1244.0671 857.31194 "
       transform="scale(0.26458333)"
       inkscape:export-xdpi="90"
       inkscape:export-ydpi="90" />
    <path
       id="path2749"
       style="opacity:0.545688;fill:none;stroke:#000000;stroke-width:2;stroke-linecap:round;stroke-linejoin:miter;stroke-miterlimit:4;stroke-dasharray:none;stroke-opacity:1"
       d="M 949.92506 979.7523 L 1061.029 933.50381 "
       transform="scale(0.26458333)"
       inkscape:export-xdpi="90"
       inkscape:export-ydpi="90" />
    <path
       id="path2747"
       style="opacity:0.545688;fill:none;stroke:#000000;stroke-width:2;stroke-linecap:round;stroke-linejoin:miter;stroke-miterlimit:4;stroke-dasharray:none;stroke-opacity:1"
       d="M 1160.2012 910.0986 L 1254.9007 897.46273 "
       transform="scale(0.26458333)"
       inkscape:export-xdpi="90"
       inkscape:export-ydpi="90" />
    <path
       id="path2743"
       style="opacity:0.545688;fill:none;stroke:#000000;stroke-width:2;stroke-linecap:round;stroke-linejoin:miter;stroke-miterlimit:4;stroke-dasharray:none;stroke-opacity:1"
       d="M 939.09146 939.60147 L 1053.3847 924.35125 "
       transform="scale(0.26458333)"
       inkscape:export-xdpi="90"
       inkscape:export-ydpi="90" />
    <path
       id="path2741"
       style="opacity:0.545688;fill:none;stroke:#000000;stroke-width:2;stroke-linecap:round;stroke-linejoin:miter;stroke-miterlimit:4;stroke-dasharray:none;stroke-opacity:1"
       d="M 1140.4338 924.17359 L 1254.9734 939.04936 "
       transform="scale(0.26458333)"
       inkscape:export-xdpi="90"
       inkscape:export-ydpi="90" />
    <path
       id="path2737"
       style="opacity:0.545688;fill:none;stroke:#000000;stroke-width:2;stroke-linecap:round;stroke-linejoin:miter;stroke-miterlimit:4;stroke-dasharray:none;stroke-opacity:1"
       d="M 939.01878 898.01488 L 1033.8474 910.33069 "
       transform="scale(0.26458333)"
       inkscape:export-xdpi="90"
       inkscape:export-ydpi="90" />
    <path
       id="path2735"
       style="opacity:0.545688;fill:none;stroke:#000000;stroke-width:2;stroke-linecap:round;stroke-linejoin:miter;stroke-miterlimit:4;stroke-dasharray:none;stroke-opacity:1"
       d="M 1132.0687 932.98788 L 1244.2802 979.23776 "
       transform="scale(0.26458333)"
       inkscape:export-xdpi="90"
       inkscape:export-ydpi="90" />
    <path
       id="path2731"
       style="opacity:0.545688;fill:none;stroke:#000000;stroke-width:2;stroke-linecap:round;stroke-linejoin:miter;stroke-miterlimit:4;stroke-dasharray:none;stroke-opacity:1"
       d="M 949.71197 857.82644 L 1026.2691 889.38079 "
       transform="scale(0.26458333)"
       inkscape:export-xdpi="90"
       inkscape:export-ydpi="90" />
    <path
       id="path2729"
       style="opacity:0.545688;fill:none;stroke:#000000;stroke-width:2;stroke-linecap:round;stroke-linejoin:miter;stroke-miterlimit:4;stroke-dasharray:none;stroke-opacity:1"
       d="M 1137.556 949.54238 L 1223.5498 1015.2892 "
       transform="scale(0.26458333)"
       inkscape:export-xdpi="90"
       inkscape:export-ydpi="90" />
    <path
       id="path2725"
       style="opacity:0.545688;fill:none;stroke:#000000;stroke-width:2;stroke-linecap:round;stroke-linejoin:miter;stroke-miterlimit:4;stroke-dasharray:none;stroke-opacity:1"
       d="M 970.44238 821.77504 L 1059.2806 889.6966 "
       transform="scale(0.26458333)"
       inkscape:export-xdpi="90"
       inkscape:export-ydpi="90" />
    <path
       id="path2721"
       style="opacity:0.545688;fill:none;stroke:#000000;stroke-width:2;stroke-linecap:round;stroke-linejoin:miter;stroke-miterlimit:4;stroke-dasharray:none;stroke-opacity:1"
       d="M 1150.1551 987.56014 L 1194.195 1044.7468 "
       transform="scale(0.26458333)"
       inkscape:export-xdpi="90"
       inkscape:export-ydpi="90" />
    <path
       id="path2717"
       style="opacity:0.545688;fill:none;stroke:#000000;stroke-width:2;stroke-linecap:round;stroke-linejoin:miter;stroke-miterlimit:4;stroke-dasharray:none;stroke-opacity:1"
       d="M 999.79714 792.31744 L 1074.9042 889.84547 "
       transform="scale(0.26458333)"
       inkscape:export-xdpi="90"
       inkscape:export-ydpi="90" />
    <path
       id="path2081"
       style="opacity:0.518159;fill:none;stroke:#000000;stroke-width:3;stroke-linecap:round;stroke-linejoin:miter;stroke-miterlimit:4;stroke-dasharray:none;stroke-opacity:1"
       d="M 1096.9961 822.6548 L 1096.9961 793.59806 "
       transform="scale(0.26458333)"
       inkscape:export-xdpi="90"
       inkscape:export-ydpi="90" />
    <path
       id="path2894"
       style="opacity:0.518159;fill:none;stroke:#000000;stroke-width:3;stroke-linecap:round;stroke-linejoin:miter;stroke-miterlimit:4;stroke-dasharray:none;stroke-opacity:1"
       d="M 1096.9961 831.52592 L 1096.9961 822.6548 "
       transform="scale(0.26458333)"
       inkscape:export-xdpi="90"
       inkscape:export-ydpi="90" />
    <path
       id="path2890"
       style="opacity:0.518159;fill:none;stroke:#000000;stroke-width:3;stroke-linecap:round;stroke-linejoin:miter;stroke-miterlimit:4;stroke-dasharray:none;stroke-opacity:1"
       d="M 1096.9961 979.52451 L 1096.996 956.06189 "
       transform="scale(0.26458333)"
       inkscape:export-xdpi="90"
       inkscape:export-ydpi="90" />
    <path
       id="path2888"
       style="opacity:0.518159;fill:none;stroke:#000000;stroke-width:3;stroke-linecap:round;stroke-linejoin:miter;stroke-miterlimit:4;stroke-dasharray:none;stroke-opacity:1"
       d="M 1096.9961 1043.4662 L 1096.9961 1005.5364 "
       transform="scale(0.26458333)"
       inkscape:export-xdpi="90"
       inkscape:export-ydpi="90" />
    <path
       id="path2886"
       style="opacity:0.518159;fill:none;stroke:#000000;stroke-width:3;stroke-linecap:round;stroke-linejoin:miter;stroke-miterlimit:4;stroke-dasharray:none;stroke-opacity:1"
       d="M 1074.4772 834.49058 L 1064.6607 797.85509 "
       transform="scale(0.26458333)"
       inkscape:export-xdpi="90"
       inkscape:export-ydpi="90" />
    <path
       id="path2884"
       style="opacity:0.518159;fill:none;stroke:#000000;stroke-width:3;stroke-linecap:round;stroke-linejoin:miter;stroke-miterlimit:4;stroke-dasharray:none;stroke-opacity:1"
       d="M 1082.9215 866.00503 L 1081.2096 859.61609 "
       transform="scale(0.26458333)"
       inkscape:export-xdpi="90"
       inkscape:export-ydpi="90" />
    <path
       id="path2880"
       style="opacity:0.518159;fill:none;stroke:#000000;stroke-width:3;stroke-linecap:round;stroke-linejoin:miter;stroke-miterlimit:4;stroke-dasharray:none;stroke-opacity:1"
       d="M 1112.7821 977.44626 L 1109.5446 965.364 "
       transform="scale(0.26458333)"
       inkscape:export-xdpi="90"
       inkscape:export-ydpi="90" />
    <path
       id="path2878"
       style="opacity:0.518159;fill:none;stroke:#000000;stroke-width:3;stroke-linecap:round;stroke-linejoin:miter;stroke-miterlimit:4;stroke-dasharray:none;stroke-opacity:1"
       d="M 1129.3314 1039.2091 L 1119.5144 1002.5718 "
       transform="scale(0.26458333)"
       inkscape:export-xdpi="90"
       inkscape:export-ydpi="90" />
    <path
       id="path2876"
       style="opacity:0.518159;fill:none;stroke:#000000;stroke-width:3;stroke-linecap:round;stroke-linejoin:miter;stroke-miterlimit:4;stroke-dasharray:none;stroke-opacity:1"
       d="M 1053.493 843.18255 L 1034.529 810.33604 "
       transform="scale(0.26458333)"
       inkscape:export-xdpi="90"
       inkscape:export-ydpi="90" />
    <path
       id="path2874"
       style="opacity:0.518159;fill:none;stroke:#000000;stroke-width:3;stroke-linecap:round;stroke-linejoin:miter;stroke-miterlimit:4;stroke-dasharray:none;stroke-opacity:1"
       d="M 1077.1449 884.14892 L 1066.4989 865.70944 "
       transform="scale(0.26458333)"
       inkscape:export-xdpi="90"
       inkscape:export-ydpi="90" />
    <path
       id="path2870"
       style="opacity:0.518159;fill:none;stroke:#000000;stroke-width:3;stroke-linecap:round;stroke-linejoin:miter;stroke-miterlimit:4;stroke-dasharray:none;stroke-opacity:1"
       d="M 1159.4631 1026.7282 L 1140.4982 993.88003 "
       transform="scale(0.26458333)"
       inkscape:export-xdpi="90"
       inkscape:export-ydpi="90" />
    <path
       id="path2868"
       style="opacity:0.518159;fill:none;stroke:#000000;stroke-width:3;stroke-linecap:round;stroke-linejoin:miter;stroke-miterlimit:4;stroke-dasharray:none;stroke-opacity:1"
       d="M 1035.4734 857.00946 L 1008.6543 830.19039 "
       transform="scale(0.26458333)"
       inkscape:export-xdpi="90"
       inkscape:export-ydpi="90" />
    <path
       id="path2866"
       style="opacity:0.518159;fill:none;stroke:#000000;stroke-width:3;stroke-linecap:round;stroke-linejoin:miter;stroke-miterlimit:4;stroke-dasharray:none;stroke-opacity:1"
       d="M 1068.2455 889.78149 L 1053.8666 875.40261 "
       transform="scale(0.26458333)"
       inkscape:export-xdpi="90"
       inkscape:export-ydpi="90" />
    <path
       id="path2862"
       style="opacity:0.518159;fill:none;stroke:#000000;stroke-width:3;stroke-linecap:round;stroke-linejoin:miter;stroke-miterlimit:4;stroke-dasharray:none;stroke-opacity:1"
       d="M 1185.3378 1006.8739 L 1158.5174 980.05342 "
       transform="scale(0.26458333)"
       inkscape:export-xdpi="90"
       inkscape:export-ydpi="90" />
    <path
       id="path2860"
       style="opacity:0.518159;fill:none;stroke:#000000;stroke-width:3;stroke-linecap:round;stroke-linejoin:miter;stroke-miterlimit:4;stroke-dasharray:none;stroke-opacity:1"
       d="M 1021.6465 875.029 L 988.8 856.06507 "
       transform="scale(0.26458333)"
       inkscape:export-xdpi="90"
       inkscape:export-ydpi="90" />
    <path
       id="path2858"
       style="opacity:0.518159;fill:none;stroke:#000000;stroke-width:3;stroke-linecap:round;stroke-linejoin:miter;stroke-miterlimit:4;stroke-dasharray:none;stroke-opacity:1"
       d="M 1046.8455 889.57764 L 1044.1734 888.03492 "
       transform="scale(0.26458333)"
       inkscape:export-xdpi="90"
       inkscape:export-ydpi="90" />
    <path
       id="path2854"
       style="opacity:0.518159;fill:none;stroke:#000000;stroke-width:3;stroke-linecap:round;stroke-linejoin:miter;stroke-miterlimit:4;stroke-dasharray:none;stroke-opacity:1"
       d="M 1149.8171 949.0283 L 1134.4441 940.15271 "
       transform="scale(0.26458333)"
       inkscape:export-xdpi="90"
       inkscape:export-ydpi="90" />
    <path
       id="path2852"
       style="opacity:0.518159;fill:none;stroke:#000000;stroke-width:3;stroke-linecap:round;stroke-linejoin:miter;stroke-miterlimit:4;stroke-dasharray:none;stroke-opacity:1"
       d="M 1205.1922 980.99913 L 1172.344 962.03426 "
       transform="scale(0.26458333)"
       inkscape:export-xdpi="90"
       inkscape:export-ydpi="90" />
    <path
       id="path2850"
       style="opacity:0.518159;fill:none;stroke:#000000;stroke-width:3;stroke-linecap:round;stroke-linejoin:miter;stroke-miterlimit:4;stroke-dasharray:none;stroke-opacity:1"
       d="M 1012.9545 896.01328 L 976.31906 886.19683 "
       transform="scale(0.26458333)"
       inkscape:export-xdpi="90"
       inkscape:export-ydpi="90" />
    <path
       id="path2846"
       style="opacity:0.518159;fill:none;stroke:#000000;stroke-width:3;stroke-linecap:round;stroke-linejoin:miter;stroke-miterlimit:4;stroke-dasharray:none;stroke-opacity:1"
       d="M 1155.9102 934.31811 L 1134.3143 928.53151 "
       transform="scale(0.26458333)"
       inkscape:export-xdpi="90"
       inkscape:export-ydpi="90" />
    <path
       id="path2844"
       style="opacity:0.518159;fill:none;stroke:#000000;stroke-width:3;stroke-linecap:round;stroke-linejoin:miter;stroke-miterlimit:4;stroke-dasharray:none;stroke-opacity:1"
       d="M 1217.6731 950.86741 L 1181.0358 941.05051 "
       transform="scale(0.26458333)"
       inkscape:export-xdpi="90"
       inkscape:export-ydpi="90" />
    <path
       id="path2842"
       style="opacity:0.518159;fill:none;stroke:#000000;stroke-width:3;stroke-linecap:round;stroke-linejoin:miter;stroke-miterlimit:4;stroke-dasharray:none;stroke-opacity:1"
       d="M 1009.9899 918.53212 L 972.06202 918.53216 "
       transform="scale(0.26458333)"
       inkscape:export-xdpi="90"
       inkscape:export-ydpi="90" />
    <path
       id="path2840"
       style="opacity:0.518159;fill:none;stroke:#000000;stroke-width:3;stroke-linecap:round;stroke-linejoin:miter;stroke-miterlimit:4;stroke-dasharray:none;stroke-opacity:1"
       d="M 1045.2752 918.53212 L 1036.0017 918.53212 "
       transform="scale(0.26458333)"
       inkscape:export-xdpi="90"
       inkscape:export-ydpi="90" />
    <path
       id="path2836"
       style="opacity:0.518159;fill:none;stroke:#000000;stroke-width:3;stroke-linecap:round;stroke-linejoin:miter;stroke-miterlimit:4;stroke-dasharray:none;stroke-opacity:1"
       d="M 1157.9885 918.53212 L 1148.3595 918.53211 "
       transform="scale(0.26458333)"
       inkscape:export-xdpi="90"
       inkscape:export-ydpi="90" />
    <path
       id="path2834"
       style="opacity:0.518159;fill:none;stroke:#000000;stroke-width:3;stroke-linecap:round;stroke-linejoin:miter;stroke-miterlimit:4;stroke-dasharray:none;stroke-opacity:1"
       d="M 1221.9301 918.53208 L 1184.0004 918.53212 "
       transform="scale(0.26458333)"
       inkscape:export-xdpi="90"
       inkscape:export-ydpi="90" />
    <path
       id="path2832"
       style="opacity:0.518159;fill:none;stroke:#000000;stroke-width:3;stroke-linecap:round;stroke-linejoin:miter;stroke-miterlimit:4;stroke-dasharray:none;stroke-opacity:1"
       d="M 1012.9545 941.051 L 976.31906 950.86745 "
       transform="scale(0.26458333)"
       inkscape:export-xdpi="90"
       inkscape:export-ydpi="90" />
    <path
       id="path2830"
       style="opacity:0.518159;fill:none;stroke:#000000;stroke-width:3;stroke-linecap:round;stroke-linejoin:miter;stroke-miterlimit:4;stroke-dasharray:none;stroke-opacity:1"
       d="M 1059.3377 928.62266 L 1038.0801 934.31864 "
       transform="scale(0.26458333)"
       inkscape:export-xdpi="90"
       inkscape:export-ydpi="90" />
    <path
       id="path2826"
       style="opacity:0.518159;fill:none;stroke:#000000;stroke-width:3;stroke-linecap:round;stroke-linejoin:miter;stroke-miterlimit:4;stroke-dasharray:none;stroke-opacity:1"
       d="M 1217.6731 886.19679 L 1181.0358 896.01377 "
       transform="scale(0.26458333)"
       inkscape:export-xdpi="90"
       inkscape:export-ydpi="90" />
    <path
       id="path2824"
       style="opacity:0.518159;fill:none;stroke:#000000;stroke-width:3;stroke-linecap:round;stroke-linejoin:miter;stroke-miterlimit:4;stroke-dasharray:none;stroke-opacity:1"
       d="M 1021.6465 962.03524 L 988.80004 980.99917 "
       transform="scale(0.26458333)"
       inkscape:export-xdpi="90"
       inkscape:export-ydpi="90" />
    <path
       id="path2822"
       style="opacity:0.518159;fill:none;stroke:#000000;stroke-width:3;stroke-linecap:round;stroke-linejoin:miter;stroke-miterlimit:4;stroke-dasharray:none;stroke-opacity:1"
       d="M 1058.6187 940.68931 L 1044.1734 949.02932 "
       transform="scale(0.26458333)"
       inkscape:export-xdpi="90"
       inkscape:export-ydpi="90" />
    <path
       id="path2818"
       style="opacity:0.518159;fill:none;stroke:#000000;stroke-width:3;stroke-linecap:round;stroke-linejoin:miter;stroke-miterlimit:4;stroke-dasharray:none;stroke-opacity:1"
       d="M 1149.8171 888.03591 L 1146.8305 889.76016 "
       transform="scale(0.26458333)"
       inkscape:export-xdpi="90"
       inkscape:export-ydpi="90" />
    <path
       id="path2816"
       style="opacity:0.518159;fill:none;stroke:#000000;stroke-width:3;stroke-linecap:round;stroke-linejoin:miter;stroke-miterlimit:4;stroke-dasharray:none;stroke-opacity:1"
       d="M 1205.1921 856.06507 L 1172.344 875.02998 "
       transform="scale(0.26458333)"
       inkscape:export-xdpi="90"
       inkscape:export-ydpi="90" />
    <path
       id="path2814"
       style="opacity:0.518159;fill:none;stroke:#000000;stroke-width:3;stroke-linecap:round;stroke-linejoin:miter;stroke-miterlimit:4;stroke-dasharray:none;stroke-opacity:1"
       d="M 1035.4734 980.05482 L 1008.6544 1006.8739 "
       transform="scale(0.26458333)"
       inkscape:export-xdpi="90"
       inkscape:export-ydpi="90" />
    <path
       id="path2810"
       style="opacity:0.518159;fill:none;stroke:#000000;stroke-width:3;stroke-linecap:round;stroke-linejoin:miter;stroke-miterlimit:4;stroke-dasharray:none;stroke-opacity:1"
       d="M 1140.1242 875.40397 L 1125.6458 889.88248 "
       transform="scale(0.26458333)"
       inkscape:export-xdpi="90"
       inkscape:export-ydpi="90" />
    <path
       id="path2808"
       style="opacity:0.518159;fill:none;stroke:#000000;stroke-width:3;stroke-linecap:round;stroke-linejoin:miter;stroke-miterlimit:4;stroke-dasharray:none;stroke-opacity:1"
       d="M 1185.3378 830.19039 L 1158.5174 857.01078 "
       transform="scale(0.26458333)"
       inkscape:export-xdpi="90"
       inkscape:export-ydpi="90" />
    <path
       id="path2806"
       style="opacity:0.518159;fill:none;stroke:#000000;stroke-width:3;stroke-linecap:round;stroke-linejoin:miter;stroke-miterlimit:4;stroke-dasharray:none;stroke-opacity:1"
       d="M 1053.493 993.88173 L 1034.5291 1026.7282 "
       transform="scale(0.26458333)"
       inkscape:export-xdpi="90"
       inkscape:export-ydpi="90" />
    <path
       id="path2802"
       style="opacity:0.518159;fill:none;stroke:#000000;stroke-width:3;stroke-linecap:round;stroke-linejoin:miter;stroke-miterlimit:4;stroke-dasharray:none;stroke-opacity:1"
       d="M 1127.4923 865.71114 L 1116.5124 884.72882 "
       transform="scale(0.26458333)"
       inkscape:export-xdpi="90"
       inkscape:export-ydpi="90" />
    <path
       id="path2800"
       style="opacity:0.518159;fill:none;stroke:#000000;stroke-width:3;stroke-linecap:round;stroke-linejoin:miter;stroke-miterlimit:4;stroke-dasharray:none;stroke-opacity:1"
       d="M 1159.4631 810.33604 L 1140.4983 843.18418 "
       transform="scale(0.26458333)"
       inkscape:export-xdpi="90"
       inkscape:export-ydpi="90" />
    <path
       id="path2798"
       style="opacity:0.518159;fill:none;stroke:#000000;stroke-width:3;stroke-linecap:round;stroke-linejoin:miter;stroke-miterlimit:4;stroke-dasharray:none;stroke-opacity:1"
       d="M 1074.4772 1002.5737 L 1064.6608 1039.2091 "
       transform="scale(0.26458333)"
       inkscape:export-xdpi="90"
       inkscape:export-ydpi="90" />
    <path
       id="path2796"
       style="opacity:0.518159;fill:none;stroke:#000000;stroke-width:3;stroke-linecap:round;stroke-linejoin:miter;stroke-miterlimit:4;stroke-dasharray:none;stroke-opacity:1"
       d="M 1084.6589 964.57511 L 1081.2096 977.44815 "
       transform="scale(0.26458333)"
       inkscape:export-xdpi="90"
       inkscape:export-ydpi="90" />
    <path
       id="path2792"
       style="opacity:0.518159;fill:none;stroke:#000000;stroke-width:3;stroke-linecap:round;stroke-linejoin:miter;stroke-miterlimit:4;stroke-dasharray:none;stroke-opacity:1"
       d="M 1112.7821 859.61798 L 1110.8661 866.76841 "
       transform="scale(0.26458333)"
       inkscape:export-xdpi="90"
       inkscape:export-ydpi="90" />
    <path
       id="path2790"
       style="opacity:0.518159;fill:none;stroke:#000000;stroke-width:3;stroke-linecap:round;stroke-linejoin:miter;stroke-miterlimit:4;stroke-dasharray:none;stroke-opacity:1"
       d="M 1129.3314 797.85509 L 1119.5145 834.49243 "
       transform="scale(0.26458333)"
       inkscape:export-xdpi="90"
       inkscape:export-ydpi="90" />
    <path
       id="path2092"
       style="opacity:1;fill:#000000;stroke:none;stroke-width:0.79375;stroke-linecap:round;stroke-linejoin:round;stroke-miterlimit:4;stroke-dasharray:none"
       inkscape:transform-center-x="-0.009948117"
       inkscape:transform-center-y="-1.6633575"
       d="m 290.20195,224.78503 -3.88397,12.19654 -12.79931,-0.12224 10.39938,7.46271 -4.07148,12.13512 10.3109,-7.58439 10.28307,7.62218 -4.02683,-12.14991 10.4268,-7.42429 -12.79963,0.075 z m -0.0101,5.445 2.64563,8.41545 -2.66794,3.65789 11.48953,-3.70971 -7.18605,5.11683 -4.30348,-1.40712 7.07873,9.78065 -7.0869,-5.25311 0.008,-4.52754 -7.11444,9.75457 2.80599,-8.36339 4.30845,-1.39118 -11.47557,-3.75202 8.82114,0.0842 2.65443,3.66777 z"
       inkscape:export-xdpi="90"
       inkscape:export-ydpi="90" />
    <path
       style="fill:none;stroke:none;stroke-width:0.264583px;stroke-linecap:butt;stroke-linejoin:miter;stroke-opacity:1"
       d="m 158.03457,239.61333 0.19062,-12.02144 11.37416,3.89611 7.05733,22.33746 z"
       id="path2097" />
  </g>
</svg>
